<svg width="1035" height="902" viewBox="0 0 1035 902" fill="none" xmlns="http://www.w3.org/2000/svg">
<g filter="url(#filter0_f_19_1214)">
<ellipse cx="603" cy="127" rx="157" ry="147" fill="#23EAFF"/>
</g>
<g opacity="0.3" filter="url(#filter1_f_19_1214)">
<ellipse cx="954.5" cy="450.5" rx="246.5" ry="180.5" fill="url(#paint0_linear_19_1214)"/>
</g>
<path style="mix-blend-mode:screen" d="M1132.81 475.815C1317.24 291.386 1317.24 -7.63271 1132.81 -192.062C948.386 -376.491 649.367 -376.491 464.938 -192.062C280.509 -7.63273 280.509 291.386 464.938 475.815C649.367 660.244 948.386 660.244 1132.81 475.815Z" fill="url(#paint1_radial_19_1214)"/>
<path style="mix-blend-mode:screen" d="M1078.39 421.389C1232.76 267.018 1232.76 16.7346 1078.39 -137.636C924.018 -292.006 673.735 -292.006 519.364 -137.636C364.994 16.7347 364.994 267.018 519.364 421.389C673.735 575.759 924.018 575.759 1078.39 421.389Z" fill="url(#paint2_radial_19_1214)"/>
<path style="mix-blend-mode:screen" d="M1083.35 426.346C1240.45 269.238 1240.45 14.5154 1083.35 -142.593C926.238 -299.7 671.515 -299.7 514.408 -142.593C357.3 14.5154 357.3 269.238 514.408 426.345C671.516 583.453 926.238 583.454 1083.35 426.346Z" fill="url(#paint3_radial_19_1214)"/>
<path fill-rule="evenodd" clip-rule="evenodd" d="M1140.3 137.074C1140.3 169.844 1135.69 201.594 1126.98 231.554C1109.7 291.834 1076.21 345.194 1031.49 386.814C999.523 416.624 961.783 440.324 920.233 456.094C882.573 470.424 841.813 478.204 799.103 478.204C793.053 478.204 786.933 478.064 780.953 477.704H780.883C771.953 477.274 763.093 476.404 754.383 475.324C688.493 466.684 628.653 439.314 580.113 398.554C561.893 383.364 545.333 366.224 530.713 347.494C519.623 333.454 509.613 318.544 500.833 302.774C498.743 299.024 496.723 295.214 494.713 291.394C494.713 291.254 494.643 291.174 494.573 291.034C492.483 286.934 490.543 282.824 488.663 278.644H488.593C482.683 265.614 477.503 252.144 473.323 238.314C470.153 228.374 467.493 218.154 465.333 207.784C465.263 207.714 465.263 207.564 465.263 207.494C463.753 200.224 462.453 192.874 461.443 185.454C459.143 169.614 457.983 153.484 457.983 137.064C457.983 127.634 458.343 118.194 459.203 108.984C459.633 103.074 460.283 97.2438 461.073 91.4138C465.463 57.8539 474.833 25.8839 488.363 -3.85614C494.993 -18.4761 502.623 -32.5161 511.193 -45.9861C525.453 -68.4561 542.303 -89.0461 561.313 -107.556C622.743 -167.326 706.633 -204.126 799.103 -204.126C802.703 -204.126 806.303 -204.056 809.833 -203.986C813.653 -203.846 817.463 -203.696 821.283 -203.406C840.873 -202.106 860.023 -199.226 878.533 -194.766C889.333 -192.176 899.923 -189.146 910.293 -185.546C917.353 -183.166 924.263 -180.506 931.103 -177.626C936.213 -175.466 941.183 -173.236 946.153 -170.856C947.013 -170.426 947.883 -170.066 948.743 -169.636C981.873 -153.436 1011.89 -132.116 1037.96 -106.556C1041.7 -102.956 1045.31 -99.2161 1048.91 -95.3961C1051.29 -92.8062 1053.66 -90.1361 1055.97 -87.4761C1059.93 -83.0161 1063.75 -78.3261 1067.49 -73.6461C1081.1 -56.3661 1093.05 -37.7861 1103.06 -18.0561C1114.8 4.84387 1124.02 29.2538 1130.28 54.8239C1136.83 81.1839 1140.29 108.694 1140.29 137.064L1140.3 137.074Z" fill="url(#paint4_radial_19_1214)"/>
<path fill-rule="evenodd" clip-rule="evenodd" d="M948.733 -164.616C947.613 -164.496 946.483 -164.376 945.363 -164.146C941.513 -163.436 938.503 -163.786 934.713 -164.856C931.993 -165.626 930.033 -166.746 927.133 -167.226C922.993 -167.876 919.143 -169.656 915.003 -170.186C910.623 -170.776 906.833 -172.496 902.693 -173.976C899.443 -175.156 897.723 -174.746 894.583 -173.976C891.443 -173.146 889.253 -174.446 886.473 -175.636C883.333 -176.996 880.203 -177.236 876.883 -177.886C868.243 -179.666 859.663 -182.446 851.083 -184.636C845.753 -185.996 840.843 -185.996 835.403 -186.056C831.143 -186.116 827.293 -184.876 823.033 -184.876C820.193 -184.876 817.763 -185.346 814.923 -185.766C812.023 -186.296 809.063 -185.706 806.163 -186.116C801.843 -186.766 799.533 -187.416 795.153 -186.056C791.903 -184.996 789.353 -185.106 786.103 -184.936C782.493 -184.756 778.413 -183.816 774.863 -182.986C768.473 -181.506 761.493 -180.326 754.923 -180.446C750.903 -180.446 744.983 -181.566 741.133 -180.206C738.643 -179.316 737.403 -176.656 735.693 -174.876C732.383 -171.446 728.293 -168.366 725.513 -164.516C722.733 -160.666 719.593 -156.706 719.833 -151.856C720.073 -147.656 722.023 -142.746 723.853 -138.896C725.743 -134.816 726.393 -131.086 722.193 -128.366C716.923 -124.876 710.833 -121.676 704.793 -119.966C700.773 -118.786 697.163 -118.076 693.783 -120.976C692.543 -122.046 691.773 -124.116 690.233 -124.946C688.633 -125.776 686.973 -124.946 685.263 -124.416C681.003 -123.176 676.863 -121.756 672.543 -121.046C669.883 -120.636 667.573 -119.216 664.963 -118.736C661.823 -118.146 659.573 -120.456 656.323 -119.686C651.763 -118.616 647.213 -116.726 642.473 -116.486C639.103 -116.306 634.843 -117.786 632.003 -119.506C630.343 -120.456 629.933 -121.396 628.033 -120.866C626.493 -120.506 624.183 -118.616 623.353 -117.436C622.233 -115.836 621.813 -113.766 620.693 -112.106C619.513 -110.276 618.383 -108.496 617.323 -106.546C615.373 -102.756 613.063 -99.2061 610.573 -95.8361C608.803 -93.4661 607.553 -90.2761 605.603 -88.0861C604.593 -86.9061 602.403 -86.0761 601.103 -85.1861C597.553 -82.6961 593.823 -80.4561 590.393 -77.7861C583.763 -72.5761 577.493 -66.8361 570.743 -61.8061C565.593 -57.9561 558.373 -55.7061 552.513 -53.2861C548.843 -51.8061 545.053 -50.7361 541.383 -49.2061C540.203 -48.7361 538.013 -48.1961 537.003 -47.3161C535.703 -46.1961 534.993 -44.1161 533.803 -42.5861C530.603 -38.6761 527.233 -34.7761 524.803 -30.2761C523.323 -27.6761 522.433 -25.0061 521.493 -22.1661C520.193 -18.3161 518.123 -14.7661 516.813 -10.9261C514.153 -2.87613 513.613 5.52386 510.663 13.5139C508.943 18.1939 506.463 22.4539 504.333 26.7139C500.663 33.9339 500.133 42.5139 499.063 50.5039C498.473 55.1839 498.713 60.5639 499.533 65.1239C500.423 70.0339 500.183 75.1239 500.123 80.1539C500.063 85.4839 496.693 90.6839 493.313 94.7139C490.233 98.4439 485.563 99.8639 482.133 103.174C479.233 106.014 475.743 109.274 474.503 113.294C473.973 115.074 474.443 117.084 474.153 118.974C473.383 123.174 472.323 127.144 471.723 131.404C471.073 136.674 470.953 141.644 470.953 146.964C470.953 149.624 470.773 152.354 470.893 155.014C471.013 157.554 471.963 159.924 472.133 162.474C472.253 164.254 471.893 166.024 472.133 167.804C472.483 169.814 473.253 171.884 473.733 173.844C474.913 178.574 475.803 183.194 476.693 187.934C477.523 192.314 479.233 196.634 480.603 200.894C482.493 206.694 483.743 212.674 484.863 218.704C485.753 223.204 485.693 227.874 486.343 232.434C486.873 236.104 487.703 239.834 487.883 243.504C488.063 249.064 486.703 254.634 486.643 260.254C486.583 269.724 490.373 279.194 492.563 288.304C493.213 290.844 493.863 293.454 494.573 295.994C471.133 249.714 457.943 197.404 457.943 142.014C457.943 74.6639 477.473 11.8839 511.143 -41.0261C525.463 -63.5161 542.273 -84.1061 561.263 -102.576C622.753 -162.346 706.603 -199.156 799.103 -199.156C806.563 -199.156 813.893 -198.916 821.233 -198.446C866.743 -195.546 909.823 -183.706 948.703 -164.656L948.733 -164.616Z" fill="url(#paint5_linear_19_1214)"/>
<path style="mix-blend-mode:multiply" fill-rule="evenodd" clip-rule="evenodd" d="M820.873 302.384C820.873 302.384 852.723 349.414 894.883 387.554C937.033 425.694 943.223 451.324 943.223 451.324C943.223 451.324 1022.89 418.004 1079.74 339.104C1136.59 260.204 820.873 302.384 820.873 302.384Z" fill="url(#paint6_linear_19_1214)"/>
<path style="mix-blend-mode:screen" fill-rule="evenodd" clip-rule="evenodd" d="M596.813 408.514C561.543 378.984 532.313 342.414 511.303 300.984C498.103 274.944 488.163 247.014 482.013 217.724C481.953 217.664 481.953 217.544 481.953 217.424C477.223 194.704 474.673 171.144 474.673 147.004C474.673 79.6539 494.203 16.8739 527.873 -36.0361C542.193 -58.5261 559.003 -79.1161 577.993 -97.5861C639.483 -157.356 723.333 -194.166 815.833 -194.166C823.293 -194.166 830.623 -193.926 837.963 -193.456C861.093 -191.976 883.583 -188.146 905.213 -182.276C878.553 -191.016 850.413 -196.536 821.263 -198.406C813.923 -198.876 806.583 -199.116 799.133 -199.116C706.633 -199.116 622.783 -162.306 561.293 -102.536C542.293 -84.0761 525.493 -63.4761 511.173 -40.9861C477.503 11.9239 457.973 74.7039 457.973 142.054C457.973 166.194 460.513 189.754 465.253 212.474C465.253 212.594 465.253 212.714 465.313 212.774C471.463 242.064 481.413 270.004 494.603 296.034C515.613 337.454 544.843 374.034 580.113 403.564C617.493 434.924 661.623 458.344 710.023 471.414C668.153 457.754 629.853 436.234 596.813 408.514Z" fill="url(#paint7_radial_19_1214)"/>
<path style="mix-blend-mode:multiply" opacity="0.4" fill-rule="evenodd" clip-rule="evenodd" d="M878.533 -189.766C860.023 -194.236 840.873 -197.116 821.283 -198.406C817.463 -198.696 813.653 -198.836 809.833 -198.986C817.973 -194.446 825.533 -186.456 827.403 -178.246C830.503 -164.206 835.033 -151.166 837.633 -137.126C840.223 -123.296 839.723 -106.156 833.453 -93.6261C829.493 -85.7061 824.813 -78.9361 818.543 -72.4561C814.083 -67.9161 810.263 -65.3961 807.093 -59.7861C803.923 -54.3161 800.903 -48.9861 797.303 -43.7961C791.973 -36.0161 786.353 -27.7361 780.233 -20.6061C778.073 -18.0161 775.693 -16.2161 773.753 -13.1861C771.303 -9.43611 770.153 -5.91614 767.483 -2.95613C761.363 3.88387 751.853 7.70387 743.433 10.7939C732.483 14.8939 723.193 19.5039 712.903 24.9839C698.433 32.6139 686.543 42.4139 669.623 42.8439C664.003 42.9839 658.173 42.1939 652.553 42.7039C645.563 43.2839 639.083 46.6639 632.173 47.9639C626.123 49.1139 620.073 50.3439 614.023 51.3539C604.083 52.8639 595.873 56.2539 586.293 58.5539C573.833 61.6539 560.803 60.8539 548.273 62.5839C536.963 64.0939 527.173 65.4639 515.943 62.7239C498.593 58.4039 489.303 50.1939 492.973 31.7539C495.423 19.6539 494.563 10.4339 488.363 1.14388C474.823 30.8839 465.463 62.8639 461.073 96.4138C469.283 99.8738 478.643 101.674 485.913 102.394C511.193 104.984 538.413 93.6839 561.523 85.0439C573.333 80.5839 585.363 74.0938 598.103 72.6538C611.493 71.2138 623.303 72.8739 636.703 69.5539C682.863 58.1739 728.373 42.0439 769.563 17.6339C786.633 7.55386 794.193 -6.85611 806.073 -21.4661C816.513 -34.2161 828.253 -44.7961 840.713 -55.4561C852.953 -65.8961 863.753 -76.2661 871.033 -90.8861C878.743 -106.296 885.293 -123.216 888.823 -140.146C892.563 -158.006 887.963 -175.216 878.523 -189.766H878.533ZM876.233 -143.386C875.513 -139.566 875.013 -135.466 873.853 -131.866C870.903 -122.716 865.433 -113.286 856.863 -108.466C852.903 -106.236 847.643 -107.606 845.343 -111.566C844.123 -113.726 844.123 -116.466 843.683 -118.836C842.823 -123.516 842.243 -128.126 842.313 -132.956C842.453 -144.546 842.023 -155.716 840.943 -167.306C842.163 -160.756 840.653 -177.026 850.883 -181.496C855.703 -183.656 862.983 -181.716 866.653 -177.966C871.263 -173.286 872.343 -165.366 874.073 -159.246C875.583 -153.776 877.243 -149.166 876.233 -143.406V-143.386Z" fill="url(#paint8_linear_19_1214)"/>
<path style="mix-blend-mode:multiply" opacity="0.4" fill-rule="evenodd" clip-rule="evenodd" d="M826.823 401.244C825.813 401.384 824.883 401.604 823.943 401.674L830.713 402.324C829.853 402.104 828.403 401.604 826.823 401.244ZM826.823 401.244C825.813 401.384 824.883 401.604 823.943 401.674L830.713 402.324C829.853 402.104 828.403 401.604 826.823 401.244ZM1130.28 59.8339C1130.14 68.7639 1127.62 77.6239 1127.4 86.6239C1127.18 98.5739 1125.17 107.864 1122.07 119.394C1119.91 127.314 1115.88 133.144 1113.21 140.784C1110.19 149.574 1105.86 157.064 1101.4 165.124C1092.54 181.254 1083.69 197.384 1079.87 215.674C1076.41 232.164 1075.69 246.064 1067.48 261.184C1059.63 275.734 1047.75 287.824 1039.32 301.944C1035.36 308.714 1032.62 308.354 1026.65 312.604C1019.95 317.354 1013.83 324.844 1007.35 330.104C993.383 341.264 980.633 348.974 963.713 355.304C953.123 359.334 942.833 362.504 931.593 364.234C924.243 365.384 917.043 364.234 909.773 365.454C898.253 367.324 887.303 370.784 876.213 374.384C857.993 380.294 839.413 383.674 821.263 389.294C808.593 393.184 796.203 395.484 783.313 398.224C775.463 399.884 769.123 404.134 760.993 402.474C752.783 400.744 745.293 398.014 737.223 395.484C726.923 392.314 718.423 392.104 707.333 392.104C692.573 392.104 675.433 394.334 660.883 391.524C644.463 388.354 628.113 383.964 611.693 380.574C601.753 378.484 594.193 374.384 585.123 370.134C576.623 366.174 567.483 365.024 558.623 362.214C549.263 359.264 540.263 354.864 530.683 352.494C545.303 371.214 561.863 388.354 580.083 403.554C628.623 444.314 688.463 471.684 754.353 480.324C763.063 481.404 771.923 482.264 780.853 482.704H780.923C800.223 478.314 819.093 472.624 838.533 466.644C870.863 456.564 898.803 437.044 931.143 427.544C943.173 423.944 953.973 420.054 965.203 414.514C973.483 410.414 982.273 409.334 990.623 405.724C1020.65 392.974 1043.26 363.814 1056.66 335.224C1062.71 322.264 1068.54 307.574 1079.42 297.854C1083.88 293.824 1089.21 290.294 1093.1 285.754C1097.49 280.784 1100.44 274.594 1104.33 269.194C1111.17 259.544 1117.8 249.824 1124.64 240.104C1125.5 238.954 1126.3 237.804 1126.94 236.574C1135.65 206.614 1140.26 174.854 1140.26 142.094C1140.26 113.724 1136.8 86.2139 1130.25 59.8539L1130.28 59.8339ZM817.313 403.694C818.533 402.904 820.553 401.244 821.853 400.884C823.153 400.454 825.093 400.814 826.823 401.244C829.343 400.884 831.863 400.594 834.243 401.604C835.613 402.254 838.203 403.474 838.783 405.064C839.433 406.574 838.563 407.514 837.563 408.524C836.263 409.824 835.263 409.824 833.463 410.184C829.713 410.904 826.043 411.554 822.153 411.194C819.853 410.974 816.393 410.834 814.953 408.674C813.583 406.584 815.603 404.854 817.333 403.704L817.313 403.694ZM839.713 448.194C837.623 450.854 835.533 453.594 832.803 455.614C830.213 457.634 827.333 458.854 824.523 460.434C817.613 464.324 810.483 468.504 802.703 470.514C799.603 471.304 796.513 471.164 793.273 471.374C789.383 471.734 785.563 471.804 781.683 471.874C777.073 471.944 772.613 472.884 768.003 473.174C763.393 473.394 758.853 473.534 754.253 473.824C746.623 474.324 739.853 473.034 732.653 470.444C726.173 468.064 719.473 465.044 713.643 461.154C709.543 458.414 706.013 454.534 702.483 451.074C699.173 447.974 696.503 444.664 694.633 440.484C693.983 438.974 693.263 437.384 693.623 435.734C693.763 434.944 694.123 434.294 694.123 434.074C695.423 433.064 696.713 432.134 697.943 431.624C700.393 430.544 703.123 430.034 705.723 429.754C711.993 428.894 718.833 429.974 725.093 430.474C728.833 430.764 732.153 430.974 735.823 430.404C740.723 429.684 745.613 428.174 750.373 426.874C761.893 423.774 773.203 421.334 785.083 420.034C796.893 418.734 809.283 417.444 821.163 419.454C825.623 420.174 831.033 421.474 834.923 424.064C837.803 426.004 840.103 429.104 841.693 432.204C844.433 437.464 843.273 443.654 839.753 448.194H839.713ZM930.093 418.594C928.003 421.044 924.983 422.484 922.383 424.284C918.783 426.804 914.963 428.824 911.223 430.984C908.053 432.854 905.033 434.374 901.713 435.884C898.473 437.394 895.163 438.914 891.923 440.564C888.393 442.364 884.573 443.584 880.833 444.884C878.093 445.894 875.143 447.114 872.193 446.614C869.813 446.114 867.153 445.174 865.423 443.374C862.833 440.634 863.263 437.684 864.123 436.464C864.123 433.944 863.403 430.344 864.193 427.894C864.693 426.454 866.423 424.294 867.223 422.854C870.243 417.384 874.563 413.424 879.103 409.104C883.063 405.284 886.883 402.404 892.213 400.534C898.193 398.514 905.033 398.014 911.223 397.224C917.993 396.434 929.443 395.924 932.463 403.704C934.553 409.104 933.833 414.074 930.083 418.614L930.093 418.594ZM830.713 402.324C829.853 402.104 828.403 401.604 826.823 401.244C825.813 401.384 824.883 401.604 823.943 401.674L830.713 402.324Z" fill="url(#paint9_linear_19_1214)"/>
<path style="mix-blend-mode:multiply" opacity="0.4" fill-rule="evenodd" clip-rule="evenodd" d="M1103.07 -13.0461V-11.6761C1102.64 -2.24615 1098.82 4.23386 1095.44 12.8039C1092.7 19.7139 1089.53 25.9139 1086.01 32.4639C1080.03 43.4139 1077.22 53.7039 1072.83 65.4439C1065.99 83.8039 1062.53 102.604 1051.8 119.314C1042.15 134.224 1039.92 152.514 1032.07 168.424C1023.21 186.214 1009.67 198.954 995.133 211.924C988.653 217.754 983.253 224.744 977.413 231.084C971.223 237.784 966.393 246.424 958.973 251.754C942.913 263.424 925.343 273.504 909.643 285.814C900.213 293.164 893.513 302.954 883.143 309.074C872.773 315.264 861.543 319.584 851.243 325.854C841.953 331.544 832.803 337.664 822.723 341.764C811.203 346.374 801.623 345.004 789.813 345.584C776.703 346.164 763.163 349.614 750.853 353.864C740.623 357.464 732.053 361.134 721.613 357.464C714.703 355.014 708.433 350.474 701.163 348.964C684.243 345.504 664.943 348.964 647.733 348.534C634.263 348.174 619.433 345.074 606.253 342.414C593.293 339.894 582.703 330.824 570.173 327.144C554.693 322.604 536.613 326.494 521.633 320.594C515.513 318.214 509.683 313.324 504.273 309.934C503.123 309.214 501.973 308.494 500.813 307.774C498.723 304.024 496.703 300.214 494.693 296.394C498.363 297.904 502.043 299.564 505.783 301.364C525.373 310.724 549.783 309.284 570.883 312.954C594.643 317.134 618.413 323.324 642.393 326.064C652.113 327.144 661.913 327.074 671.563 325.994C685.103 324.484 699.143 324.694 712.463 322.394C735.653 318.294 758.263 307.344 782.313 310.444C786.773 311.024 791.743 313.394 796.283 313.324C802.983 313.104 807.593 307.274 812.993 303.894C822.503 297.914 832.513 299.064 840.863 291.224C849.073 283.514 858.143 278.554 868.153 273.504C894.223 260.254 915.323 238.724 935.773 218.274C952.913 201.204 969.543 183.134 981.283 161.814C992.803 140.864 990.503 115.944 999.143 94.1939C1005.41 78.6339 1010.66 64.0239 1020.82 50.3339C1025.72 43.7839 1031.69 38.1639 1036.88 31.8939C1042.42 25.1939 1045.81 17.9239 1050.06 10.4339C1054.74 2.08387 1060.65 -5.62614 1064.39 -14.4861C1067.92 -22.9861 1067.63 -30.4762 1067.49 -39.3362C1067.35 -49.0562 1067.49 -58.9261 1067.49 -68.6461C1081.1 -51.3661 1093.05 -32.7861 1103.06 -13.0561L1103.07 -13.0461Z" fill="url(#paint10_linear_19_1214)"/>
<path style="mix-blend-mode:multiply" opacity="0.4" fill-rule="evenodd" clip-rule="evenodd" d="M1048.91 -90.3861C1045.31 -94.2061 1041.71 -97.9461 1037.96 -101.546C1011.89 -127.116 981.863 -148.426 948.743 -164.626C947.883 -165.056 947.013 -165.416 946.153 -165.846C941.183 -168.226 936.213 -170.456 931.103 -172.616C924.263 -175.496 917.343 -178.156 910.293 -180.536C912.523 -179.096 915.113 -177.946 915.983 -177.516C920.233 -175.356 923.693 -173.916 926.643 -170.096C929.523 -166.356 930.823 -163.546 931.033 -158.786C931.173 -154.326 931.823 -149.716 932.613 -145.246C933.333 -141.146 935.353 -137.256 936.213 -133.146C936.643 -130.696 937.003 -128.536 937.793 -126.086C939.593 -120.396 941.463 -114.776 942.693 -108.876C944.853 -98.3661 939.233 -89.6461 935.493 -80.0661C929.583 -64.8761 925.843 -49.4561 921.453 -33.7661C917.993 -21.3761 911.223 -9.13614 901.863 -0.206146C892.713 8.65385 879.183 10.6639 870.973 20.2439C863.773 28.6639 854.913 36.6638 844.763 41.4138C833.023 47.0338 820.633 51.3539 808.183 55.1638C799.253 57.8239 789.893 58.0439 780.893 60.4239C769.733 63.2339 759.503 68.8539 748.993 73.3839C737.833 78.2039 727.393 84.4038 716.153 89.2238C704.843 93.9738 694.333 100.454 683.103 105.064C677.633 107.294 671.873 108.374 666.323 110.324C654.803 114.354 643.643 121.704 631.393 123.144C627.143 123.644 622.823 124.654 618.643 124.654C615.263 124.724 612.233 125.084 608.993 126.314C598.333 130.494 591.783 142.514 579.543 142.584C568.313 142.584 557.223 142.154 546.053 143.444C540.653 144.094 535.253 143.734 529.853 143.804C528.273 143.804 526.183 144.164 524.593 143.514C522.793 142.794 520.773 141.064 518.973 140.054C514.943 137.824 511.053 134.944 507.453 132.204C500.393 126.734 491.033 129.754 482.893 128.104C480.443 127.604 476.843 127.884 474.683 126.664C469.643 123.634 463.303 117.444 459.203 113.994C458.343 123.214 457.983 132.644 457.983 142.074C457.983 158.494 459.133 174.624 461.443 190.464C462.453 197.884 463.743 205.224 465.263 212.504C465.263 212.574 465.263 212.724 465.333 212.794C467.493 223.164 470.153 233.394 473.323 243.324C477.503 257.154 482.683 270.614 488.593 283.654H488.663C497.953 285.164 507.533 286.394 516.893 285.024C530.213 283.084 543.463 280.994 557.003 281.494C569.673 282.074 581.493 286.394 593.873 288.484C607.773 290.784 622.243 292.664 636.363 293.594C649.253 294.384 662.073 295.464 674.893 296.904C684.543 298.054 694.193 299.934 703.843 300.574C728.903 302.304 753.393 295.754 778.013 293.154C790.323 291.854 802.573 288.764 814.663 286.164C822.083 284.584 829.283 282.634 835.833 278.604C844.473 273.204 849.943 264.924 857.653 258.364C866.153 251.094 875.013 244.034 883.863 237.264C891.423 231.504 898.553 225.234 906.473 220.124C912.523 216.164 918.573 212.414 924.263 207.954C935.423 199.164 944.283 189.014 953.503 178.354C966.393 163.374 971.723 142.564 976.903 123.984C981.583 106.914 984.823 89.8539 994.183 74.5139C998.793 67.0239 1002.25 58.3839 1004.41 49.8839C1005.78 44.5538 1006.28 38.5739 1008.73 33.5339C1012.62 25.3239 1020.25 19.4239 1024.93 11.6439C1028.6 5.52386 1032.71 -0.166122 1035.3 -6.93613C1040.34 -20.2561 1044.16 -33.2161 1046.32 -47.4061C1047.9 -57.8461 1051.29 -67.4261 1054.53 -77.4361C1055.03 -79.0961 1055.54 -80.7461 1055.97 -82.4761C1053.67 -85.1361 1051.29 -87.8062 1048.91 -90.3961V-90.3861ZM604.953 142.724C605.673 140.924 618.423 135.954 620.363 135.374C620.293 135.444 620.143 135.514 619.933 135.594L611.583 139.194C620.803 136.094 637.433 145.464 629.373 156.044C626.993 159.144 620.803 160.654 617.133 161.234C613.463 161.884 611.153 160.654 608.923 157.494C607.053 154.754 605.683 150.004 605.173 146.764C604.953 145.614 604.453 143.884 604.953 142.734V142.724ZM503.343 234.614C493.403 231.874 486.783 228.204 480.663 219.854C476.703 214.454 473.243 209.054 472.163 202.424C471.303 196.954 469.143 192.054 470.433 186.584C471.443 182.264 473.173 177.514 475.183 173.474C477.413 168.934 480.723 164.254 481.013 162.744C490.953 161.884 500.243 161.524 510.173 161.444C521.263 161.374 532.353 162.814 543.513 162.884C548.553 162.954 553.593 163.174 558.563 162.094C563.393 161.154 568.073 159.864 572.963 159.074C581.463 157.634 589.383 156.624 597.373 160.874C603.423 164.114 606.233 170.814 609.043 176.864C610.633 180.324 611.563 182.774 611.563 186.654C611.633 191.334 611.343 195.944 610.773 200.624C610.553 202.354 610.343 204.154 610.053 205.884C603.073 221.154 583.843 226.194 569.513 231.524C548.553 239.224 524.863 240.454 503.333 234.624L503.343 234.614ZM656.733 267.304C652.273 278.534 633.473 282.574 622.673 283.004C617.343 283.224 610.933 282.144 606.253 279.334C603.663 277.754 600.923 274.724 599.413 272.064C598.193 270.044 595.453 266.304 589.903 267.964C591.053 261.774 593.003 255.864 595.593 250.174C598.043 247.434 600.633 244.844 603.303 242.394C608.343 237.854 613.963 233.894 620.013 230.804C629.443 226.054 639.313 229.584 648.383 233.754C654.503 236.564 659.253 240.744 660.553 247.434C662.063 255.064 659.543 260.464 656.733 267.314V267.304ZM783.043 265.144C779.583 273.424 774.763 275.294 767.123 279.184C758.193 283.724 747.323 287.104 737.233 287.174C732.053 287.244 727.223 284.794 722.543 282.924C719.443 281.704 716.063 280.904 713.613 278.604C706.843 272.414 705.763 263.334 709.943 265.214C707.353 259.664 705.693 253.984 705.043 248.004C706.193 247.064 706.913 245.844 707.273 244.334C710.873 237.564 717.573 231.944 724.193 228.204C736.003 221.434 751.053 220.644 763.653 225.904C769.193 228.204 772.723 231.014 776.903 235.264C778.843 237.284 781.583 239.154 783.093 241.604C786.833 247.874 785.683 258.814 783.023 265.154L783.043 265.144ZM821.853 263.844C819.913 265.424 816.163 268.524 813.643 268.024C811.553 267.594 807.593 263.344 808.243 261.114L806.873 259.744C809.893 255.064 812.923 250.314 815.873 245.484C820.483 247.504 824.583 247.214 827.393 252.254C829.983 256.934 825.303 261.044 821.853 263.844ZM918.423 37.3639C914.603 42.4739 909.563 47.3039 903.663 49.7539C896.243 52.8539 886.303 55.1539 885.943 43.9939C885.653 37.4439 886.733 32.6839 889.693 26.6439C893.943 18.0739 897.973 15.9138 906.183 11.6638C909.203 12.0238 912.373 12.7439 914.683 13.5339C919.293 15.0439 923.683 19.1539 924.333 24.0439C925.053 29.1539 921.383 33.5539 918.423 37.3639ZM1008.51 -11.1761C1004.91 0.0538483 1000.08 10.9339 995.123 21.5939C989.073 34.7039 988.353 48.1639 985.333 61.9939C983.603 69.7739 979.933 78.3439 972.303 81.3639C968.993 82.6638 965.753 82.3739 962.073 82.3739C958.763 82.3739 952.643 83.5938 952.853 86.4738C950.913 81.0739 947.593 73.8039 946.303 67.6739C944.933 60.9039 944.363 53.6339 943.283 46.8639C942.133 39.7339 941.623 32.6039 940.903 25.4039C940.323 18.7039 938.963 11.6539 939.033 4.88385C939.323 -17.4362 951.633 -45.2361 972.593 -55.5361C979.003 -58.6361 985.343 -60.0761 992.393 -58.9161C1000.6 -57.6961 1005.28 -55.4561 1008.95 -47.6061C1013.92 -36.8061 1011.97 -22.2561 1008.52 -11.1661L1008.51 -11.1761Z" fill="url(#paint11_linear_19_1214)"/>
<path style="mix-blend-mode:multiply" opacity="0.4" fill-rule="evenodd" clip-rule="evenodd" d="M909.213 10.0739C908.133 10.6539 907.123 11.1539 906.193 11.6539C904.323 11.3639 902.523 11.2939 901.013 11.4339L909.223 10.0639L909.213 10.0739Z" fill="url(#paint12_linear_19_1214)"/>
<path style="mix-blend-mode:multiply" opacity="0.4" fill-rule="evenodd" clip-rule="evenodd" d="M481.023 162.734C480.523 162.804 479.943 162.804 479.363 162.874C480.733 162.014 481.233 162.014 481.023 162.734Z" fill="url(#paint13_linear_19_1214)"/>
<path fill-rule="evenodd" clip-rule="evenodd" d="M1082.19 334.004C1082.19 334.004 1032 388.454 994.073 400.594L962.933 410.094C962.933 410.094 820.873 358.984 813.093 270.074C806.553 195.374 934.313 80.7239 968.883 67.0839C1003.45 53.4339 1043.93 61.1639 1043.93 61.1639L1082.19 334.004Z" fill="url(#paint14_linear_19_1214)"/>
<path fill-rule="evenodd" clip-rule="evenodd" d="M1043.93 61.1639C1013.97 51.6539 884.483 111.294 849.713 245.094C842.663 272.244 908.343 375.384 986.803 400.604C1012.84 408.974 1132.23 304.674 1137.22 233.994C1142.21 163.324 1088.44 75.2939 1043.94 61.1639H1043.93Z" fill="url(#paint15_linear_19_1214)"/>
<path fill-rule="evenodd" clip-rule="evenodd" d="M858.063 260.744C876.543 109.224 1014.31 59.8939 1044.27 69.4039C1065.91 76.2739 1097.74 108.054 1115.94 139.384C1097.15 100.694 1069.06 69.1439 1043.93 61.1639C1013.97 51.6539 884.483 111.294 849.713 245.094C847.263 254.524 853.613 273.144 866.213 294.474C859.323 279.924 857.193 267.954 858.063 260.744Z" fill="url(#paint16_linear_19_1214)"/>
<path style="mix-blend-mode:multiply" fill-rule="evenodd" clip-rule="evenodd" d="M604.733 423.084C604.733 423.084 635.613 434.404 658.123 428.264C658.123 428.264 666.773 355.234 639.253 308.514C611.733 261.804 565.093 332.394 565.093 332.394L554.423 377.104C554.423 377.104 580.373 408.324 604.733 423.094V423.084Z" fill="url(#paint17_linear_19_1214)"/>
<path fill-rule="evenodd" clip-rule="evenodd" d="M631.513 411.284L651.313 405.984C651.313 405.984 660.853 365.524 644.283 319.884C625.463 268.074 556.483 229.344 546.253 228.504C536.023 227.674 525.923 250.964 525.923 250.964L631.523 411.274L631.513 411.284Z" fill="url(#paint18_linear_19_1214)"/>
<path fill-rule="evenodd" clip-rule="evenodd" d="M943.223 451.324L910.343 494.094C910.343 494.094 853.253 521.724 795.953 508.334L754.383 480.324L943.223 451.324Z" fill="url(#paint19_linear_19_1214)"/>
<path fill-rule="evenodd" clip-rule="evenodd" d="M511.113 283.024C514.553 267.304 528.403 241.184 540.813 238.634C553.223 236.084 611.883 291.774 625.453 327.604C639.023 363.434 632.183 403.174 631.513 411.274C630.843 419.374 564.293 396.794 530.713 369.204C497.133 341.604 511.113 283.024 511.113 283.024Z" fill="url(#paint20_linear_19_1214)"/>
<path fill-rule="evenodd" clip-rule="evenodd" d="M625.453 327.614C611.873 291.784 553.223 236.094 540.813 238.644C536.033 239.624 531.033 244.124 526.503 250.164C529.283 247.634 532.113 245.844 534.883 245.274C547.293 242.724 607.043 287.044 620.383 322.974C636.753 367.094 627.753 398.934 626.143 412.844C629.373 413.054 631.403 412.624 631.513 411.294C632.183 403.194 639.033 363.454 625.453 327.624V327.614Z" fill="url(#paint21_linear_19_1214)"/>
<path fill-rule="evenodd" clip-rule="evenodd" d="M810.713 175.434C795.973 168.544 812.693 103.904 827.193 89.8438C841.693 75.7838 879.403 108.644 884.403 135.524C889.393 162.394 844.463 191.224 810.713 175.444V175.434Z" fill="url(#paint22_linear_19_1214)"/>
<path fill-rule="evenodd" clip-rule="evenodd" d="M825.463 170.504C813.663 164.784 827.043 111.154 838.663 99.4939C850.283 87.8239 880.483 115.094 884.483 137.394C888.483 159.694 852.493 183.604 825.463 170.514V170.504Z" fill="url(#paint23_linear_19_1214)"/>
<path fill-rule="evenodd" clip-rule="evenodd" d="M829.903 145.604C832.153 146.494 834.383 147.424 836.593 148.394C837.313 147.764 838.393 147.884 839.233 147.324C840.313 146.604 841.293 145.094 841.713 143.834C842.343 141.924 841.373 140.374 840.493 138.914C839.913 137.944 839.343 136.514 838.453 135.854C837.413 135.084 835.383 135.384 834.293 135.904C832.953 136.544 831.963 137.924 831.073 139.154C830.233 140.304 829.253 142.224 829.213 143.674C829.173 145.234 830.413 146.884 831.553 147.684L829.893 145.614L829.903 145.604Z" fill="#0EDBFF"/>
<path fill-rule="evenodd" clip-rule="evenodd" d="M511.843 315.664C514.093 316.554 516.323 317.484 518.533 318.454C519.243 317.824 520.323 317.944 521.173 317.384C522.253 316.664 523.233 315.154 523.653 313.894C524.283 311.984 523.313 310.434 522.433 308.974C521.853 308.004 521.283 306.574 520.393 305.914C519.353 305.134 517.323 305.444 516.233 305.964C514.893 306.604 513.903 307.984 513.013 309.214C512.173 310.364 511.193 312.284 511.153 313.734C511.113 315.294 512.353 316.944 513.493 317.744L511.833 315.674L511.843 315.664Z" fill="#0EDBFF"/>
<path fill-rule="evenodd" clip-rule="evenodd" d="M894.373 202.164C893.413 202.834 892.623 203.684 892.023 204.694C892.943 205.854 893.393 206.944 894.973 207.394C895.603 207.574 896.273 207.594 896.783 207.094C897.443 206.454 897.083 205.744 897.263 205.114C897.693 203.584 898.113 203.184 897.253 201.784C896.733 200.944 896.373 200.604 895.453 200.604C894.813 200.604 893.413 200.784 893.093 201.494L894.383 202.154L894.373 202.164Z" fill="#0EDBFF"/>
<path fill-rule="evenodd" clip-rule="evenodd" d="M899.483 237.834C899.313 238.224 897.583 242.624 899.833 241.354C900.963 240.714 900.563 238.984 899.793 238.484C899.833 238.344 899.873 238.194 899.913 238.054L899.483 237.834Z" fill="#0EDBFF"/>
<path fill-rule="evenodd" clip-rule="evenodd" d="M1012.11 302.804C1010.6 304.774 1010.41 305.574 1009.73 307.614C1010.37 308.214 1011.63 308.544 1012.47 308.514C1013.79 308.454 1013.85 308.034 1013.89 306.774C1013.92 305.754 1014.34 304.954 1014.1 303.974C1013.85 302.974 1012.85 301.944 1011.69 302.584L1012.12 302.804H1012.11Z" fill="#0EDBFF"/>
<path fill-rule="evenodd" clip-rule="evenodd" d="M917.153 206.474C918.013 207.264 918.553 208.244 918.773 209.414C917.573 209.714 917.433 208.534 917.253 207.604C916.973 206.114 917.663 206.574 918.363 205.384C918.493 205.414 918.623 205.444 918.753 205.464L917.143 206.484L917.153 206.474Z" fill="#0EDBFF"/>
<path fill-rule="evenodd" clip-rule="evenodd" d="M1025.14 110.024C1024.18 110.694 1023.4 111.534 1022.79 112.544C1023.36 113.244 1023.09 114.524 1024.41 114.424C1025.34 114.354 1026.11 113.354 1026.55 112.584C1027.07 111.694 1027.12 110.964 1027.18 109.994C1027.21 109.504 1027.21 107.394 1026.31 108.784L1025.13 110.024H1025.14Z" fill="#0EDBFF"/>
<path fill-rule="evenodd" clip-rule="evenodd" d="M526.323 290.084C528.863 289.394 531.033 288.074 532.863 286.114C531.043 284.984 527.043 282.634 526.323 286.064V290.084Z" fill="#0EDBFF"/>
<path fill-rule="evenodd" clip-rule="evenodd" d="M526.323 344.914C528.863 344.224 531.033 342.904 532.863 340.944C531.043 339.814 527.043 337.464 526.323 340.894V344.914Z" fill="#0EDBFF"/>
<path fill-rule="evenodd" clip-rule="evenodd" d="M912.223 148.694C914.753 145.594 918.393 139.924 922.973 143.034C925.633 144.834 926.393 149.614 923.853 151.514C921.493 153.274 919.333 153.774 916.673 154.504C914.643 155.064 911.613 153.714 912.223 150.704V148.694Z" fill="#0EDBFF"/>
<path fill-rule="evenodd" clip-rule="evenodd" d="M997.843 289.864C1000.37 286.764 1004.01 281.094 1008.59 284.204C1011.25 286.004 1012.01 290.784 1009.47 292.684C1007.11 294.444 1004.95 294.944 1002.29 295.674C1000.26 296.234 997.233 294.884 997.843 291.874V289.864Z" fill="#0EDBFF"/>
<path fill-rule="evenodd" clip-rule="evenodd" d="M970.933 326.454C973.463 323.354 977.103 317.694 981.683 320.794C984.343 322.594 985.103 327.374 982.563 329.274C980.203 331.034 978.043 331.534 975.383 332.264C973.353 332.824 970.323 331.474 970.933 328.464V326.454Z" fill="#0EDBFF"/>
<path fill-rule="evenodd" clip-rule="evenodd" d="M854.223 144.014C850.993 146.064 845.553 148.614 845.003 153.044C844.673 155.724 845.903 157.294 848.323 158.454C850.383 159.444 853.473 159.524 855.533 158.484C858.493 156.994 861.913 154.524 863.243 151.374C864.203 149.104 864.043 147.544 862.973 145.284C862.403 144.074 861.253 142.624 859.953 142.174C855.823 140.744 853.343 144.794 850.283 146.624L854.213 144.004L854.223 144.014Z" fill="#0EDBFF"/>
<path fill-rule="evenodd" clip-rule="evenodd" d="M864.693 132.234C866.453 132.854 867.943 133.844 869.153 135.174C867.393 135.774 865.513 137.164 863.713 136.524C861.383 135.694 860.943 133.474 861.473 131.244C861.763 130.024 863.953 127.884 865.203 128.424C865.833 128.694 865.953 129.554 866.163 130.104C866.603 131.264 866.623 131.014 866.003 132.234H864.693Z" fill="#0EDBFF"/>
<path fill-rule="evenodd" clip-rule="evenodd" d="M953.913 112.764C945.363 120.254 937.323 129.214 932.793 139.934C930.483 145.394 934.583 145.664 939.543 144.704C949.153 142.824 958.813 140.174 968.303 137.734C973.923 136.294 981.983 133.324 985.893 128.554C988.883 124.894 990.133 118.584 989.473 113.984C988.553 107.544 983.973 105.034 978.123 103.424C964.763 99.7238 945.803 114.144 940.843 126.454L953.913 112.774V112.764Z" fill="#0EDBFF"/>
<path fill-rule="evenodd" clip-rule="evenodd" d="M906.283 161.394C909.053 161.474 911.633 162.144 914.023 163.404C913.333 164.224 913.553 165.334 913.193 166.294C912.653 167.714 911.303 169.154 910.033 169.964C907.903 171.314 904.373 171.804 902.013 170.914C894.853 168.194 905.833 159.704 908.253 162.704L906.293 161.394H906.283Z" fill="#0EDBFF"/>
<path fill-rule="evenodd" clip-rule="evenodd" d="M506.483 434.934C505.523 435.604 504.733 436.454 504.133 437.464C505.053 438.614 505.503 439.714 507.083 440.164C507.713 440.344 508.383 440.364 508.893 439.864C509.553 439.224 509.193 438.514 509.373 437.884C509.803 436.354 510.223 435.954 509.363 434.554C508.843 433.714 508.483 433.374 507.563 433.374C506.923 433.374 505.523 433.554 505.203 434.264L506.493 434.924L506.483 434.934Z" fill="#0EDBFF"/>
<path fill-rule="evenodd" clip-rule="evenodd" d="M511.593 470.604C511.423 470.994 509.693 475.394 511.943 474.124C513.073 473.484 512.673 471.754 511.903 471.254C511.943 471.114 511.983 470.964 512.023 470.824L511.593 470.604Z" fill="#0EDBFF"/>
<path fill-rule="evenodd" clip-rule="evenodd" d="M529.263 439.244C530.123 440.034 530.663 441.014 530.883 442.184C529.683 442.484 529.543 441.304 529.363 440.374C529.083 438.884 529.773 439.344 530.473 438.154C530.603 438.184 530.733 438.214 530.863 438.234L529.253 439.254L529.263 439.244Z" fill="#0EDBFF"/>
<path fill-rule="evenodd" clip-rule="evenodd" d="M518.393 394.164C521.163 394.244 523.743 394.914 526.133 396.174C525.443 396.994 525.663 398.104 525.303 399.064C524.763 400.484 523.413 401.924 522.143 402.734C520.013 404.074 516.483 404.574 514.123 403.684C506.963 400.964 517.943 392.474 520.363 395.474L518.403 394.164H518.393Z" fill="#0EDBFF"/>
<path fill-rule="evenodd" clip-rule="evenodd" d="M1001.95 100.444C1000.77 101.294 991.733 106.314 996.033 108.494C998.343 109.664 1002.89 109.324 1005.24 108.324C1007.33 107.434 1009.45 106.064 1008.14 103.654C1005.49 98.7938 998.843 101.594 995.403 103.714L1001.94 100.444H1001.95Z" fill="#0EDBFF"/>
<path fill-rule="evenodd" clip-rule="evenodd" d="M529.593 319.824C530.543 325.124 531.633 330.924 536.243 334.434C541.023 338.064 546.433 336.594 551.123 333.824C554.603 331.774 557.883 329.584 561.283 327.494C563.263 326.274 565.003 325.964 565.093 323.134C565.183 320.094 562.383 316.004 560.633 313.694C558.543 310.934 554.323 307.634 551.063 306.424C543.943 303.764 530.353 306.404 530.513 316.094L529.583 319.824H529.593Z" fill="#0EDBFF"/>
<path fill-rule="evenodd" clip-rule="evenodd" d="M1006.29 330.244C1006.96 333.964 1007.72 338.034 1010.96 340.494C1014.32 343.044 1018.11 342.014 1021.4 340.074C1023.84 338.634 1026.15 337.094 1028.53 335.624C1029.92 334.764 1031.14 334.554 1031.2 332.564C1031.27 330.424 1029.3 327.564 1028.07 325.944C1026.6 324.004 1023.64 321.694 1021.36 320.844C1016.36 318.974 1006.82 320.834 1006.94 327.634L1006.29 330.254V330.244Z" fill="#0EDBFF"/>
<path style="mix-blend-mode:screen" d="M1074 359.214C1106.95 345.565 1122.6 307.788 1108.95 274.836C1095.3 241.884 1057.52 226.237 1024.57 239.886C991.619 253.535 975.971 291.312 989.62 324.263C1003.27 357.215 1041.05 372.863 1074 359.214Z" fill="url(#paint24_radial_19_1214)"/>
<path style="mix-blend-mode:screen" d="M1005.24 166.377C1028.66 142.961 1028.66 104.997 1005.24 81.5809C981.826 58.165 943.861 58.165 920.446 81.5809C897.03 104.997 897.03 142.961 920.445 166.377C943.861 189.793 981.826 189.793 1005.24 166.377Z" fill="url(#paint25_radial_19_1214)"/>
<path style="mix-blend-mode:screen" d="M547.343 383.034C583.01 383.034 611.923 354.12 611.923 318.454C611.923 282.787 583.01 253.874 547.343 253.874C511.677 253.874 482.763 282.787 482.763 318.454C482.763 354.12 511.677 383.034 547.343 383.034Z" fill="url(#paint26_radial_19_1214)"/>
<path style="mix-blend-mode:multiply" opacity="0.4" fill-rule="evenodd" clip-rule="evenodd" d="M820.873 302.384L850.453 258.904C850.453 258.904 888.383 366.794 986.793 400.594L965.233 414.494C965.233 414.494 864.913 385.944 820.873 302.384Z" fill="url(#paint27_linear_19_1214)"/>
<path style="mix-blend-mode:multiply" fill-rule="evenodd" clip-rule="evenodd" d="M876.883 -177.866C876.883 -177.866 1018.77 -35.0361 1120.89 28.4439C1120.89 28.4439 1111.01 -10.5861 1083.49 -46.5261C1083.49 -46.5261 997.763 -74.7161 876.883 -177.866Z" fill="url(#paint28_linear_19_1214)"/>
<path style="mix-blend-mode:screen" d="M709.856 49.1913C775.936 5.71842 806.911 -63.8669 779.04 -106.232C751.169 -148.597 675.007 -147.699 608.926 -104.226C542.846 -60.7531 511.871 8.83227 539.742 51.1973C567.613 93.5623 643.775 92.6642 709.856 49.1913Z" fill="url(#paint29_radial_19_1214)"/>
<g filter="url(#filter2_f_19_1214)">
<circle cx="749" cy="463" r="7" fill="white"/>
</g>
<path d="M748.5 451L750.533 461.467L761 463.5L750.533 465.533L748.5 476L746.467 465.533L736 463.5L746.467 461.467L748.5 451Z" fill="white"/>
<g filter="url(#filter3_f_19_1214)">
<circle cx="17.4" cy="111.6" r="5.6" fill="white"/>
</g>
<path d="M17 102L18.6263 110.374L27 112L18.6263 113.626L17 122L15.3737 113.626L7 112L15.3737 110.374L17 102Z" fill="white"/>
<g filter="url(#filter4_f_19_1214)">
<circle cx="364.36" cy="574.64" r="5.04" fill="white"/>
</g>
<path d="M364 566L365.464 573.536L373 575L365.464 576.464L364 584L362.536 576.464L355 575L362.536 573.536L364 566Z" fill="white"/>
<defs>
<filter id="filter0_f_19_1214" x="66" y="-400" width="1074" height="1054" filterUnits="userSpaceOnUse" color-interpolation-filters="sRGB">
<feFlood flood-opacity="0" result="BackgroundImageFix"/>
<feBlend mode="normal" in="SourceGraphic" in2="BackgroundImageFix" result="shape"/>
<feGaussianBlur stdDeviation="190" result="effect1_foregroundBlur_19_1214"/>
</filter>
<filter id="filter1_f_19_1214" x="437" y="-1" width="1035" height="903" filterUnits="userSpaceOnUse" color-interpolation-filters="sRGB">
<feFlood flood-opacity="0" result="BackgroundImageFix"/>
<feBlend mode="normal" in="SourceGraphic" in2="BackgroundImageFix" result="shape"/>
<feGaussianBlur stdDeviation="135.5" result="effect1_foregroundBlur_19_1214"/>
</filter>
<filter id="filter2_f_19_1214" x="731" y="445" width="36" height="36" filterUnits="userSpaceOnUse" color-interpolation-filters="sRGB">
<feFlood flood-opacity="0" result="BackgroundImageFix"/>
<feBlend mode="normal" in="SourceGraphic" in2="BackgroundImageFix" result="shape"/>
<feGaussianBlur stdDeviation="5.5" result="effect1_foregroundBlur_19_1214"/>
</filter>
<filter id="filter3_f_19_1214" x="0.800049" y="95" width="33.2" height="33.2" filterUnits="userSpaceOnUse" color-interpolation-filters="sRGB">
<feFlood flood-opacity="0" result="BackgroundImageFix"/>
<feBlend mode="normal" in="SourceGraphic" in2="BackgroundImageFix" result="shape"/>
<feGaussianBlur stdDeviation="5.5" result="effect1_foregroundBlur_19_1214"/>
</filter>
<filter id="filter4_f_19_1214" x="348.32" y="558.6" width="32.08" height="32.08" filterUnits="userSpaceOnUse" color-interpolation-filters="sRGB">
<feFlood flood-opacity="0" result="BackgroundImageFix"/>
<feBlend mode="normal" in="SourceGraphic" in2="BackgroundImageFix" result="shape"/>
<feGaussianBlur stdDeviation="5.5" result="effect1_foregroundBlur_19_1214"/>
</filter>
<linearGradient id="paint0_linear_19_1214" x1="708" y1="450.5" x2="1201" y2="450.5" gradientUnits="userSpaceOnUse">
<stop stop-color="#DA22FF"/>
<stop offset="1" stop-color="#9733EE"/>
</linearGradient>
<radialGradient id="paint1_radial_19_1214" cx="0" cy="0" r="1" gradientUnits="userSpaceOnUse" gradientTransform="translate(798.884 141.874) scale(472.26)">
<stop stop-color="#009BFF"/>
<stop offset="1"/>
</radialGradient>
<radialGradient id="paint2_radial_19_1214" cx="0" cy="0" r="1" gradientUnits="userSpaceOnUse" gradientTransform="translate(798.884 141.874) scale(395.29)">
<stop stop-color="#009BFF"/>
<stop offset="1"/>
</radialGradient>
<radialGradient id="paint3_radial_19_1214" cx="0" cy="0" r="1" gradientUnits="userSpaceOnUse" gradientTransform="translate(798.884 141.874) scale(402.3)">
<stop stop-color="#0092FF"/>
<stop offset="0.13" stop-color="#008FFB"/>
<stop offset="0.26" stop-color="#0088EF"/>
<stop offset="0.38" stop-color="#007DDA"/>
<stop offset="0.51" stop-color="#006DBE"/>
<stop offset="0.63" stop-color="#00589A"/>
<stop offset="0.76" stop-color="#003F6E"/>
<stop offset="0.88" stop-color="#00213A"/>
<stop offset="1"/>
</radialGradient>
<radialGradient id="paint4_radial_19_1214" cx="0" cy="0" r="1" gradientUnits="userSpaceOnUse" gradientTransform="translate(587.843 -22.5161) scale(548.03 548.03)">
<stop stop-color="#60DBFF"/>
<stop offset="0.09" stop-color="#5FD5FF"/>
<stop offset="0.21" stop-color="#5EC4FF"/>
<stop offset="0.34" stop-color="#5CA8FF"/>
<stop offset="0.49" stop-color="#5A81FF"/>
<stop offset="0.64" stop-color="#5651FF"/>
<stop offset="0.68" stop-color="#5643FF"/>
<stop offset="0.74" stop-color="#553DF8"/>
<stop offset="0.83" stop-color="#542EE4"/>
<stop offset="0.93" stop-color="#5315C5"/>
<stop offset="1" stop-color="#5200AB"/>
</radialGradient>
<linearGradient id="paint5_linear_19_1214" x1="457.963" y1="48.4639" x2="948.733" y2="48.4639" gradientUnits="userSpaceOnUse">
<stop offset="0.01" stop-color="#81E0FF"/>
<stop offset="0.32" stop-color="#82DDFF"/>
<stop offset="0.55" stop-color="#85D3FF"/>
<stop offset="0.75" stop-color="#8BC3FF"/>
<stop offset="0.94" stop-color="#93ADFF"/>
<stop offset="1" stop-color="#97A4FF"/>
</linearGradient>
<linearGradient id="paint6_linear_19_1214" x1="953.733" y1="451.324" x2="953.733" y2="291.124" gradientUnits="userSpaceOnUse">
<stop stop-color="#B8C2FF"/>
<stop offset="1" stop-color="#5B729C"/>
</linearGradient>
<radialGradient id="paint7_radial_19_1214" cx="0" cy="0" r="1" gradientUnits="userSpaceOnUse" gradientTransform="translate(549.813 -90.1661) scale(449.05)">
<stop stop-color="#FFFFD9"/>
<stop offset="1"/>
</radialGradient>
<linearGradient id="paint8_linear_19_1214" x1="461.073" y1="-48.1061" x2="890.133" y2="-48.1061" gradientUnits="userSpaceOnUse">
<stop stop-color="#B8C2FF"/>
<stop offset="1" stop-color="#7D72B3"/>
</linearGradient>
<linearGradient id="paint9_linear_19_1214" x1="530.713" y1="271.264" x2="1140.3" y2="271.264" gradientUnits="userSpaceOnUse">
<stop stop-color="#B8C2FF"/>
<stop offset="1" stop-color="#7D72B3"/>
</linearGradient>
<linearGradient id="paint10_linear_19_1214" x1="494.703" y1="145.174" x2="1103.07" y2="145.174" gradientUnits="userSpaceOnUse">
<stop stop-color="#B8C2FF"/>
<stop offset="1" stop-color="#7D72B3"/>
</linearGradient>
<linearGradient id="paint11_linear_19_1214" x1="457.973" y1="60.1539" x2="1055.97" y2="60.1539" gradientUnits="userSpaceOnUse">
<stop stop-color="#B8C2FF"/>
<stop offset="1" stop-color="#7D72B3"/>
</linearGradient>
<linearGradient id="paint12_linear_19_1214" x1="901.003" y1="10.8639" x2="909.213" y2="10.8639" gradientUnits="userSpaceOnUse">
<stop stop-color="#E8DDFF"/>
<stop offset="1" stop-color="#AA8AD8"/>
</linearGradient>
<linearGradient id="paint13_linear_19_1214" x1="479.363" y1="162.544" x2="481.073" y2="162.544" gradientUnits="userSpaceOnUse">
<stop stop-color="#E8DDFF"/>
<stop offset="1" stop-color="#AA8AD8"/>
</linearGradient>
<linearGradient id="paint14_linear_19_1214" x1="914.273" y1="394.154" x2="1025.33" y2="55.0739" gradientUnits="userSpaceOnUse">
<stop stop-color="#280077"/>
<stop offset="1" stop-color="#812CFF"/>
</linearGradient>
<linearGradient id="paint15_linear_19_1214" x1="946.004" y1="387.364" x2="1051.97" y2="63.9109" gradientUnits="userSpaceOnUse">
<stop stop-color="#7A00B3"/>
<stop offset="1" stop-color="#B136FF"/>
</linearGradient>
<linearGradient id="paint16_linear_19_1214" x1="982.563" y1="294.464" x2="982.563" y2="60.1839" gradientUnits="userSpaceOnUse">
<stop stop-color="#8E00B3"/>
<stop offset="1" stop-color="#E05CFF"/>
</linearGradient>
<linearGradient id="paint17_linear_19_1214" x1="606.923" y1="430.084" x2="606.923" y2="292.534" gradientUnits="userSpaceOnUse">
<stop stop-color="#81A9CE"/>
<stop offset="1" stop-color="#5B729C"/>
</linearGradient>
<linearGradient id="paint18_linear_19_1214" x1="568.273" y1="390.574" x2="614.153" y2="250.504" gradientUnits="userSpaceOnUse">
<stop stop-color="#280077"/>
<stop offset="1" stop-color="#812CFF"/>
</linearGradient>
<linearGradient id="paint19_linear_19_1214" x1="848.803" y1="511.994" x2="848.803" y2="451.324" gradientUnits="userSpaceOnUse">
<stop stop-color="#7A00B3"/>
<stop offset="0.92" stop-color="#7006FC"/>
<stop offset="1" stop-color="#7006F9"/>
</linearGradient>
<linearGradient id="paint20_linear_19_1214" x1="571.023" y1="412.954" x2="571.023" y2="238.554" gradientUnits="userSpaceOnUse">
<stop stop-color="#7A00B3"/>
<stop offset="1" stop-color="#B136FF"/>
</linearGradient>
<linearGradient id="paint21_linear_19_1214" x1="580.163" y1="412.884" x2="580.163" y2="238.554" gradientUnits="userSpaceOnUse">
<stop stop-color="#8E00B3"/>
<stop offset="1" stop-color="#E05CFF"/>
</linearGradient>
<linearGradient id="paint22_linear_19_1214" x1="831.783" y1="182.694" x2="860.973" y2="93.5839" gradientUnits="userSpaceOnUse">
<stop stop-color="#5B008B"/>
<stop offset="1" stop-color="#8E00FF"/>
</linearGradient>
<linearGradient id="paint23_linear_19_1214" x1="841.953" y1="176.254" x2="866.093" y2="102.554" gradientUnits="userSpaceOnUse">
<stop stop-color="#A400CA"/>
<stop offset="1" stop-color="#B136FF"/>
</linearGradient>
<radialGradient id="paint24_radial_19_1214" cx="0" cy="0" r="1" gradientUnits="userSpaceOnUse" gradientTransform="translate(1049.29 299.556) scale(64.58 64.58)">
<stop stop-color="#317AFF"/>
<stop offset="0.1" stop-color="#2967D7"/>
<stop offset="0.29" stop-color="#1C4896"/>
<stop offset="0.47" stop-color="#122E60"/>
<stop offset="0.64" stop-color="#0A1A37"/>
<stop offset="0.78" stop-color="#040B18"/>
<stop offset="0.91" stop-color="#010306"/>
<stop offset="1"/>
</radialGradient>
<radialGradient id="paint25_radial_19_1214" cx="0" cy="0" r="1" gradientUnits="userSpaceOnUse" gradientTransform="translate(962.84 123.983) scale(59.96)">
<stop stop-color="#317AFF"/>
<stop offset="0.1" stop-color="#2967D7"/>
<stop offset="0.29" stop-color="#1C4896"/>
<stop offset="0.47" stop-color="#122E60"/>
<stop offset="0.64" stop-color="#0A1A37"/>
<stop offset="0.78" stop-color="#040B18"/>
<stop offset="0.91" stop-color="#010306"/>
<stop offset="1"/>
</radialGradient>
<radialGradient id="paint26_radial_19_1214" cx="0" cy="0" r="1" gradientUnits="userSpaceOnUse" gradientTransform="translate(547.343 318.454) scale(64.58 64.58)">
<stop stop-color="#317AFF"/>
<stop offset="0.1" stop-color="#2967D7"/>
<stop offset="0.29" stop-color="#1C4896"/>
<stop offset="0.47" stop-color="#122E60"/>
<stop offset="0.64" stop-color="#0A1A37"/>
<stop offset="0.78" stop-color="#040B18"/>
<stop offset="0.91" stop-color="#010306"/>
<stop offset="1"/>
</radialGradient>
<linearGradient id="paint27_linear_19_1214" x1="903.833" y1="414.494" x2="903.833" y2="258.904" gradientUnits="userSpaceOnUse">
<stop stop-color="#B8C2FF"/>
<stop offset="1" stop-color="#7D72B3"/>
</linearGradient>
<linearGradient id="paint28_linear_19_1214" x1="998.893" y1="28.4439" x2="998.893" y2="-177.866" gradientUnits="userSpaceOnUse">
<stop stop-color="#81A9CE"/>
<stop offset="1" stop-color="#5B729C"/>
</linearGradient>
<radialGradient id="paint29_radial_19_1214" cx="0" cy="0" r="1" gradientUnits="userSpaceOnUse" gradientTransform="translate(667.882 -33.4534) rotate(-33.34) scale(143.486 91.9344)">
<stop stop-color="#06FEFF"/>
<stop offset="0.17" stop-color="#04C4C4"/>
<stop offset="0.4" stop-color="#037F7F"/>
<stop offset="0.6" stop-color="#014848"/>
<stop offset="0.78" stop-color="#002121"/>
<stop offset="0.92" stop-color="#000808"/>
<stop offset="1"/>
</radialGradient>
</defs>
</svg>
