<svg width="21" height="20" viewBox="0 0 21 20" fill="none" xmlns="http://www.w3.org/2000/svg">
<g id="Frame" clip-path="url(#clip0_19_422)">
<path id="Vector" d="M6.96004 4.5325L15.7167 9.64083C15.7795 9.67757 15.8315 9.73009 15.8677 9.79317C15.9038 9.85625 15.9229 9.9277 15.9229 10.0004C15.9229 10.0731 15.9038 10.1446 15.8677 10.2077C15.8315 10.2707 15.7795 10.3233 15.7167 10.36L6.96004 15.4683C6.8966 15.5054 6.8245 15.5249 6.75104 15.5251C6.67759 15.5253 6.60539 15.5061 6.54177 15.4693C6.47815 15.4326 6.42536 15.3797 6.38877 15.316C6.35217 15.2524 6.33306 15.1801 6.33338 15.1067V4.8925C6.33336 4.81918 6.35268 4.74716 6.3894 4.6837C6.42611 4.62025 6.47892 4.5676 6.54249 4.53108C6.60606 4.49456 6.67815 4.47546 6.75146 4.47571C6.82477 4.47596 6.89672 4.49555 6.96004 4.5325Z" fill="black"/>
</g>
<defs>
<clipPath id="clip0_19_422">
<rect width="20" height="20" fill="white" transform="translate(0.5)"/>
</clipPath>
</defs>
</svg>
