<svg width="110" height="28" viewBox="0 0 110 28" fill="none" xmlns="http://www.w3.org/2000/svg">
<path fill-rule="evenodd" clip-rule="evenodd" d="M93.96 0.0318536C88.744 0.562465 84.2291 3.93874 82.2853 8.76249C81.74 10.1155 81.4347 11.422 81.3138 12.9192C81.2798 13.3409 81.2676 15.4915 81.2771 19.4111L81.2912 25.2726L81.4022 25.5995C81.7292 26.5631 82.3035 27.2328 83.1681 27.6588C83.9192 28.0288 83.5036 28.01 90.5278 27.9923C97.295 27.9753 96.9078 27.989 98.2513 27.7197C100.818 27.2053 103.374 25.8318 105.281 23.9422C107.478 21.7659 108.866 19.0185 109.305 15.9784C109.398 15.3282 109.398 12.6586 109.305 12.0085C108.659 7.54018 105.89 3.64782 101.866 1.55279C100.469 0.825365 98.9692 0.349865 97.268 0.0949516C96.6818 0.00714687 94.5944 -0.0326922 93.96 0.0318536ZM24.8682 12.453V21.1875L26.0998 21.175L27.3315 21.1626L27.3434 12.4405L27.3552 3.71839H26.1117H24.8682V12.453ZM55.6648 3.8118C55.2266 3.90241 54.8072 4.21388 54.6161 4.59037C54.4652 4.88783 54.4334 5.38934 54.5443 5.72179C54.6492 6.03606 54.9745 6.38901 55.3107 6.55336C55.54 6.66545 55.6352 6.68413 55.9771 6.68413C56.319 6.68413 56.4142 6.66545 56.6435 6.55336C57.0036 6.37733 57.3154 6.02793 57.4142 5.68984C57.5741 5.14232 57.41 4.52134 57.014 4.17525C56.6683 3.87312 56.1036 3.72101 55.6648 3.8118ZM60.7162 6.77754V8.34215H59.8247H58.9331V9.3463V10.3504H59.8012H60.6692L60.6696 14.2153C60.6699 16.5221 60.6892 18.2495 60.7177 18.5004C60.9219 20.3016 61.7376 21.0434 63.7257 21.2355C64.2727 21.2884 65.3788 21.2694 65.6312 21.2029C65.7363 21.1751 65.7368 21.1707 65.7368 20.2287V19.2824L65.0212 19.2595C64.5055 19.2431 64.2362 19.2132 64.057 19.1526C63.7083 19.0347 63.4212 18.7689 63.2879 18.4405L63.1795 18.1735L63.1663 14.262L63.153 10.3504H64.4214H65.6898V9.3463V8.34215H64.423H63.1561V6.77754V5.21294H61.9361H60.7162V6.77754ZM94.312 5.74855C93.0065 5.9647 91.9699 6.48854 90.9913 7.42678C89.9329 8.44149 89.3401 9.52443 89.1269 10.8328C89.0354 11.3945 89.0366 12.4651 89.1294 12.9946C89.5056 15.1424 91.2221 17.0397 93.2741 17.576C93.7903 17.7109 94.8134 17.7697 95.3559 17.6956C95.5302 17.6718 95.6727 17.6613 95.6727 17.6723C95.6727 17.6833 94.6697 19.0463 93.4439 20.7011C92.2181 22.356 91.2151 23.7203 91.2151 23.7329C91.2151 23.7455 91.6719 24.0936 92.23 24.5065C93.0582 25.1189 93.2555 25.2456 93.3021 25.1948C93.378 25.112 99.816 16.4383 100.091 16.0484C101.03 14.7168 101.588 13.2801 101.662 12.0044C101.754 10.4159 101.198 8.97878 100.013 7.74218C99.0529 6.74055 98.0002 6.12522 96.7519 5.83598C96.1218 5.68998 94.9247 5.6471 94.312 5.74855ZM16.2309 8.22782C14.1122 8.60972 12.6449 10.0259 12.1298 12.1858C11.964 12.8808 11.9178 13.4313 11.9182 14.7038C11.9187 16.2493 12.0057 16.9579 12.3038 17.8465C12.8919 19.5998 14.12 20.7444 15.914 21.2112C16.5721 21.3825 17.8492 21.4266 18.5895 21.3037C20.5381 20.9801 21.8966 19.8826 22.4725 18.1666C22.7039 17.4772 22.8135 17.5427 21.4312 17.5445L20.2464 17.5462L20.0835 17.9065C19.9591 18.1817 19.8427 18.3452 19.5908 18.5981C19.0548 19.1365 18.4233 19.3738 17.5249 19.3743C16.6467 19.3749 16.0515 19.1376 15.455 18.5491C15.1389 18.2373 15.0376 18.0981 14.8584 17.7298C14.5798 17.1573 14.4537 16.6381 14.4188 15.92L14.391 15.3478H18.6031H22.8153L22.7914 14.2386C22.7756 13.5066 22.7412 12.9864 22.6901 12.709C22.4519 11.4146 21.988 10.4394 21.2422 9.66566C20.4972 8.89266 19.6229 8.43528 18.4934 8.22749C18.0031 8.1373 16.732 8.13749 16.2309 8.22782ZM33.9203 8.22782C31.5684 8.65171 30.0127 10.284 29.5536 12.8092C29.4666 13.2878 29.4526 13.5435 29.4504 14.694C29.4476 16.1082 29.4811 16.4832 29.6813 17.2807C30.2367 19.4936 31.7896 20.9483 33.9725 21.3007C34.5553 21.3947 35.7077 21.3948 36.2522 21.3008C38.6989 20.8783 40.2538 19.1969 40.6564 16.5383C40.7559 15.8813 40.7551 13.606 40.6552 12.9361C40.2705 10.3574 38.6663 8.64162 36.2522 8.22693C35.7305 8.1373 34.4197 8.13777 33.9203 8.22782ZM46.6139 8.22357C44.428 8.61883 42.9034 10.1593 42.4161 12.465C42.2122 13.4299 42.1784 15.4521 42.3473 16.5844C42.5454 17.9126 43.0569 19.0048 43.8807 19.8589C44.5351 20.5374 45.2622 20.9541 46.2609 21.223C46.6782 21.3354 46.7834 21.3442 47.7424 21.3467C48.843 21.3496 49.1765 21.3065 49.8677 21.0723C51.3466 20.5712 52.3543 19.4857 52.7423 17.9757C52.7924 17.7809 52.8334 17.5719 52.8334 17.5113V17.4013L51.6582 17.4137L50.483 17.4262L50.3747 17.7348C50.0136 18.7638 49.057 19.3168 47.7424 19.2565C46.9168 19.2186 46.3326 18.9638 45.8059 18.4119C45.2933 17.8747 44.971 17.1687 44.8267 16.2669C44.7289 15.6557 44.7604 13.3413 44.8729 12.8725C45.2129 11.4558 45.9361 10.6234 47.0855 10.3256C47.4768 10.2242 48.1897 10.2239 48.5412 10.3249C49.3722 10.5637 50.0885 11.2578 50.3242 12.0527L50.3803 12.242L51.5834 12.2545C52.7072 12.2661 52.7864 12.2615 52.7858 12.1844C52.7855 12.139 52.7458 11.9127 52.6976 11.6815C52.3255 9.89592 50.837 8.56699 48.8272 8.22604C48.3187 8.13978 47.085 8.13838 46.6139 8.22357ZM94.8046 8.23225C93.7976 8.39352 92.9104 8.97453 92.3208 9.85865C91.6629 10.8453 91.6053 12.3312 92.1842 13.384C93.0116 14.8887 94.6305 15.5845 96.3133 15.1586C97.5182 14.8538 98.5731 13.7691 98.8442 12.5564C98.9638 12.0212 98.9197 11.0979 98.751 10.6073C98.3804 9.52947 97.4539 8.64764 96.3696 8.34093C96.0279 8.2443 95.122 8.18139 94.8046 8.23225ZM2.52053e-08 8.37718C0.00014079 8.39642 0.990278 11.281 2.20034 14.7874L4.40044 21.1626H5.77073H7.14103L9.38974 14.8574C10.6265 11.3896 11.6509 8.50468 11.6661 8.44644L11.6938 8.34061L10.4334 8.35303L9.17292 8.3655L7.48909 13.4009C6.56295 16.1704 5.78791 18.419 5.76679 18.398C5.74563 18.377 5.05077 16.1741 4.22265 13.5027C3.39453 10.8314 2.69517 8.5774 2.66857 8.49394L2.6201 8.34215H1.30991C0.589334 8.34215 -0.000140739 8.35793 2.52053e-08 8.37718ZM54.7218 14.7524L54.7337 21.1626L55.9654 21.175L57.1971 21.1875V14.7648V8.34215H55.9534H54.7099L54.7218 14.7524ZM66.6283 8.39329C66.6283 8.42215 67.6667 11.3349 68.936 14.866L71.2436 21.2861L71.1371 21.6914C70.833 22.8477 70.4443 23.3981 69.7488 23.6572C69.3613 23.8015 68.7119 23.8659 68.1415 23.8166L67.6605 23.775V24.7423V25.7095L67.9303 25.7479C68.4347 25.8196 69.8539 25.7932 70.2553 25.7047C71.9187 25.3379 72.9009 24.2785 73.8016 21.8799C74.0265 21.2809 78.487 8.6008 78.5353 8.42313C78.5563 8.34551 78.4796 8.3414 77.2324 8.35308L75.9071 8.3655L74.3038 13.433C72.5749 18.8976 72.6429 18.6881 72.6088 18.6542C72.5961 18.6415 71.8606 16.3214 70.9744 13.4983L69.3631 8.3655L67.9957 8.35312C67.0068 8.34416 66.6283 8.35527 66.6283 8.39329ZM16.6999 10.185C15.7095 10.4359 14.9505 11.1589 14.6201 12.166C14.4811 12.5897 14.4047 12.9927 14.4047 13.3014V13.5264H17.3882H20.3717L20.3384 13.1644C20.2051 11.7132 19.462 10.6733 18.2533 10.2466C17.9093 10.1252 17.0676 10.0918 16.6999 10.185ZM34.5456 10.2122C33.1417 10.4632 32.2497 11.5518 32.0034 13.3147C31.9386 13.7785 31.9386 15.7028 32.0034 16.1667C32.0841 16.7438 32.222 17.2087 32.4534 17.6831C32.633 18.0512 32.7347 18.1907 33.0506 18.5018C33.6451 19.0873 34.2261 19.316 35.1205 19.3162C36.3154 19.3166 37.201 18.7729 37.7232 17.7186C38.1356 16.8857 38.2408 16.2775 38.2408 14.7246C38.2408 13.5825 38.1677 12.9298 37.9759 12.3587C37.6087 11.266 36.8971 10.5316 35.9651 10.2838C35.6158 10.1909 34.874 10.1535 34.5456 10.2122Z" fill="white"/>
</svg>
