<svg width="121" height="28" viewBox="0 0 121 28" fill="none" xmlns="http://www.w3.org/2000/svg">
<path fill-rule="evenodd" clip-rule="evenodd" d="M0.375 7.18332C0.375 12.359 0.389417 14.381 0.42663 14.4182C0.455043 14.4465 3.56133 16.1689 7.3295 18.2457L14.1807 22.0217L12.6726 23.5293L11.1645 25.037L12.6818 26.5185C13.5163 27.3333 14.2132 28 14.2305 28C14.2477 28 14.9446 27.3333 15.7791 26.5185L17.2964 25.037L15.7884 23.5293L14.2803 22.0217L21.1314 18.2457C24.8996 16.1689 28.0059 14.4465 28.0343 14.4182C28.0715 14.381 28.0859 12.359 28.0859 7.18332C28.0859 3.23249 28.0752 0 28.0621 0C28.049 0 24.9479 1.99064 21.1706 4.42367C17.3934 6.85671 14.2703 8.84739 14.2305 8.84739C14.1906 8.84739 11.0675 6.85671 7.29028 4.42367C3.51303 1.99064 0.411885 0 0.398779 0C0.385719 0 0.375 3.23249 0.375 7.18332ZM50.1563 6.33683C49.2903 6.44528 48.374 6.74588 47.7223 7.13531C46.0508 8.13406 44.9959 9.89677 44.6273 12.3069C44.5069 13.0942 44.5073 14.9659 44.6281 15.7631C45.2112 19.6119 47.4846 21.7193 51.0517 21.7178C52.1475 21.7174 53.075 21.5281 53.912 21.1342C55.6716 20.306 56.8623 18.641 57.3171 16.3731C57.4806 15.5576 57.5288 15.0181 57.5288 14.0015C57.5288 12.1744 57.2656 10.8773 56.6354 9.598C55.5677 7.431 53.6016 6.28601 50.9929 6.31226C50.61 6.31609 50.2336 6.32716 50.1563 6.33683ZM33.1881 14.0117V21.3912H34.7562H36.3243V18.3786V15.3661H38.5243H40.7243V14.2219V13.0776H38.5243H36.3243V10.9992V8.92077H38.852C40.3706 8.92077 41.3797 8.90349 41.3797 8.87752C41.3797 8.85375 41.4534 8.34479 41.5435 7.7465C41.6336 7.14824 41.7073 6.65274 41.7073 6.64546C41.7073 6.63817 39.7905 6.63219 37.4477 6.63219H33.1881V14.0117ZM60.4309 6.6704C60.4309 6.69142 61.2845 8.24685 62.3278 10.1269L64.2248 13.5452L62.158 17.4331C61.0212 19.5715 60.082 21.3369 60.071 21.3561C60.0599 21.3754 60.8052 21.3907 61.7271 21.3902L63.4033 21.3893L64.7334 18.4945C65.465 16.9023 66.0746 15.6107 66.0882 15.6242C66.1017 15.6377 66.7149 16.9356 67.4507 18.5083L68.7886 21.3678L70.5129 21.38C71.8866 21.3899 72.2324 21.3803 72.2134 21.3333C72.2003 21.3009 71.2404 19.5107 70.0803 17.3551C68.9203 15.1995 67.9785 13.4236 67.9875 13.4085C68.2909 12.9006 71.8055 6.6994 71.8055 6.67194C71.8055 6.65008 71.0676 6.63219 70.1657 6.63219H68.5259L67.6505 8.41868C67.169 9.40123 66.6273 10.5054 66.4467 10.8723L66.1182 11.5395L64.9714 9.08652L63.8246 6.63359L62.1277 6.63289C61.1945 6.63252 60.4309 6.64938 60.4309 6.6704ZM78.8736 14.0817V21.3912H79.5053H80.1369L80.1489 17.8299L80.1609 14.2686L83.6131 14.2566L87.0652 14.2446V17.8192V21.3938L87.7088 21.3808L88.3525 21.3678V14.0817V6.79566L87.7088 6.78268L87.0652 6.76969V9.97062V13.1716L83.6131 13.1596L80.1609 13.1476L80.1489 9.95997L80.1368 6.77231H79.5052H78.8736V14.0817ZM94.9759 12.1373C94.9759 16.7139 94.9863 17.5633 95.0468 17.9172C95.2522 19.1199 95.7918 20.0811 96.6142 20.7094C97.3604 21.2795 98.202 21.5512 99.3994 21.6085C100.949 21.6827 102.2 21.299 103.061 20.4858C103.691 19.8903 104.078 19.2317 104.326 18.3319L104.454 17.8649L104.467 12.3173L104.481 6.76965L103.836 6.78268L103.191 6.79566L103.167 12.2602L103.143 17.7248L103.039 18.0984C102.981 18.3039 102.839 18.6655 102.722 18.9019C102.329 19.6984 101.691 20.1827 100.757 20.3938C100.204 20.5187 99.165 20.5079 98.6095 20.3713C97.4007 20.0742 96.6726 19.292 96.3648 17.9596C96.2697 17.5478 96.2671 17.4124 96.2519 12.1551L96.2364 6.77231H95.6062H94.9759V12.1373ZM111.1 6.83069C111.088 6.86283 111.083 10.1468 111.09 14.1284L111.102 21.3678L113.278 21.3816C114.594 21.3899 115.667 21.3753 115.99 21.3447C118.253 21.1312 119.644 20.201 120.114 18.5876C120.244 18.1425 120.293 17.0311 120.207 16.4954C120.083 15.7277 119.783 15.1298 119.294 14.6736C118.778 14.1919 117.997 13.8059 117.339 13.7074C117.073 13.6676 117.086 13.6219 117.385 13.5469C117.814 13.439 118.334 13.1267 118.709 12.752C119.107 12.3531 119.308 12.0115 119.465 11.4646C119.605 10.9761 119.616 9.9538 119.487 9.48123C119.328 8.90335 119.103 8.5141 118.69 8.10342C117.945 7.36272 116.86 6.95843 115.244 6.81944C114.419 6.74844 111.128 6.75736 111.1 6.83069ZM112.389 10.5321V13.171H114.137C115.732 13.171 115.917 13.1628 116.255 13.0773C117.753 12.6983 118.52 11.4528 118.22 9.88739C118.005 8.76888 117.197 8.15867 115.644 7.94313C115.446 7.91571 114.633 7.89324 113.837 7.89324H112.389V10.5321ZM50.601 8.68383C49.1586 8.88555 48.3252 9.8928 47.9714 11.8623C47.8334 12.6305 47.7969 14.6921 47.9049 15.623C48.1208 17.4843 48.7051 18.587 49.7351 19.0767C50.1856 19.291 50.4943 19.3545 51.0691 19.3514C52.6514 19.343 53.6106 18.4389 54.0096 16.5802C54.1778 15.7963 54.2239 15.2438 54.2239 14.0117C54.2239 12.7796 54.1778 12.2271 54.0096 11.4431C53.6255 9.65395 52.7319 8.76155 51.2329 8.67057C51.027 8.65805 50.7426 8.66403 50.601 8.68383ZM112.389 17.2775V20.3169L113.805 20.3165C115.957 20.3159 116.704 20.221 117.472 19.8505C118.141 19.5274 118.541 19.0774 118.786 18.3706C118.901 18.0419 118.914 17.9391 118.915 17.3511C118.916 16.8729 118.895 16.6157 118.835 16.3937C118.56 15.3698 117.852 14.7023 116.695 14.3763C116.369 14.2843 116.205 14.2759 114.367 14.2577L112.389 14.2381V17.2775Z" fill="white"/>
</svg>
