<svg width="121" height="28" viewBox="0 0 121 28" fill="none" xmlns="http://www.w3.org/2000/svg">
<path fill-rule="evenodd" clip-rule="evenodd" d="M13.0564 0.0177689C12.9663 0.0279055 12.6628 0.0583619 12.3818 0.085455C8.56087 0.453874 5.17296 2.21404 3.08023 4.91816C1.54779 6.8983 0.679949 9.14819 0.314348 12.0885C0.218196 12.8617 0.232801 15.3612 0.338128 16.163C0.775819 19.4951 2.06848 22.1863 4.23728 24.281C6.29597 26.2692 8.94511 27.4744 12.2138 27.9097C13.1188 28.0303 15.5715 28.03 16.4737 27.9094C19.7996 27.4644 22.4155 26.2487 24.4801 24.1885C26.5322 22.1408 27.7606 19.5198 28.2028 16.2459C28.3038 15.4974 28.3434 13.4947 28.2744 12.6246C27.9306 8.29294 26.2348 4.93054 23.2595 2.68107C21.4445 1.3088 19.2475 0.46289 16.5673 0.104373C16.0141 0.0303345 13.4962 -0.0317461 13.0564 0.0177689ZM13.1968 2.56415C9.39707 2.83461 6.42808 4.42516 4.6173 7.16035C2.87917 9.78586 2.29805 13.9355 3.17821 17.437C3.67095 19.3973 4.55939 20.9975 5.88988 22.3211C6.40636 22.8349 7.21325 23.4826 7.62356 23.7127L7.81347 23.8192L7.81488 18.4794L7.81624 13.1395L9.0671 12.4515L10.3179 11.7635L10.3298 18.3468L10.3416 24.9301L10.517 24.9788C11.1818 25.1635 12.4926 25.4015 12.8453 25.4015H13.0094L13.0212 15.5056L13.033 5.60983L14.2735 6.29879L15.514 6.9878L15.5258 16.2185L15.5377 25.4493L15.7131 25.4266C15.8096 25.4141 16.0781 25.3801 16.3098 25.351C16.8123 25.2879 17.4841 25.1556 17.9834 25.0216L18.3462 24.9241V17.9224C18.3462 14.0715 18.3579 10.9207 18.3724 10.9207C18.3867 10.9207 18.9555 11.2295 19.6363 11.607L20.874 12.2933V18.0299C20.874 21.1851 20.8913 23.7666 20.9125 23.7666C20.9336 23.7666 21.1074 23.6593 21.2987 23.5281C22.7987 22.4996 23.9436 21.1209 24.7123 19.4172C26.3598 15.7663 26.0646 10.4699 24.0344 7.25378C23.0326 5.66682 21.7749 4.54867 20.069 3.72822C18.1122 2.78715 15.7309 2.38379 13.1968 2.56415ZM90.829 3.32584C90.315 3.45028 89.8641 3.82701 89.6218 4.33426C89.4882 4.61411 89.4768 4.67633 89.4768 5.12935C89.4768 5.58914 89.4866 5.64062 89.6286 5.92836C89.8113 6.29874 90.1461 6.62681 90.5199 6.8016C90.757 6.91245 90.8438 6.92679 91.2791 6.92679C91.7345 6.92679 91.7938 6.91586 92.0854 6.77797C93.2389 6.23274 93.4975 4.72174 92.5921 3.81818C92.1226 3.34975 91.4759 3.16916 90.829 3.32584ZM62.2089 12.3221V21.1507H63.6367H65.0644V12.3221V3.49344H63.6367H62.2089V12.3221ZM76.9397 3.5239C76.9222 3.54141 76.9079 5.13085 76.9079 7.056V10.5562L76.6949 10.2736C76.1135 9.50176 75.0776 9.04529 73.744 8.9733C71.2013 8.83606 68.9848 10.3999 68.1371 12.9293C67.882 13.6903 67.8087 14.1882 67.807 15.1715C67.8048 16.4523 67.9722 17.274 68.4312 18.2355C69.2586 19.9689 70.663 21.0434 72.5246 21.367C73.1706 21.4793 74.2197 21.4349 74.7684 21.2721C75.6397 21.0134 76.4471 20.4674 76.8374 19.8729C76.9573 19.6904 76.9832 19.7653 77.0201 20.4006C77.0371 20.6946 77.0633 20.9837 77.0781 21.0429L77.1053 21.1507H78.4622H79.8192L79.7869 20.9054C79.7691 20.7706 79.7407 16.8029 79.7239 12.0885L79.6932 3.5168L78.3324 3.50442C77.584 3.49764 76.9573 3.50638 76.9397 3.5239ZM83.3991 3.5246C83.3819 3.54169 83.3679 7.51457 83.3679 12.3532V21.1507H84.7957H86.2234V12.3221V3.49344H84.8269C84.0587 3.49344 83.4162 3.50745 83.3991 3.5246ZM52.476 8.95957C51.0449 9.15945 49.8392 9.75662 48.8994 10.731C48.0873 11.5729 47.561 12.5976 47.2905 13.8636C47.1704 14.4259 47.171 15.9518 47.2916 16.5478C47.5542 17.8457 48.091 18.8766 48.9611 19.7541C49.8252 20.6255 50.8456 21.1608 52.1268 21.4146C52.753 21.5387 54.0222 21.527 54.6597 21.3913C57.2149 20.8474 59.0176 18.9275 59.4253 16.316C59.5412 15.5738 59.5004 14.3138 59.3384 13.63C59.0648 12.4757 58.5639 11.5452 57.7787 10.7324C56.9296 9.85345 55.8898 9.29538 54.602 9.0273C54.1654 8.93645 52.9246 8.89693 52.476 8.95957ZM114.429 8.96415C112.513 9.24246 110.869 10.4922 110.009 12.3234C109.182 14.0849 109.218 16.5124 110.099 18.2677C110.776 19.6184 111.951 20.6615 113.342 21.1463C115.969 22.062 118.815 21.2454 120.19 19.1817C120.406 18.8577 120.788 18.091 120.841 17.8742C120.87 17.7569 120.857 17.746 120.575 17.655C119.714 17.3766 118.49 16.9933 118.462 16.9933C118.444 16.9933 118.43 17.0224 118.43 17.0579C118.43 17.1999 118.047 17.873 117.825 18.121C117.513 18.4689 117.142 18.7086 116.653 18.8777C116.321 18.9924 116.158 19.0195 115.692 19.0368C115.003 19.0623 114.584 18.9838 114.053 18.7295C113.06 18.2542 112.443 17.3788 112.278 16.2108L112.25 16.0123H116.578C119.989 16.0123 120.914 15.9999 120.943 15.9539C120.964 15.9218 120.989 15.5809 120.997 15.1964C121.069 12.0964 119.616 9.86289 117.062 9.14899C116.321 8.94205 115.148 8.85965 114.429 8.96415ZM101.671 9.02838C100.729 9.2369 99.8691 9.77236 99.3608 10.4677L99.1201 10.7971L99.1072 10.0414L99.0943 9.28576H97.7146H96.3348V15.2182V21.1507H97.761H99.1871L99.2015 17.402C99.2146 13.9972 99.2234 13.6277 99.2977 13.3731C99.6465 12.1789 100.485 11.5266 101.669 11.5286C102.68 11.5304 103.422 11.9464 103.782 12.7128C104.057 13.2996 104.057 13.3008 104.058 17.402L104.059 21.1507H105.488H106.918L106.901 16.9115C106.886 13.1191 106.876 12.6379 106.805 12.3454C106.375 10.5788 105.494 9.57168 103.979 9.11591C103.617 9.00726 103.47 8.99026 102.771 8.97662C102.2 8.96545 101.89 8.98003 101.671 9.02838ZM37.6561 9.10531C35.1346 9.42319 33.2628 11.4104 32.9483 14.1034C32.8421 15.0134 32.9695 16.1908 33.2624 17.0042C33.8301 18.5811 34.9813 19.7535 36.4904 20.2917C36.7365 20.3794 37.1311 20.4855 37.3672 20.5274C37.8728 20.6171 38.8344 20.6274 39.2711 20.5478C40.3457 20.3519 41.18 19.8496 41.7653 19.0463C41.846 18.9354 41.848 18.9621 41.828 19.8894C41.8061 20.9121 41.7685 21.2 41.5829 21.7669C41.3836 22.3762 40.9577 22.9172 40.4407 23.2179C39.93 23.515 38.9337 23.7135 38.2565 23.6531C37.286 23.5666 36.5148 23.1427 36.0241 22.4261C35.8069 22.109 35.528 21.4233 35.5267 21.2036C35.5262 21.1117 35.5084 21.0979 35.4208 21.1218C35.3629 21.1377 34.7731 21.2921 34.1101 21.465C32.7215 21.8271 32.8301 21.7365 33.0016 22.39C33.4858 24.2345 35.1516 25.6428 37.322 26.0427C37.923 26.1534 39.3118 26.1496 39.9498 26.0355C42.4778 25.5835 43.9646 24.1348 44.5268 21.5758C44.6235 21.1353 44.6256 21.0215 44.6416 15.2065L44.6578 9.28576H43.2752H41.8925V9.99158V10.6974L41.6833 10.4138C41.411 10.0446 41.0338 9.74971 40.5116 9.49751C39.7108 9.11082 38.7066 8.97288 37.6561 9.10531ZM89.8747 15.2182V21.1507H91.2791H92.6835V15.2182V9.28576H91.2791H89.8747V15.2182ZM114.568 11.3681C113.437 11.6189 112.535 12.5701 112.367 13.6903L112.334 13.9103H115.244H118.155L118.125 13.6884C117.968 12.5269 117.25 11.6946 116.16 11.41C115.741 11.3008 114.964 11.2804 114.568 11.3681ZM52.7295 11.548C52.0328 11.6856 51.551 11.9371 51.0622 12.4185C50.7584 12.7176 50.6672 12.8468 50.4683 13.2593C50.15 13.9195 50.0795 14.2196 50.052 15.0314C50.033 15.5883 50.0454 15.788 50.1214 16.1547C50.3637 17.3245 50.955 18.1506 51.8741 18.6033C52.8403 19.0792 53.8384 19.078 54.8095 18.5996C55.5793 18.2204 56.1162 17.5756 56.4025 16.6863C56.8609 15.2627 56.6163 13.6161 55.7979 12.616C55.5597 12.3249 55.1442 11.9974 54.7823 11.8154C54.246 11.5457 53.3393 11.4277 52.7295 11.548ZM73.4204 11.5115C72.2162 11.7045 71.288 12.477 70.8908 13.6167C70.5729 14.5291 70.5575 15.7682 70.8528 16.6896C71.1698 17.6788 71.8733 18.45 72.73 18.7472C73.8472 19.135 74.9922 18.9154 75.8036 18.158C76.8592 17.1727 77.2409 15.2902 76.717 13.6534C76.3791 12.5976 75.6424 11.8605 74.6609 11.5963C74.3897 11.5233 73.6585 11.4733 73.4204 11.5115ZM38.0649 11.6182C37.5123 11.7537 37.1428 11.9657 36.7198 12.3902C36.1608 12.9511 35.8916 13.5626 35.8088 14.4599C35.6409 16.2795 36.5522 17.7397 38.0757 18.0923C38.4903 18.1883 39.2094 18.1882 39.6251 18.0922C40.577 17.8723 41.3094 17.2094 41.6591 16.2509C41.8461 15.7386 41.9099 15.267 41.8794 14.6226C41.8328 13.6376 41.5595 12.9701 40.9544 12.3631C40.5591 11.9665 40.1316 11.7262 39.5981 11.6007C39.1938 11.5057 38.4914 11.5137 38.0649 11.6182Z" fill="white"/>
</svg>
