<svg width="113" height="28" viewBox="0 0 113 28" fill="none" xmlns="http://www.w3.org/2000/svg">
<path fill-rule="evenodd" clip-rule="evenodd" d="M9.45413 0.0111559C8.91302 0.0699526 8.2478 0.195304 7.74535 0.333229C4.34939 1.2651 1.63477 3.98316 0.704082 7.38341C0.364025 8.62566 0.375041 8.40417 0.375041 14.0019C0.375041 19.5996 0.364025 19.3781 0.704082 20.6203C1.63477 24.0206 4.34939 26.7386 7.74535 27.6705C8.98603 28.011 8.76482 28 14.3554 28C19.9461 28 19.7248 28.011 20.9655 27.6705C24.3615 26.7386 27.0761 24.0206 28.0068 20.6203C28.3468 19.3781 28.3358 19.5996 28.3358 14.0019C28.3358 9.34758 28.3295 8.94007 28.2503 8.46909C27.9715 6.81114 27.3275 5.31206 26.3106 3.95371C25.9833 3.51662 25.1812 2.68056 24.7185 2.29432C23.403 1.1962 21.8096 0.454234 20.0269 0.109727C19.5254 0.0127917 19.3983 0.0102679 14.5655 0.00194845C11.8441 -0.00277211 9.54399 0.0013876 9.45413 0.0111559ZM83.7439 3.68866C83.1927 3.87211 82.7772 4.23353 82.5393 4.73644C82.4042 5.0221 82.3902 5.093 82.3902 5.49649C82.3902 5.90368 82.4031 5.96761 82.5412 6.2486C82.7246 6.62167 83.0855 6.99427 83.4237 7.15995C83.9611 7.42323 84.7464 7.41692 85.3077 7.1449C85.6281 6.98964 86.0467 6.57451 86.1933 6.26669C86.3448 5.94873 86.3821 5.2421 86.2659 4.89189C86.1099 4.42137 85.6427 3.95296 85.121 3.74367C84.8463 3.63351 84.01 3.60009 83.7439 3.68866ZM9.50081 10.6123V15.7198L8.78895 15.7437C7.98042 15.7708 7.66454 15.8443 7.04782 16.1486C6.51316 16.4124 6.09771 16.8063 5.87244 17.2629C5.70561 17.601 5.69651 17.6427 5.69772 18.0658C5.69884 18.4555 5.71583 18.549 5.83188 18.8029C6.1534 19.5066 6.83216 19.8753 8.01319 19.988C9.19142 20.1005 9.99617 19.8181 10.8133 19.0054C11.1919 18.6289 11.2919 18.4965 11.451 18.1616C11.5547 17.9431 11.6625 17.6528 11.6905 17.5166C11.7243 17.3522 11.7414 16.2126 11.7414 14.1287V10.9885L12.6842 11.9694C13.2028 12.5089 13.9271 13.2552 14.2939 13.628L14.9608 14.3057L16.642 12.6233L18.3232 10.941V16.8414V22.7419H19.4435H20.5638V14.1305V5.51916L17.7635 8.32271L14.9632 11.1263L14.8535 11.01C14.5811 10.7213 11.1668 7.20384 10.3785 6.39985L9.50081 5.50477V10.6123ZM38.9771 9.44241C37.8176 9.62287 36.873 10.2741 36.22 11.3434L36.0379 11.6416L36.0253 10.6718L36.0126 9.70195H34.5432H33.0738V15.9181V22.1343H34.6357H36.1976L36.2125 18.3368L36.2274 14.5394L36.3342 14.1896C36.6452 13.1714 37.3227 12.4937 38.2551 12.2682C38.6212 12.1796 39.4319 12.1885 39.7489 12.2845C40.4611 12.5003 40.8894 13.0702 41.0545 14.0221C41.0849 14.1976 41.1026 15.7394 41.1026 18.2175V22.1356L42.6546 22.1232L44.2067 22.1109L44.231 18.3485C44.2549 14.6443 44.2569 14.5804 44.3585 14.2196C44.7038 12.9947 45.4745 12.3046 46.6107 12.2031C47.2971 12.1419 47.9511 12.3261 48.3532 12.694C48.6472 12.9631 48.8612 13.3428 49.0029 13.847C49.1044 14.208 49.1057 14.2571 49.1204 18.1739L49.1353 22.1356L50.6854 22.1232L52.2355 22.1109L52.2352 17.9512C52.2348 13.8094 52.2343 13.789 52.1269 13.1915C51.851 11.6581 51.2772 10.6663 50.2999 10.0338C49.6789 9.63189 48.9841 9.43194 48.0578 9.38857C46.2426 9.3036 44.8776 9.93424 43.9566 11.2833L43.7226 11.6262L43.6196 11.4236C43.2164 10.6296 42.5838 10.0339 41.8129 9.72214C41.0211 9.40189 39.9292 9.29421 38.9771 9.44241ZM94.675 9.42096C91.3683 9.83866 89.1095 12.1276 88.8594 15.3141C88.7015 17.3252 89.2902 19.0674 90.5864 20.425C91.4724 21.3529 92.6344 21.978 94.0367 22.2809C94.4483 22.3698 94.6726 22.3871 95.437 22.3891C96.2241 22.391 96.4127 22.3767 96.8301 22.2831C97.8985 22.0435 98.9468 21.575 99.6371 21.0285C99.8464 20.8627 100.011 20.7082 100.003 20.6852C99.9949 20.6622 99.5332 20.1513 98.977 19.5499L97.9658 18.4565L97.6364 18.7735C95.992 20.3559 93.08 19.5954 92.2159 17.358C92.0155 16.839 91.9192 16.2267 91.9527 15.6844C91.9898 15.0864 92.0866 14.7252 92.3659 14.144C92.573 13.7131 92.6514 13.6046 93.027 13.23C93.3848 12.8731 93.5243 12.77 93.8966 12.5867C94.3769 12.3503 94.75 12.2474 95.297 12.2006C96.0885 12.1328 96.905 12.4831 97.6553 13.2122L97.8895 13.4399L98.9783 12.3491L100.067 11.2582L99.7184 10.9421C98.8986 10.1987 98.0235 9.76491 96.8273 9.50916C96.3334 9.40353 95.1854 9.35651 94.675 9.42096ZM106.127 9.42311C104.43 9.6296 103.055 10.2076 102.081 11.1236L101.809 11.3793L102.629 12.2034L103.45 13.0275L103.703 12.8093C104.219 12.3642 105 11.9918 105.775 11.8206C106.248 11.7161 107.176 11.7172 107.644 11.8228C108.92 12.111 109.574 12.9057 109.58 14.1771L109.581 14.3758L108.542 14.3762C104.671 14.3777 102.476 15.1176 101.51 16.7468C101.143 17.365 101.014 17.9597 101.05 18.8704C101.078 19.587 101.211 20.035 101.55 20.5514C102.171 21.4989 103.23 22.1262 104.58 22.3476C105.27 22.4607 106.306 22.4221 106.926 22.2602C107.959 21.99 108.826 21.4107 109.351 20.6402C109.439 20.511 109.527 20.4051 109.546 20.4051C109.565 20.405 109.581 20.7944 109.581 21.2704V22.1357L110.97 22.1233L112.358 22.1109L112.372 18.5355C112.387 14.5643 112.353 13.5543 112.176 12.7867C111.919 11.6702 111.4 10.8476 110.615 10.3146C110.024 9.91321 109.309 9.63138 108.515 9.48756C108.034 9.40044 106.625 9.3624 106.127 9.42311ZM55.5845 14.0135C55.603 18.7968 55.598 18.7122 55.9207 19.6694C56.3821 21.0385 57.4353 21.9858 58.8577 22.3113C59.3624 22.4268 60.8437 22.4218 61.3146 22.3031C62.3443 22.0435 63.1397 21.4186 63.7661 20.377L63.9287 20.1067V21.1205V22.1343H65.399H66.8694V15.9181V9.70195H65.3316H63.7938L63.7768 13.406C63.7601 17.0308 63.7576 17.1182 63.6583 17.4951C63.3038 18.841 62.3423 19.6064 61.0018 19.6097C60.3375 19.6112 59.8684 19.4358 59.4955 19.0465C59.2144 18.7529 59.0615 18.468 58.9168 17.9678C58.7263 17.3097 58.7009 16.7388 58.7007 13.1022L58.7006 9.70195H57.1342H55.5678L55.5845 14.0135ZM69.8102 10.9405V12.1791H72.9377C74.6578 12.1791 76.0652 12.1954 76.0652 12.2155C76.0652 12.2355 74.5852 13.8182 72.7763 15.7325L69.4873 19.2132L69.4854 20.6739L69.4835 22.1347L74.8166 22.1228L80.1496 22.1109L80.1621 20.861L80.1745 19.6111L76.6891 19.599L73.2038 19.5871L76.5249 16.0583L79.8459 12.5296L79.8461 11.1158L79.8462 9.70195H74.8282H69.8102V10.9405ZM82.7985 15.9064L82.8104 22.1109L84.3624 22.1232L85.9145 22.1356V15.9187V9.70195H84.3506H82.7867L82.7985 15.9064ZM107.155 16.6246C106.031 16.7244 105.066 17.0434 104.55 17.4854C104.159 17.8207 104.027 18.5151 104.256 19.0362C104.562 19.7337 105.417 20.1164 106.547 20.0613C107.508 20.0144 108.163 19.7696 108.65 19.2765C109.134 18.7851 109.338 18.2101 109.38 17.2151L109.408 16.5725L108.502 16.5789C108.004 16.5824 107.398 16.603 107.155 16.6246Z" fill="white"/>
</svg>
