<svg width="71" height="28" viewBox="0 0 71 28" fill="none" xmlns="http://www.w3.org/2000/svg">
<path fill-rule="evenodd" clip-rule="evenodd" d="M17.2718 0.0749933C15.3437 0.42308 13.7078 1.82835 13.0944 3.66352C12.8139 4.50249 12.8094 4.57707 12.8094 8.33611V11.76H16.2342C19.9943 11.76 20.0689 11.7555 20.9081 11.4751C22.4668 10.9543 23.7667 9.65477 24.2876 8.09648C24.5681 7.25751 24.5726 7.18293 24.5726 3.42389V0L21.1067 0.0042C18.3222 0.00756 17.5682 0.0214667 17.2718 0.0749933ZM3.00674 5.42808C3.00674 7.05838 3.02537 8.16135 3.0558 8.33308C3.36127 10.0571 4.71007 11.4056 6.4346 11.711C6.60638 11.7414 7.70965 11.76 9.34039 11.76H11.9692V9.13192C11.9692 7.50162 11.9506 6.39865 11.9201 6.22692C11.6147 4.50287 10.2659 3.15443 8.54133 2.84905C8.36955 2.81862 7.26628 2.8 5.63554 2.8H3.00674V5.42808ZM35.3322 4.85147C34.6904 4.97229 34.0865 5.08606 33.9902 5.10431L33.8151 5.13758V13.0941C33.8151 21.9234 33.7981 21.4272 34.1239 22.1087C34.316 22.5106 34.7371 22.9817 35.0606 23.1566C35.1843 23.2235 35.4431 23.3274 35.6356 23.3874C35.9478 23.4849 36.0741 23.4965 36.8026 23.495C37.2519 23.4941 37.7855 23.4659 37.9884 23.4324C38.3967 23.3649 39.3253 23.1154 39.3843 23.0572C39.4049 23.0368 39.3419 22.6062 39.2442 22.1003C39.0668 21.1818 39.0664 21.1806 38.9499 21.201C38.8857 21.2123 38.6336 21.2579 38.3897 21.3024C37.8604 21.399 37.3926 21.3792 37.1682 21.2507C37.0723 21.1959 36.968 21.0726 36.896 20.9292L36.7793 20.6967L36.7664 12.6583L36.7536 4.62L36.6264 4.62593C36.5564 4.62919 35.9741 4.73069 35.3322 4.85147ZM41.2283 4.82575C40.7069 4.97611 40.3212 5.36214 40.1516 5.90333C39.91 6.67478 40.0841 7.44749 40.6074 7.92559C40.8958 8.18916 41.1653 8.2992 41.6198 8.33905C42.4522 8.41204 43.0753 8.07842 43.421 7.37473C43.5384 7.13575 43.5478 7.07345 43.5478 6.53333C43.5478 6.00059 43.5371 5.92727 43.4248 5.68773C43.2587 5.33377 43.0087 5.06861 42.6973 4.91629C42.4741 4.80713 42.3709 4.78795 41.943 4.77624C41.626 4.76756 41.3683 4.78543 41.2283 4.82575ZM62.8313 10.3882C60.6649 10.7794 58.9253 12.3378 58.1876 14.5484C57.8603 15.5289 57.7358 16.6361 57.8111 17.8971C57.8594 18.7063 57.8629 18.7348 58.0037 19.46C58.4169 21.5872 59.5425 22.9552 61.259 23.4162C61.6555 23.5227 61.7985 23.5367 62.5229 23.5395C63.3842 23.5429 63.769 23.4888 64.3024 23.2893C65.2585 22.9317 66.0088 22.0989 66.4698 20.8837C66.5875 20.5735 66.5947 20.5816 66.6764 21.1144C66.8044 21.9492 67.3346 23.0693 67.8114 23.5121L67.9285 23.6209L69.0386 23.1738C69.6493 22.9279 70.1655 22.7267 70.1858 22.7267C70.2062 22.7267 70.2291 23.0889 70.2368 23.5317C70.2445 23.9744 70.2504 22.7617 70.25 20.8367C70.2494 18.1824 70.2461 17.9795 70.2366 19.9967L70.224 22.6567L70.1287 22.5167C69.7124 21.9047 69.3434 20.7501 69.1191 19.3575C69.0532 18.9483 69.0376 18.2929 69.0148 14.9579L68.988 11.0392L68.5446 10.932C67.9209 10.7812 66.4119 10.5142 65.567 10.4054C64.7084 10.2947 63.3951 10.2865 62.8313 10.3882ZM40.3608 15.9483L40.3736 21.3967L40.4982 21.7377C40.7204 22.3457 41.0893 22.8233 41.5739 23.13C42.2341 23.548 43.5741 23.6389 44.565 23.333C45.0605 23.1799 45.0391 23.2602 44.8637 22.2133L44.7113 21.3033H44.221C43.6576 21.3033 43.522 21.2474 43.3922 20.9614C43.3213 20.8053 43.3132 20.33 43.3015 15.645L43.2887 10.5H41.8184H40.348L40.3608 15.9483ZM45.9051 15.1095C45.9051 18.0132 45.9231 19.8654 45.9536 20.1145C46.0942 21.2608 46.5194 22.2065 47.1449 22.7637C47.8248 23.3696 48.7858 23.5939 50.3537 23.5127C51.4197 23.4575 52.4566 23.2121 53.1871 22.8422C54.995 21.9267 56.087 20.0024 56.5233 16.9633C56.7349 15.4901 56.8295 13.4594 56.7397 12.32C56.6852 11.6285 56.5572 10.5994 56.5177 10.5355C56.5057 10.516 55.815 10.5 54.9829 10.5C53.7925 10.5 53.4746 10.5124 53.4912 10.5583C53.5029 10.5904 53.5573 10.9212 53.6122 11.2933C53.6882 11.8086 53.7175 12.2803 53.735 13.2708C53.8023 17.0854 53.171 19.763 51.9311 20.9216C51.3822 21.4345 50.5466 21.5865 49.8375 21.3025C49.423 21.1365 49.0726 20.5657 48.9388 19.8387C48.9103 19.6837 48.8926 17.8444 48.8926 15.0437V10.5H47.3988H45.9051V15.1095ZM63.8066 12.4143C62.5455 12.5492 61.7052 13.2572 61.2874 14.5368C61.068 15.2088 61.0054 15.811 61.011 17.1967C61.018 18.95 61.124 19.6959 61.4697 20.4253C61.7854 21.0916 62.2373 21.4189 62.8939 21.4569C63.5466 21.4947 63.9915 21.2986 64.5388 20.7318C65.06 20.1921 65.4348 19.5064 65.6931 18.62C65.9782 17.642 65.9867 17.5441 66.0103 15L66.0319 12.6632L65.5728 12.5601C65.1268 12.4598 64.416 12.3613 64.2267 12.3733C64.1754 12.3767 63.9863 12.3951 63.8066 12.4143ZM4.66839 12.675C2.65296 13.0389 1.03641 14.4901 0.406236 16.5013L0.27614 16.9167L0.26307 20.6383L0.25 24.36H3.65279C7.38872 24.36 7.46603 24.3553 8.30467 24.0751C9.86339 23.5543 11.1633 22.2548 11.6842 20.6965C11.9647 19.8575 11.9692 19.7829 11.9692 16.0239V12.6L8.50324 12.6042C5.71872 12.6076 4.96476 12.6215 4.66839 12.675ZM12.8094 17.039C12.8094 20.7997 12.8204 21.5522 12.8814 21.9631C13.3341 25.0105 15.7997 27.4755 18.848 27.928C19.259 27.989 20.0117 28 23.7734 28H28.2136V23.561C28.2136 19.8003 28.2026 19.0478 28.1416 18.6369C27.6889 15.5895 25.2233 13.1245 22.1751 12.672C21.764 12.611 21.0114 12.6 17.2496 12.6H12.8094V17.039Z" fill="white"/>
</svg>
