<svg width="280" height="448" viewBox="0 0 280 448" fill="none" xmlns="http://www.w3.org/2000/svg">
<path style="mix-blend-mode:screen" d="M249.705 420.877C133.563 420.877 39.4107 326.725 39.4107 210.583C39.4107 94.4402 133.563 0.288086 249.705 0.288086C365.848 0.288086 460 94.4402 460 210.583C460 326.725 365.848 420.877 249.705 420.877Z" fill="url(#paint0_radial_7_1300)"/>
<path style="mix-blend-mode:screen" d="M267.641 383.362C170.425 383.362 91.6165 304.553 91.6165 207.337C91.6165 110.121 170.425 31.312 267.641 31.312C364.857 31.312 443.666 110.121 443.666 207.337C443.666 304.553 364.857 383.362 267.641 383.362Z" fill="url(#paint1_radial_7_1300)"/>
<path style="mix-blend-mode:screen" d="M249.705 389.726C150.767 389.726 70.5615 309.521 70.5615 210.582C70.5615 111.644 150.767 31.439 249.705 31.439C348.643 31.439 428.848 111.644 428.848 210.582C428.848 309.521 348.643 389.726 249.705 389.726Z" fill="url(#paint2_radial_7_1300)"/>
<path fill-rule="evenodd" clip-rule="evenodd" d="M91.5529 137.812C91.5529 137.812 143.16 81.1028 211.881 59.3579C211.881 59.3579 335.118 80.8032 364.358 130.34C393.598 179.872 410.191 267.805 364.358 321.808C318.526 375.812 267.255 393.172 203.991 382.558C140.726 371.94 124.483 349.155 124.483 349.155C124.483 349.155 121.061 319.362 94.0315 314.018C94.0315 314.018 56.5024 205.507 91.5485 137.817L91.5529 137.812Z" fill="url(#paint3_radial_7_1300)"/>
<path fill-rule="evenodd" clip-rule="evenodd" d="M88.389 223.993C88.389 237.921 90.3501 251.421 94.0454 264.169C101.4 289.8 115.654 312.521 134.68 330.207C148.28 342.891 164.333 352.991 182.015 359.697C198.035 365.775 215.358 369.08 233.535 369.08C236.086 369.08 238.701 369.048 241.248 368.885H241.28C245.07 368.69 248.829 368.331 252.556 367.872C280.57 364.209 306.038 352.542 326.666 335.214C334.415 328.741 341.474 321.45 347.684 313.506C352.392 307.522 356.673 301.18 360.4 294.48C361.281 292.877 362.134 291.243 363.015 289.641C363.015 289.577 363.015 289.541 363.047 289.477C363.964 287.743 364.781 285.977 365.562 284.216H365.593C368.113 278.659 370.333 272.939 372.099 267.051C373.438 262.834 374.582 258.485 375.499 254.073C375.531 254.041 375.531 253.973 375.531 253.941C376.153 250.836 376.706 247.731 377.133 244.557C378.114 237.825 378.604 230.957 378.604 223.993C378.604 219.971 378.472 215.949 378.114 212.026C377.918 209.507 377.623 207.055 377.296 204.572C375.435 190.286 371.445 176.685 365.693 164.033C362.883 157.823 359.615 151.84 355.983 146.12C349.904 136.541 342.741 127.78 334.669 119.935C308.516 94.4995 272.848 78.8423 233.521 78.8423C231.982 78.8423 230.448 78.8741 228.945 78.9058C227.311 78.9694 225.709 79.0375 224.074 79.1328C222.44 79.2327 220.806 79.3598 219.203 79.5595C212.566 80.2133 206.061 81.2937 199.719 82.8281C195.143 83.9403 190.631 85.2159 186.218 86.7503C183.209 87.7627 180.267 88.8749 177.361 90.1188C175.205 91.0358 173.08 91.98 170.951 92.9969C170.593 93.1603 170.234 93.3237 169.839 93.519C166.929 94.9262 164.087 96.4606 161.305 98.0631C150.55 104.21 140.708 111.727 131.883 120.357C130.313 121.892 128.778 123.462 127.239 125.097C126.227 126.209 125.214 127.321 124.229 128.465C122.563 130.363 120.929 132.356 119.327 134.349C113.539 141.703 108.472 149.615 104.192 157.986C99.2206 167.729 95.2982 178.124 92.6199 189.01C89.8416 200.223 88.3708 211.895 88.3708 223.988L88.389 223.993Z" fill="url(#paint4_radial_7_1300)"/>
<path fill-rule="evenodd" clip-rule="evenodd" d="M103.288 177.87C117.797 154.277 161.936 148.857 176.131 162.213C188.797 174.129 177.266 210.124 164.124 232.99C164.124 232.99 203.991 174.211 177.679 150.605C151.367 127.003 97.5589 157.183 86.5411 175.755C75.5234 194.326 79.373 229.636 86.5411 242.165C93.7092 254.694 108.341 253.292 108.341 253.292C108.341 253.292 73.6123 226.108 103.288 177.87Z" fill="url(#paint5_radial_7_1300)"/>
<path fill-rule="evenodd" clip-rule="evenodd" d="M303.849 338.156C303.849 338.156 307.94 344.003 303.849 352.746C299.759 361.489 281.751 375.049 241.33 377.923C197.522 381.033 174.697 354.281 174.388 349.305C174.079 344.33 187.925 339.89 187.925 339.89C187.925 339.89 172.4 340.435 168.75 349.364C165.1 358.298 194.703 389.349 244.04 384.996C293.377 380.642 317.755 351.33 317.464 343.494C317.173 335.659 303.849 338.151 303.849 338.151V338.156Z" fill="url(#paint6_linear_7_1300)"/>
<path fill-rule="evenodd" clip-rule="evenodd" d="M191.03 262.044C194.512 257.4 214.441 252.547 214.441 252.547L224.605 263.788C232.05 265.917 237.271 289.328 230.888 294.548C224.505 299.773 199.156 298.611 195.288 288.742C191.421 278.873 187.548 266.684 191.03 262.044ZM221.6 288.551C227.211 282.94 224.374 267.987 217.923 267.269C209.216 266.302 204.082 268.622 202.252 276.558C200.418 284.488 215.989 294.162 221.6 288.551Z" fill="url(#paint7_linear_7_1300)"/>
<path style="mix-blend-mode:multiply" opacity="0.71" fill-rule="evenodd" clip-rule="evenodd" d="M95.0124 194.888C95.0124 194.888 119.831 171.859 148.322 172.749C176.817 173.638 180.571 205.03 169.608 222.44C158.645 239.845 202.098 208.889 202.098 208.889V141.952C202.098 141.952 149.406 136.767 121.401 149.424C93.3962 162.076 95.0079 194.893 95.0079 194.893L95.0124 194.888Z" fill="url(#paint8_linear_7_1300)"/>
<path style="mix-blend-mode:multiply" opacity="0.71" fill-rule="evenodd" clip-rule="evenodd" d="M181.365 95.6797C185.356 101.268 179.699 121.211 179.699 121.211L224.619 99.8653L219.226 79.564C212.589 80.2177 206.084 81.2981 199.742 82.8325C195.166 83.9447 190.653 85.2204 186.241 86.7548C183.231 87.7671 180.29 88.8793 177.384 90.1232C175.228 91.0402 173.103 91.9844 170.974 93.0013C170.616 93.1647 170.257 93.3282 169.862 93.5234C166.952 94.9307 164.11 96.4651 161.327 98.0676C168.455 95.3211 178.819 92.1161 181.365 95.6797Z" fill="url(#paint9_linear_7_1300)"/>
<path style="mix-blend-mode:multiply" opacity="0.71" fill-rule="evenodd" clip-rule="evenodd" d="M226.957 282.041C226.957 282.041 224.86 275.105 211.886 275.082C198.907 275.059 200.818 283.658 200.818 283.658L191.993 267.065L217.737 251.662L241.334 261.704L226.962 282.046L226.957 282.041Z" fill="url(#paint10_linear_7_1300)"/>
<path style="mix-blend-mode:multiply" opacity="0.71" fill-rule="evenodd" clip-rule="evenodd" d="M306.274 352.133C306.274 352.133 297.912 346.559 245.883 343.463C193.854 340.367 173.153 357.89 173.153 357.89L167.22 333.221L270.973 311.254L319.634 325.567L322.489 338.61L306.278 352.133H306.274Z" fill="url(#paint11_linear_7_1300)"/>
<path fill-rule="evenodd" clip-rule="evenodd" d="M72.3504 183.976C75.4147 171.537 79.8861 159.652 85.6151 148.503C87.4537 144.858 89.4468 141.303 91.5577 137.812C104.21 143.968 123.694 146.91 150.587 133.341C186.672 115.146 204.35 79.7955 211.886 59.3625C215.472 58.904 219.085 58.5363 222.731 58.2912C224.601 58.1686 226.467 58.0778 228.305 58.0142C230.021 57.9825 231.769 57.9507 233.544 57.9507C278.546 57.9507 319.348 75.8414 349.246 104.941C358.498 113.947 366.706 123.962 373.629 134.898C377.796 141.453 381.532 148.285 384.751 155.39C391.338 169.88 395.9 185.442 398.047 201.767C398.415 204.618 398.719 207.432 398.937 210.315C399.364 214.786 399.55 219.38 399.55 223.979C399.55 231.973 398.969 239.818 397.866 247.535C397.375 251.149 396.731 254.703 395.995 258.258C395.995 258.29 395.995 258.349 395.964 258.412C394.924 263.438 393.603 268.431 392.073 273.271C390.053 279.98 387.511 286.535 384.66 292.877H384.596C383.706 294.929 382.758 296.922 381.745 298.911C381.686 298.97 381.655 299.001 381.655 299.097C380.674 300.935 379.694 302.801 378.681 304.612C374.391 312.303 369.52 319.561 364.131 326.394C357.027 335.491 348.969 343.853 340.117 351.239C316.47 371.059 287.366 384.383 255.293 388.582C251.067 389.131 246.745 389.531 242.396 389.744H242.365C239.455 389.926 236.481 389.989 233.544 389.989C212.744 389.989 192.923 386.222 174.574 379.235C156.071 372.19 139.16 361.957 124.488 349.151C131.992 333.008 125.805 301.793 114.197 301.303C108.5 301.058 100.106 306.478 94.0408 314.014C85.311 300.536 78.5108 285.741 73.9757 269.961C69.7493 255.38 67.4794 239.941 67.4794 223.979C67.4794 210.165 69.1636 196.778 72.3504 183.971V183.976ZM379.053 280.929C399.545 275.967 393.576 224.624 378.654 223.979C368.789 223.552 350.994 240.063 350.994 255.012C350.994 269.961 371.091 282.858 379.053 280.929ZM220.933 291.897C233.303 288.855 228.024 268.776 219.489 265.826C211.604 263.102 197.064 269.48 198.77 278.482C201.09 290.748 216.125 293.077 220.933 291.892V291.897ZM340.539 319.284C348.157 317.578 351.262 302.075 346.005 300.422C341.147 298.897 331.469 308.707 332.518 313.755C333.948 320.633 337.575 319.947 340.539 319.28V319.284ZM326.271 191.634C333.103 209.402 367.595 220.888 372.957 214.823C381.596 205.112 382.976 178.614 373.692 157.569C363.033 133.336 348.724 129.722 343.304 129.051C337.883 128.406 313.16 157.569 326.271 191.634ZM252.139 382.204C296.927 379.23 325.781 343.422 309.238 339.377C248.893 324.641 166.58 339.745 168.754 349.364C172.154 364.313 201.994 385.541 252.139 382.204ZM115.759 256.301C163.148 271.341 201.871 170.956 177.943 155.394C153.192 139.251 109.898 155.953 97.1913 173.04C86.5412 187.367 68.3646 241.23 115.754 256.301H115.759Z" fill="url(#paint12_radial_7_1300)"/>
<path style="mix-blend-mode:screen" d="M247.163 224.038C209.455 197.83 196.781 150.837 218.855 119.076C240.93 87.3156 289.393 82.8143 327.101 109.022C364.809 135.23 377.484 182.223 355.409 213.984C333.335 245.744 284.872 250.246 247.163 224.038Z" fill="url(#paint13_radial_7_1300)"/>
<path fill-rule="evenodd" clip-rule="evenodd" d="M166.203 79.5869C166.203 79.5869 198.589 64.2747 203.415 66.3493C208.236 68.4239 191.911 111.541 156.402 129.042C118.392 147.777 97.2005 134.839 97.2005 134.839L105.086 124.498C105.086 124.498 93.1874 135.066 91.5623 137.817C91.5623 137.817 112.05 162.994 160.756 133.35C211.89 102.231 211.89 59.3628 211.89 59.3628C211.89 59.3628 192.524 62.8402 166.208 79.5915L166.203 79.5869Z" fill="url(#paint14_radial_7_1300)"/>
<g style="mix-blend-mode:multiply">
<path fill-rule="evenodd" clip-rule="evenodd" d="M114.51 282.568C113.634 282.913 112.767 283.276 111.909 283.653C111.632 283.408 111.21 283.453 110.883 283.235C110.461 282.954 110.084 282.368 109.92 281.878C109.675 281.138 110.052 280.53 110.392 279.962C110.619 279.585 110.837 279.027 111.182 278.773C111.586 278.473 112.376 278.591 112.799 278.791C113.321 279.041 113.702 279.576 114.051 280.053C114.378 280.502 114.76 281.247 114.778 281.81C114.796 282.418 114.31 283.058 113.865 283.367L114.51 282.563V282.568Z" fill="#D1DEFF"/>
<path fill-rule="evenodd" clip-rule="evenodd" d="M265.535 91.7583C265.421 91.3361 265.353 90.7505 265.135 90.3691C265.072 90.2602 264.913 90.1649 264.836 90.0514C264.577 89.6791 264.659 89.6156 264.237 89.6065C263.755 89.5929 263.442 89.6428 263.061 89.947C261.758 90.9865 265.067 91.7901 265.19 90.7823L265.535 91.7583Z" fill="#D1DEFF"/>
<path fill-rule="evenodd" clip-rule="evenodd" d="M254.427 95.866C254.594 96.6196 255.076 97.6365 254.381 98.1358C253.782 98.5671 252.524 97.8907 252.048 97.4549C251.199 96.6831 250.173 95.2214 250.981 94.1455C251.453 93.5145 252.788 93.0333 253.559 93.1059C255.139 93.2557 255.598 95.1397 255.816 96.6468L254.427 95.866Z" fill="#D1DEFF"/>
<path fill-rule="evenodd" clip-rule="evenodd" d="M136.142 272.672C136.31 273.425 136.791 274.442 136.096 274.941C135.497 275.373 134.239 274.696 133.763 274.265C132.914 273.493 131.888 272.031 132.696 270.956C133.168 270.325 134.503 269.843 135.274 269.916C136.854 270.066 137.313 271.95 137.531 273.457L136.142 272.676V272.672Z" fill="#D1DEFF"/>
<path fill-rule="evenodd" clip-rule="evenodd" d="M75.2102 245.833C75.3782 246.587 75.8593 247.604 75.1648 248.108C74.5655 248.539 73.3082 247.862 72.8315 247.427C71.9872 246.655 70.9566 245.193 71.7647 244.117C72.2368 243.486 73.5715 243.005 74.3433 243.078C75.9231 243.227 76.3815 245.111 76.5994 246.619L75.2102 245.838V245.833Z" fill="#D1DEFF"/>
<path fill-rule="evenodd" clip-rule="evenodd" d="M249.564 80.6079C249.732 79.3187 249.968 78.043 248.82 77.3621C248.193 76.9944 247.049 76.8627 246.459 77.3031C246.032 77.6208 245.66 78.211 245.393 78.6513C244.998 79.305 245.102 79.305 245.306 79.9043C245.778 81.2752 246.1 82.1786 247.462 82.1786C249.265 82.1786 249.542 80.7804 249.564 79.0417V80.6079Z" fill="#D1DEFF"/>
<path fill-rule="evenodd" clip-rule="evenodd" d="M232.899 103.302C231.914 103.034 231.065 102.516 230.357 101.758C231.065 101.318 232.618 100.405 232.899 101.736V103.302Z" fill="#D1DEFF"/>
<path fill-rule="evenodd" clip-rule="evenodd" d="M183.912 331.56C182.927 331.292 182.078 330.774 181.37 330.016C182.078 329.576 183.631 328.663 183.912 329.993V331.56Z" fill="#D1DEFF"/>
<path fill-rule="evenodd" clip-rule="evenodd" d="M220.052 123.259C219.071 122.051 217.651 119.849 215.871 121.057C214.836 121.756 214.541 123.617 215.531 124.353C216.448 125.038 217.287 125.233 218.322 125.515C219.112 125.733 220.288 125.211 220.052 124.039V123.259Z" fill="#D1DEFF"/>
<path fill-rule="evenodd" clip-rule="evenodd" d="M156.847 317.55C155.866 316.343 154.445 314.141 152.666 315.348C151.631 316.052 151.336 317.909 152.325 318.644C153.242 319.33 154.082 319.525 155.117 319.806C155.907 320.024 157.083 319.502 156.847 318.331V317.55Z" fill="#D1DEFF"/>
<path fill-rule="evenodd" clip-rule="evenodd" d="M232.087 99.4983C231.106 98.2907 229.685 96.089 227.906 97.2966C226.871 98.0002 226.576 99.8569 227.565 100.592C228.482 101.278 229.322 101.468 230.357 101.754C231.147 101.972 232.323 101.45 232.087 100.279V99.4983Z" fill="#D1DEFF"/>
<path fill-rule="evenodd" clip-rule="evenodd" d="M90.9358 164.302C89.9552 163.094 88.5344 160.892 86.7548 162.1C85.7198 162.803 85.4247 164.66 86.4143 165.396C87.3313 166.081 88.1711 166.276 89.2062 166.558C89.9961 166.776 91.1719 166.254 90.9358 165.082V164.302Z" fill="#D1DEFF"/>
<path fill-rule="evenodd" clip-rule="evenodd" d="M238.683 206.652C237.702 205.444 236.281 203.242 234.502 204.45C233.467 205.154 233.172 207.01 234.161 207.746C235.078 208.431 235.918 208.626 236.953 208.908C237.743 209.126 238.919 208.604 238.683 207.432V206.652Z" fill="#D1DEFF"/>
<path fill-rule="evenodd" clip-rule="evenodd" d="M74.2342 208.854C73.5487 209.094 72.9723 209.48 72.5001 209.998C73.1811 210.229 73.9164 210.77 74.6155 210.52C75.5234 210.198 75.6915 209.335 75.4873 208.468C75.3738 207.996 74.5247 207.16 74.0389 207.369C73.7938 207.474 73.7439 207.81 73.6667 208.023C73.4988 208.472 73.4852 208.377 73.7304 208.849H74.2389L74.2342 208.854Z" fill="#D1DEFF"/>
<path fill-rule="evenodd" clip-rule="evenodd" d="M269.975 77.7985C268.935 77.2991 268 76.6636 266.874 76.4729C265.581 76.255 264.382 76.0008 263.066 76.0053C262.403 76.0053 260.923 75.9509 261.354 77.0313C261.822 78.2025 264.341 79.3147 265.34 79.7869C267.056 80.5949 268.668 81.4075 270.592 81.6073C271.564 81.7071 273.194 81.7798 273.743 80.8037C274.206 79.9866 273.983 79.3147 273.534 78.5566C273.062 77.7667 272.563 77.4353 271.696 77.0949C271.296 76.936 269.067 76.3413 268.954 77.0358L269.97 77.7985H269.975Z" fill="#D1DEFF"/>
<path fill-rule="evenodd" clip-rule="evenodd" d="M222.186 62.6899C222.98 63.2665 229.082 66.653 226.181 68.1194C224.619 68.9093 221.55 68.6777 219.966 68.0059C218.554 67.4066 217.129 66.4805 218.014 64.8553C219.803 61.5777 224.292 63.4708 226.608 64.8962L222.19 62.6899H222.186Z" fill="#D1DEFF"/>
<path fill-rule="evenodd" clip-rule="evenodd" d="M221.278 216.493C220.774 219.299 220.198 222.368 217.76 224.22C215.231 226.145 212.371 225.364 209.888 223.898C208.049 222.813 206.311 221.655 204.513 220.547C203.464 219.903 202.543 219.739 202.497 218.241C202.448 216.63 203.932 214.469 204.858 213.248C205.961 211.79 208.195 210.043 209.92 209.402C213.688 207.995 220.878 209.393 220.792 214.519L221.287 216.493H221.278Z" fill="#D1DEFF"/>
</g>
<path style="mix-blend-mode:screen" fill-rule="evenodd" clip-rule="evenodd" d="M174.374 159.694C174.374 159.694 26.9132 109.93 3.40689 135.443C-24.058 165.255 123.553 257.432 123.553 257.432C123.553 257.432 154.296 259.529 174.511 215.431C180.485 202.398 186.105 175.292 174.37 159.694H174.374Z" fill="url(#paint15_linear_7_1300)"/>
<path style="mix-blend-mode:screen" fill-rule="evenodd" clip-rule="evenodd" d="M303.849 338.156C303.849 338.156 278.85 444.415 239.187 447.157C199.528 449.899 174.388 349.305 174.388 349.305C174.388 349.305 193.627 333.439 239.187 333.439C284.747 333.439 303.849 338.156 303.849 338.156Z" fill="url(#paint16_linear_7_1300)"/>
<path style="mix-blend-mode:screen" fill-rule="evenodd" clip-rule="evenodd" d="M199.737 82.8324C199.737 82.8324 169.571 53.6062 132.405 62.69C95.2393 71.7738 117.969 139.746 117.969 139.746C117.969 139.746 143.968 138.57 169.067 121.211C194.167 103.851 199.742 82.8324 199.742 82.8324H199.737Z" fill="url(#paint17_linear_7_1300)"/>
<path style="mix-blend-mode:screen" opacity="0.5" fill-rule="evenodd" clip-rule="evenodd" d="M127.071 322.58C127.071 322.58 69.7264 382.345 63.4617 372.662C57.2696 363.088 109.839 302.02 109.839 302.02C109.839 302.02 119.449 295.197 127.071 322.585V322.58Z" fill="url(#paint18_linear_7_1300)"/>
<path fill-rule="evenodd" clip-rule="evenodd" d="M149.148 81.5523C150.174 82.9914 150.287 83.0822 150.382 84.5122C150.432 85.2703 150.609 86.5278 150.323 87.2496C149.838 88.4798 148.054 89.583 146.751 89.4286C145.666 89.3015 144.367 88.5161 143.355 88.0531C142.07 87.4675 141.426 86.5142 140.881 85.2657C140.332 84.0128 140.663 83.1911 141.19 81.9609C141.68 80.8124 142.452 79.5186 143.35 78.6469C144.404 77.6255 145.788 77.0581 147.087 77.9161C148.244 78.6787 149.524 80.5445 149.565 81.9609L149.152 81.5478L149.148 81.5523Z" fill="#FFC445"/>
<path fill-rule="evenodd" clip-rule="evenodd" d="M137.998 98.894C136.959 99.1937 136.105 99.7339 135.429 100.515C136.123 100.705 135.992 101.568 136.736 101.804C137.594 102.076 138.085 101.146 138.824 101.373L137.998 98.894Z" fill="#FF8800"/>
<path fill-rule="evenodd" clip-rule="evenodd" d="M208.599 396.004C207.559 396.304 206.706 396.844 206.029 397.625C206.724 397.816 206.592 398.678 207.337 398.914C208.195 399.187 208.685 398.256 209.425 398.483L208.599 396.004Z" fill="#FFC445"/>
<path fill-rule="evenodd" clip-rule="evenodd" d="M117.352 65.0326C117.611 65.7998 119 68.5236 118.591 69.4088C118.119 70.4302 116.866 69.9899 116.117 69.4951C115.618 69.1637 115.341 68.6825 114.878 68.3193C114.492 68.0106 113.965 67.8881 113.616 67.5385C113.257 67.1799 113.157 66.6623 112.835 66.2674C112.476 65.8316 111.922 65.6001 111.605 65.196C110.678 64.0157 111.005 62.2634 112.49 61.8322C115.159 61.0559 116.208 63.2667 117.765 65.0417H117.352V65.0326Z" fill="#FFC445"/>
<path fill-rule="evenodd" clip-rule="evenodd" d="M105.876 328.486C106.134 329.258 107.524 331.977 107.115 332.863C106.638 333.884 105.39 333.444 104.636 332.949C104.137 332.617 103.86 332.136 103.397 331.773C103.011 331.464 102.484 331.342 102.135 330.992C101.785 330.643 101.672 330.112 101.354 329.721C100.996 329.285 100.442 329.054 100.124 328.65C99.1979 327.469 99.5246 325.717 101.009 325.281C103.678 324.505 104.727 326.716 106.284 328.491H105.871L105.876 328.486Z" fill="#FFC445"/>
<path fill-rule="evenodd" clip-rule="evenodd" d="M253.165 347.685C253.423 348.452 254.812 351.176 254.404 352.061C253.932 353.083 252.679 352.642 251.925 352.147C251.426 351.816 251.149 351.335 250.686 350.972C250.3 350.663 249.774 350.54 249.424 350.191C249.065 349.832 248.961 349.315 248.643 348.92C248.284 348.484 247.731 348.252 247.413 347.848C246.487 346.673 246.814 344.916 248.298 344.485C250.967 343.708 252.016 345.919 253.573 347.694H253.16L253.165 347.685Z" fill="#FFC445"/>
<path fill-rule="evenodd" clip-rule="evenodd" d="M95.0527 58.0142C94.3627 56.4889 94.1222 55.7126 92.665 55.0135C91.9341 54.6639 90.908 54.5686 90.9398 55.7353C90.9534 56.271 91.8206 57.4195 92.1565 57.8144C92.7784 58.5499 93.6501 58.6134 94.5671 58.3592C94.5898 58.2457 94.6124 58.1322 94.6351 58.0187H95.0483L95.0527 58.0142Z" fill="#FFC445"/>
<path fill-rule="evenodd" clip-rule="evenodd" d="M250.159 421.013C249.61 419.806 249.424 419.188 248.266 418.635C247.689 418.358 246.877 418.285 246.9 419.207C246.909 419.633 247.599 420.541 247.867 420.855C248.361 421.436 249.047 421.49 249.778 421.286C249.796 421.195 249.814 421.104 249.832 421.013H250.159Z" fill="#FFC445"/>
<path fill-rule="evenodd" clip-rule="evenodd" d="M109.444 188.815C109.671 187.952 111.527 189.618 110.883 188.946C110.329 188.37 109.176 187.802 108.486 187.525C107.533 187.144 106.852 187.062 105.903 187.353C104.555 187.766 103.143 188.656 102.421 189.886C100.337 193.45 103.161 196.555 106.543 197.871C109.698 199.101 114.102 198.493 114.832 194.621C115.037 193.536 114.487 191.298 113.593 190.553C112.644 189.759 110.638 189.023 109.444 188.819V188.815Z" fill="#FF8800"/>
<path fill-rule="evenodd" clip-rule="evenodd" d="M207.968 349.192C208.018 348.452 209.797 349.509 209.162 349.069C208.617 348.688 207.582 348.411 206.978 348.297C206.138 348.138 205.571 348.184 204.845 348.57C203.814 349.124 202.802 350.077 202.416 351.194C201.29 354.435 204.096 356.514 207.064 357.041C209.834 357.536 213.329 356.328 213.302 353.055C213.293 352.138 212.485 350.399 211.636 349.936C210.732 349.441 208.98 349.164 207.972 349.192H207.968Z" fill="#FF8800"/>
<path fill-rule="evenodd" clip-rule="evenodd" d="M76.0592 172.4C76.0956 174.919 75.8096 174.733 73.5897 175.205C71.9464 175.555 70.5891 174.579 69.1319 173.948C68.3465 173.607 67.5292 172.99 67.0571 172.3C66.417 171.369 66.4625 171.024 67.2887 170.339C67.8471 169.876 68.5506 169.285 69.2815 169.136C69.7218 169.045 70.1577 169.104 70.6026 169.009C70.884 168.95 71.0974 168.732 71.4923 168.668C72.5138 168.509 74.879 169.281 75.678 169.907C76.3635 170.443 77.0671 171.964 76.89 172.817L76.0639 172.404L76.0592 172.4Z" fill="#FFC445"/>
<path fill-rule="evenodd" clip-rule="evenodd" d="M50.1195 183.835C50.2376 183.562 50.2877 183.285 50.265 182.995C49.9199 182.768 49.8791 182.305 49.4433 182.101C49.13 181.951 48.735 181.896 48.4263 182.06C47.8225 182.373 47.8408 183.14 48.1359 183.626C48.3538 183.984 48.558 184.588 48.9711 184.811C49.4977 185.097 50.283 184.475 50.4509 184.003L50.1151 183.835H50.1195Z" fill="#FFC445"/>
<path fill-rule="evenodd" clip-rule="evenodd" d="M80.5673 348.62C80.6853 348.347 80.7351 348.071 80.7124 347.78C80.3674 347.553 80.3266 347.09 79.8907 346.886C79.5775 346.736 79.1827 346.681 78.874 346.845C78.2702 347.158 78.2883 347.925 78.5834 348.411C78.8013 348.77 79.0056 349.373 79.4233 349.596C79.9499 349.882 80.7351 349.26 80.9031 348.788L80.5673 348.62Z" fill="#FFC445"/>
<path fill-rule="evenodd" clip-rule="evenodd" d="M217.583 358.711C217.701 358.439 217.751 358.162 217.728 357.871C217.383 357.644 217.342 357.181 216.906 356.977C216.593 356.827 216.198 356.773 215.889 356.936C215.286 357.249 215.304 358.017 215.599 358.502C215.817 358.861 216.021 359.465 216.439 359.687C216.965 359.973 217.751 359.351 217.919 358.879L217.583 358.711Z" fill="#FFC445"/>
<path fill-rule="evenodd" clip-rule="evenodd" d="M122.309 230.626C121.633 229.459 121.483 228.942 120.244 228.656C119.631 228.51 118.696 228.37 118.16 228.751C117.316 229.35 117.048 231.711 117.438 232.601C118.006 233.89 119.776 233.681 120.748 233.218C122.264 232.496 122.695 231.82 122.722 230.217L122.309 230.63V230.626Z" fill="#FFC445"/>
<path fill-rule="evenodd" clip-rule="evenodd" d="M36.4144 134.82C36.6414 135.102 36.7413 135.415 36.7141 135.756C35.9696 136.25 33.6953 135.728 33.8451 134.589C33.9177 134.026 34.6032 133.84 35.0753 133.781C36.0468 133.658 36.5416 134.516 37.0364 135.234L36.419 134.82H36.4144Z" fill="#FFC445"/>
<path fill-rule="evenodd" clip-rule="evenodd" d="M168.196 171.927C168.423 172.209 168.523 172.522 168.496 172.863C167.751 173.357 165.477 172.835 165.626 171.696C165.699 171.133 166.385 170.947 166.857 170.888C167.828 170.765 168.323 171.623 168.818 172.34L168.201 171.927H168.196Z" fill="#FFC445"/>
<path fill-rule="evenodd" clip-rule="evenodd" d="M253.623 400.758C254.149 402.841 254.599 404.022 252.978 405.479C251.902 406.446 249.996 407.086 248.529 406.995C246.169 406.85 242.237 404.957 243.063 401.965C243.486 400.431 245.887 398.588 247.394 398.247C250.486 397.548 253.559 400.027 253.618 403.236V400.758H253.623Z" fill="#FFC445"/>
<path style="mix-blend-mode:screen" fill-rule="evenodd" clip-rule="evenodd" d="M332.554 351.211C349.4 337.107 363.369 319.634 373.406 299.845C379.711 287.407 384.46 274.065 387.402 260.069C387.429 260.042 387.429 259.983 387.429 259.928C389.69 249.074 390.906 237.82 390.906 226.285C390.906 194.112 381.577 164.119 365.489 138.847C358.647 128.106 350.617 118.264 341.542 109.443C312.171 80.8891 272.108 63.3071 227.924 63.3071C224.36 63.3071 220.856 63.4205 217.351 63.6475C206.302 64.3557 195.561 66.1852 185.224 68.9861C197.962 64.8142 211.404 62.1767 225.327 61.2824C228.832 61.0554 232.336 60.9419 235.9 60.9419C280.089 60.9419 320.147 78.5285 349.518 107.078C358.593 115.899 366.624 125.736 373.465 136.482C389.549 161.754 398.878 191.752 398.878 223.92C398.878 235.455 397.661 246.704 395.4 257.563C395.4 257.617 395.4 257.677 395.373 257.704C392.432 271.699 387.683 285.041 381.377 297.48C371.34 317.268 357.376 334.742 340.525 348.846C322.671 363.827 301.584 375.013 278.464 381.259C298.465 374.736 316.765 364.449 332.545 351.211H332.554Z" fill="url(#paint19_radial_7_1300)"/>
<defs>
<radialGradient id="paint0_radial_7_1300" cx="0" cy="0" r="1" gradientUnits="userSpaceOnUse" gradientTransform="translate(249.705 210.583) rotate(180) scale(210.295)">
<stop stop-color="#009BFF"/>
<stop offset="1"/>
</radialGradient>
<radialGradient id="paint1_radial_7_1300" cx="0" cy="0" r="1" gradientUnits="userSpaceOnUse" gradientTransform="translate(267.641 207.337) rotate(180) scale(176.025)">
<stop stop-color="#009BFF"/>
<stop offset="1"/>
</radialGradient>
<radialGradient id="paint2_radial_7_1300" cx="0" cy="0" r="1" gradientUnits="userSpaceOnUse" gradientTransform="translate(249.705 210.582) rotate(180) scale(179.143 179.143)">
<stop stop-color="#0092FF"/>
<stop offset="0.13" stop-color="#008FFB"/>
<stop offset="0.26" stop-color="#0088EF"/>
<stop offset="0.38" stop-color="#007DDA"/>
<stop offset="0.51" stop-color="#006DBE"/>
<stop offset="0.63" stop-color="#00589A"/>
<stop offset="0.76" stop-color="#003F6E"/>
<stop offset="0.88" stop-color="#00213A"/>
<stop offset="1"/>
</radialGradient>
<radialGradient id="paint3_radial_7_1300" cx="0" cy="0" r="1" gradientUnits="userSpaceOnUse" gradientTransform="translate(332.658 146.17) rotate(180) scale(283.478 283.478)">
<stop stop-color="#4F8CFF"/>
<stop offset="0.15" stop-color="#4A85F8"/>
<stop offset="0.36" stop-color="#3D71E6"/>
<stop offset="0.61" stop-color="#2852C8"/>
<stop offset="0.9" stop-color="#0B269F"/>
<stop offset="1" stop-color="#00158E"/>
</radialGradient>
<radialGradient id="paint4_radial_7_1300" cx="0" cy="0" r="1" gradientUnits="userSpaceOnUse" gradientTransform="translate(323.384 156.093) rotate(180) scale(256.504 256.504)">
<stop stop-color="#FF7263"/>
<stop offset="0.21" stop-color="#FC6E62"/>
<stop offset="0.37" stop-color="#F36561"/>
<stop offset="0.51" stop-color="#E4545F"/>
<stop offset="0.64" stop-color="#D03D5D"/>
<stop offset="0.77" stop-color="#B51F5A"/>
<stop offset="0.88" stop-color="#9A0057"/>
<stop offset="0.99" stop-color="#9A00AE"/>
</radialGradient>
<radialGradient id="paint5_radial_7_1300" cx="0" cy="0" r="1" gradientUnits="userSpaceOnUse" gradientTransform="translate(166.294 171.601) rotate(180) scale(96.3405 96.3404)">
<stop stop-color="#0088E8"/>
<stop offset="0.19" stop-color="#1595EE"/>
<stop offset="0.53" stop-color="#34AAF7"/>
<stop offset="0.81" stop-color="#48B6FC"/>
<stop offset="1" stop-color="#4FBBFF"/>
</radialGradient>
<linearGradient id="paint6_linear_7_1300" x1="242.959" y1="385.413" x2="242.959" y2="337.779" gradientUnits="userSpaceOnUse">
<stop stop-color="#4FBBFF"/>
<stop offset="0.19" stop-color="#48B6FC"/>
<stop offset="0.47" stop-color="#34AAF7"/>
<stop offset="0.81" stop-color="#1595EE"/>
<stop offset="1" stop-color="#0088E8"/>
</linearGradient>
<linearGradient id="paint7_linear_7_1300" x1="233.757" y1="275.082" x2="189.668" y2="275.082" gradientUnits="userSpaceOnUse">
<stop stop-color="#0088E8"/>
<stop offset="0.03" stop-color="#0B8DE9"/>
<stop offset="0.24" stop-color="#4EAFEF"/>
<stop offset="0.43" stop-color="#87CBF5"/>
<stop offset="0.61" stop-color="#B3E1F9"/>
<stop offset="0.77" stop-color="#D2F1FC"/>
<stop offset="0.91" stop-color="#E6FBFE"/>
<stop offset="1" stop-color="#EDFFFF"/>
</linearGradient>
<linearGradient id="paint8_linear_7_1300" x1="202.103" y1="184.325" x2="94.9943" y2="184.325" gradientUnits="userSpaceOnUse">
<stop stop-color="#A131A4"/>
<stop offset="1" stop-color="#FFC0B3"/>
</linearGradient>
<linearGradient id="paint9_linear_7_1300" x1="224.615" y1="100.387" x2="161.323" y2="100.387" gradientUnits="userSpaceOnUse">
<stop stop-color="#A131A4"/>
<stop offset="1" stop-color="#FFC0B3"/>
</linearGradient>
<linearGradient id="paint10_linear_7_1300" x1="241.33" y1="267.655" x2="191.993" y2="267.655" gradientUnits="userSpaceOnUse">
<stop stop-color="#A131A4"/>
<stop offset="1" stop-color="white"/>
</linearGradient>
<linearGradient id="paint11_linear_7_1300" x1="322.485" y1="334.57" x2="167.215" y2="334.57" gradientUnits="userSpaceOnUse">
<stop stop-color="#A131A4"/>
<stop offset="1" stop-color="#FFC0B3"/>
</linearGradient>
<radialGradient id="paint12_radial_7_1300" cx="0" cy="0" r="1" gradientUnits="userSpaceOnUse" gradientTransform="translate(342.384 148.296) rotate(180) scale(303.084 278.51)">
<stop stop-color="#B1FFFF"/>
<stop offset="0.29" stop-color="#B0FCFF"/>
<stop offset="0.44" stop-color="#AEF5FF"/>
<stop offset="0.55" stop-color="#ABE7FF"/>
<stop offset="0.62" stop-color="#A9DBFF"/>
<stop offset="0.65" stop-color="#A2D6FE"/>
<stop offset="0.7" stop-color="#8EC9FC"/>
<stop offset="0.76" stop-color="#6FB5F8"/>
<stop offset="0.82" stop-color="#4398F4"/>
<stop offset="0.89" stop-color="#0B74EE"/>
<stop offset="0.91" stop-color="#006DED"/>
</radialGradient>
<radialGradient id="paint13_radial_7_1300" cx="0" cy="0" r="1" gradientUnits="userSpaceOnUse" gradientTransform="translate(282.861 160.848) rotate(-145.2) scale(83.3023 69.8343)">
<stop stop-color="#FF7700"/>
<stop offset="0.17" stop-color="#C45B00"/>
<stop offset="0.4" stop-color="#7F3B00"/>
<stop offset="0.6" stop-color="#482100"/>
<stop offset="0.78" stop-color="#210F00"/>
<stop offset="0.92" stop-color="#080400"/>
<stop offset="1"/>
</radialGradient>
<radialGradient id="paint14_radial_7_1300" cx="0" cy="0" r="1" gradientUnits="userSpaceOnUse" gradientTransform="translate(188.983 82.8963) rotate(180) scale(94.6743 94.6743)">
<stop stop-color="#0088E8"/>
<stop offset="0.14" stop-color="#1B92EC"/>
<stop offset="0.4" stop-color="#4BA5F4"/>
<stop offset="0.64" stop-color="#6EB3FA"/>
<stop offset="0.83" stop-color="#83BBFD"/>
<stop offset="0.96" stop-color="#8BBFFF"/>
</radialGradient>
<linearGradient id="paint15_linear_7_1300" x1="167.847" y1="229.114" x2="25.2154" y2="109.431" gradientUnits="userSpaceOnUse">
<stop stop-color="#FF3D00"/>
<stop offset="1"/>
</linearGradient>
<linearGradient id="paint16_linear_7_1300" x1="239.119" y1="447.212" x2="239.119" y2="333.434" gradientUnits="userSpaceOnUse">
<stop/>
<stop offset="1" stop-color="#FF3D00"/>
</linearGradient>
<linearGradient id="paint17_linear_7_1300" x1="170.003" y1="122.441" x2="118.632" y2="71.0701" gradientUnits="userSpaceOnUse">
<stop stop-color="#FF3D00"/>
<stop offset="1"/>
</linearGradient>
<linearGradient id="paint18_linear_7_1300" x1="70.7115" y1="377.937" x2="121.192" y2="305.843" gradientUnits="userSpaceOnUse">
<stop/>
<stop offset="1" stop-color="#FF3D00"/>
</linearGradient>
<radialGradient id="paint19_radial_7_1300" cx="0" cy="0" r="1" gradientUnits="userSpaceOnUse" gradientTransform="translate(355.007 112.989) rotate(180) scale(214.521 214.521)">
<stop stop-color="#FFFFD9"/>
<stop offset="1"/>
</radialGradient>
</defs>
</svg>
