<svg width="1400" height="696" viewBox="0 0 1400 696" fill="none" xmlns="http://www.w3.org/2000/svg">
<g filter="url(#filter0_f_34_3287)">
<ellipse cx="154.701" cy="144.848" rx="154.701" ry="144.848" transform="matrix(-1 0 0 1 460.945 380.532)" fill="#23EAFF"/>
</g>
<g opacity="0.3" filter="url(#filter1_f_34_3287)">
<ellipse cx="242.891" cy="177.857" rx="242.891" ry="177.857" transform="matrix(-1 0 0 1 202.781 666.286)" fill="url(#paint0_linear_34_3287)"/>
</g>
<path style="mix-blend-mode:screen" d="M411.5 875.376C571.386 715.49 571.386 456.263 411.5 296.376C251.614 136.49 -7.61354 136.49 -167.5 296.376C-327.386 456.263 -327.386 715.49 -167.5 875.376C-7.61354 1035.26 251.614 1035.26 411.5 875.376Z" fill="url(#paint1_radial_34_3287)"/>
<path style="mix-blend-mode:screen" d="M364.317 828.193C498.144 694.365 498.144 477.388 364.317 343.56C230.489 209.732 13.5112 209.732 -120.317 343.56C-254.144 477.388 -254.144 694.365 -120.316 828.193C13.5113 962.021 230.489 962.021 364.317 828.193Z" fill="url(#paint2_radial_34_3287)"/>
<path style="mix-blend-mode:screen" d="M368.614 832.49C504.815 696.289 504.815 475.464 368.614 339.263C232.413 203.062 11.5873 203.062 -124.614 339.263C-260.815 475.464 -260.815 696.289 -124.614 832.49C11.5874 968.691 232.413 968.691 368.614 832.49Z" fill="url(#paint3_radial_34_3287)"/>
<path fill-rule="evenodd" clip-rule="evenodd" d="M417.992 581.713C417.992 610.123 413.995 637.647 406.444 663.621C391.464 715.879 362.43 762.138 323.661 798.22C295.946 824.063 263.228 844.609 227.207 858.28C194.559 870.703 159.223 877.448 122.196 877.448C116.951 877.448 111.646 877.327 106.462 877.015H106.401C98.6591 876.642 90.9781 875.888 83.4272 874.951C26.3054 867.461 -25.5715 843.733 -67.6521 808.397C-83.4475 795.229 -97.8037 780.37 -110.478 764.132C-120.092 751.96 -128.77 739.035 -136.382 725.363C-138.194 722.112 -139.945 718.809 -141.688 715.498C-141.688 715.376 -141.748 715.307 -141.809 715.185C-143.621 711.631 -145.303 708.068 -146.933 704.444H-146.993C-152.117 693.148 -156.607 681.471 -160.231 669.481C-162.979 660.864 -165.285 652.004 -167.158 643.014C-167.218 642.953 -167.219 642.823 -167.219 642.762C-168.528 636.46 -169.655 630.088 -170.53 623.655C-172.524 609.923 -173.53 595.94 -173.53 581.705C-173.53 573.53 -173.218 565.346 -172.472 557.361C-172.099 552.238 -171.536 547.184 -170.851 542.129C-167.045 513.035 -158.922 485.32 -147.193 459.537C-141.445 446.863 -134.83 434.691 -127.401 423.014C-115.038 403.534 -100.43 385.684 -83.9502 369.637C-30.6949 317.821 42.0314 285.918 122.196 285.918C125.317 285.918 128.438 285.979 131.499 286.039C134.81 286.161 138.113 286.291 141.425 286.542C158.408 287.669 175.009 290.166 191.056 294.032C200.419 296.278 209.6 298.905 218.59 302.025C224.71 304.089 230.701 306.395 236.63 308.892C241.061 310.764 245.369 312.697 249.678 314.761C250.423 315.133 251.178 315.445 251.923 315.818C280.645 329.862 306.67 348.345 329.27 370.504C332.513 373.625 335.642 376.867 338.763 380.179C340.826 382.424 342.881 384.739 344.884 387.045C348.317 390.911 351.628 394.977 354.871 399.035C366.67 414.015 377.029 430.123 385.707 447.227C395.885 467.08 403.878 488.241 409.305 510.409C414.984 533.261 417.983 557.11 417.983 581.705L417.992 581.713Z" fill="url(#paint4_radial_34_3287)"/>
<path fill-rule="evenodd" clip-rule="evenodd" d="M251.915 320.17C250.944 320.274 249.964 320.378 248.993 320.577C245.655 321.193 243.046 320.889 239.76 319.962C237.402 319.294 235.703 318.323 233.189 317.907C229.6 317.344 226.262 315.8 222.673 315.341C218.876 314.829 215.59 313.338 212.001 312.055C209.184 311.032 207.693 311.388 204.971 312.055C202.249 312.775 200.35 311.648 197.94 310.616C195.218 309.437 192.504 309.229 189.626 308.666C182.136 307.122 174.698 304.712 167.259 302.814C162.639 301.635 158.382 301.635 153.666 301.583C149.973 301.531 146.635 302.606 142.942 302.606C140.48 302.606 138.373 302.198 135.911 301.834C133.397 301.375 130.831 301.886 128.317 301.531C124.572 300.967 122.569 300.404 118.772 301.583C115.954 302.502 113.744 302.406 110.926 302.554C107.797 302.71 104.26 303.525 101.182 304.244C95.6424 305.527 89.5913 306.55 83.8956 306.446C80.4105 306.446 75.2783 305.475 71.9406 306.654C69.782 307.426 68.707 309.732 67.2246 311.275C64.3551 314.249 60.8094 316.919 58.3993 320.256C55.9893 323.594 53.2672 327.027 53.4753 331.232C53.6833 334.873 55.3736 339.129 56.9601 342.467C58.5986 346.004 59.1622 349.238 55.5211 351.596C50.9524 354.621 45.6729 357.396 40.4366 358.878C36.9516 359.901 33.822 360.517 30.8918 358.002C29.8168 357.075 29.1492 355.28 27.8141 354.561C26.427 353.841 24.988 354.561 23.5055 355.02C19.8124 356.095 16.2234 357.326 12.4782 357.942C10.1722 358.297 8.16956 359.528 5.90688 359.944C3.18472 360.456 1.23422 358.453 -1.58328 359.121C-5.53647 360.048 -9.48108 361.687 -13.5903 361.895C-16.5118 362.051 -20.2049 360.768 -22.667 359.277C-24.1061 358.453 -24.4615 357.638 -26.1087 358.098C-27.4437 358.41 -29.4465 360.048 -30.166 361.071C-31.137 362.458 -31.501 364.253 -32.472 365.692C-33.495 367.279 -34.4745 368.822 -35.3934 370.512C-37.0839 373.798 -39.0865 376.875 -41.2452 379.797C-42.7796 381.852 -43.8635 384.617 -45.554 386.516C-46.4296 387.539 -48.3282 388.258 -49.4552 389.03C-52.5328 391.188 -55.7664 393.13 -58.7399 395.445C-64.4876 399.962 -69.9232 404.938 -75.7749 409.298C-80.2396 412.636 -86.4988 414.587 -91.579 416.685C-94.7606 417.968 -98.0464 418.895 -101.228 420.222C-102.251 420.629 -104.149 421.097 -105.025 421.86C-106.152 422.831 -106.768 424.634 -107.799 425.961C-110.573 429.35 -113.495 432.732 -115.602 436.633C-116.885 438.887 -117.656 441.201 -118.471 443.663C-119.598 447.001 -121.393 450.079 -122.528 453.408C-124.834 460.386 -125.303 467.669 -127.86 474.595C-129.351 478.653 -131.501 482.346 -133.347 486.039C-136.529 492.298 -136.989 499.736 -137.916 506.663C-138.428 510.72 -138.22 515.384 -137.509 519.338C-136.737 523.594 -136.945 528.007 -136.997 532.367C-137.049 536.988 -139.971 541.496 -142.901 544.99C-145.571 548.223 -149.62 549.455 -152.593 552.324C-155.108 554.786 -158.133 557.612 -159.208 561.097C-159.667 562.641 -159.26 564.383 -159.511 566.021C-160.179 569.663 -161.098 573.104 -161.618 576.797C-162.182 581.366 -162.286 585.675 -162.286 590.287C-162.286 592.593 -162.442 594.96 -162.338 597.266C-162.234 599.468 -161.41 601.522 -161.263 603.733C-161.159 605.276 -161.471 606.81 -161.263 608.354C-160.959 610.096 -160.292 611.891 -159.876 613.59C-158.853 617.69 -158.081 621.696 -157.309 625.805C-156.59 629.602 -155.108 633.347 -153.92 637.04C-152.281 642.068 -151.198 647.253 -150.227 652.48C-149.455 656.381 -149.507 660.43 -148.943 664.383C-148.484 667.565 -147.765 670.798 -147.609 673.98C-147.453 678.8 -148.632 683.629 -148.684 688.501C-148.736 696.711 -145.45 704.921 -143.551 712.818C-142.988 715.02 -142.424 717.283 -141.809 719.485C-162.129 679.364 -173.564 634.015 -173.564 585.996C-173.564 527.608 -156.633 473.182 -127.444 427.313C-115.029 407.816 -100.456 389.966 -83.9934 373.954C-30.6861 322.138 42.0056 290.226 122.196 290.226C128.664 290.226 135.018 290.434 141.382 290.842C180.835 293.356 218.183 303.62 251.889 320.135L251.915 320.17Z" fill="url(#paint5_linear_34_3287)"/>
<path style="mix-blend-mode:multiply" fill-rule="evenodd" clip-rule="evenodd" d="M141.069 725.025C141.069 725.025 168.681 765.796 205.231 798.861C241.772 831.925 247.138 854.145 247.138 854.145C247.138 854.145 316.206 825.259 365.491 756.858C414.776 688.458 141.069 725.025 141.069 725.025Z" fill="url(#paint6_linear_34_3287)"/>
<path style="mix-blend-mode:screen" fill-rule="evenodd" clip-rule="evenodd" d="M-53.1741 817.031C-83.7506 791.431 -109.091 759.728 -127.305 723.811C-138.748 701.236 -147.366 677.023 -152.697 651.63C-152.749 651.578 -152.749 651.474 -152.749 651.37C-156.85 631.674 -159.061 611.249 -159.061 590.321C-159.061 531.934 -142.13 477.508 -112.94 431.639C-100.526 412.142 -85.9527 394.292 -69.4898 378.28C-16.1824 326.464 56.5095 294.552 136.7 294.552C143.167 294.552 149.522 294.76 155.885 295.168C175.937 296.451 195.434 299.771 214.186 304.86C191.074 297.283 166.678 292.497 141.408 290.876C135.044 290.469 128.681 290.261 122.222 290.261C42.0316 290.261 -30.6601 322.172 -83.9674 373.989C-100.439 389.992 -115.003 407.851 -127.418 427.348C-156.607 473.217 -173.538 527.643 -173.538 586.03C-173.538 606.958 -171.336 627.383 -167.227 647.079C-167.227 647.183 -167.227 647.287 -167.175 647.339C-161.843 672.731 -153.218 696.953 -141.783 719.52C-123.569 755.428 -98.2285 787.14 -67.652 812.74C-35.2463 839.927 3.01135 860.23 44.9706 871.561C8.67238 859.719 -24.5309 841.063 -53.1741 817.031Z" fill="url(#paint7_radial_34_3287)"/>
<path style="mix-blend-mode:multiply" opacity="0.4" fill-rule="evenodd" clip-rule="evenodd" d="M191.056 298.367C175.01 294.491 158.408 291.995 141.425 290.876C138.113 290.625 134.81 290.504 131.499 290.374C138.555 294.309 145.109 301.236 146.73 308.354C149.418 320.525 153.345 331.83 155.599 344.002C157.844 355.991 157.411 370.85 151.975 381.713C148.542 388.579 144.485 394.448 139.05 400.066C135.183 404.002 131.871 406.186 129.123 411.05C126.375 415.792 123.757 420.413 120.636 424.912C116.015 431.657 111.143 438.835 105.837 445.016C103.965 447.261 101.902 448.822 100.22 451.449C98.0959 454.7 97.0989 457.751 94.7842 460.317C89.4786 466.247 81.2341 469.559 73.9346 472.237C64.4417 475.792 56.3879 479.788 47.4673 484.539C34.9228 491.154 24.6151 499.65 9.94664 500.022C5.07451 500.144 0.0204773 499.459 -4.85164 499.901C-10.9115 500.404 -16.5293 503.334 -22.5197 504.461C-27.7646 505.458 -33.0094 506.524 -38.2544 507.4C-46.8716 508.709 -53.9891 511.648 -62.2942 513.642C-73.0961 516.329 -84.3922 515.636 -95.2548 517.136C-105.06 518.445 -113.547 519.632 -123.283 517.257C-138.324 513.512 -146.378 506.394 -143.196 490.408C-141.072 479.918 -141.818 471.925 -147.193 463.872C-158.931 489.654 -167.045 517.378 -170.851 546.464C-163.733 549.463 -155.619 551.024 -149.316 551.648C-127.401 553.893 -103.803 544.097 -83.768 536.607C-73.5296 532.74 -63.1006 527.114 -52.056 525.865C-40.4478 524.617 -30.2093 526.056 -18.5925 523.178C21.4248 513.312 60.8788 499.329 96.5875 478.167C111.386 469.429 117.94 456.936 128.239 444.27C137.29 433.217 147.467 424.045 158.269 414.804C168.88 405.753 178.243 396.763 184.555 384.088C191.238 370.729 196.917 356.061 199.977 341.383C203.219 325.9 199.232 310.98 191.048 298.367H191.056ZM189.062 338.575C188.438 341.886 188.005 345.441 186.999 348.562C184.442 356.494 179.7 364.669 172.27 368.848C168.837 370.781 164.277 369.593 162.283 366.16C161.226 364.288 161.225 361.912 160.844 359.858C160.098 355.8 159.596 351.804 159.656 347.617C159.778 337.569 159.405 327.885 158.469 317.838C159.526 323.516 158.217 309.411 167.086 305.536C171.264 303.664 177.576 305.345 180.757 308.596C184.754 312.654 185.69 319.52 187.19 324.825C188.499 329.567 189.938 333.564 189.062 338.557V338.575Z" fill="url(#paint8_linear_34_3287)"/>
<path style="mix-blend-mode:multiply" opacity="0.4" fill-rule="evenodd" clip-rule="evenodd" d="M146.228 810.729C145.352 810.85 144.546 811.041 143.731 811.102L149.6 811.665C148.854 811.475 147.597 811.041 146.228 810.729ZM146.228 810.729C145.352 810.85 144.546 811.041 143.731 811.102L149.6 811.665C148.854 811.475 147.597 811.041 146.228 810.729ZM409.305 514.751C409.184 522.493 406.999 530.174 406.808 537.976C406.618 548.336 404.875 556.39 402.188 566.386C400.315 573.252 396.821 578.306 394.507 584.929C391.889 592.549 388.135 599.043 384.268 606.03C376.587 620.014 368.915 633.997 365.603 649.853C362.604 664.149 361.98 676.199 354.862 689.307C348.057 701.921 337.758 712.402 330.45 724.643C327.017 730.512 324.641 730.2 319.466 733.885C313.657 738.002 308.351 744.496 302.734 749.056C290.623 758.731 279.57 765.415 264.901 770.902C255.72 774.396 246.8 777.144 237.056 778.644C230.684 779.641 224.442 778.644 218.139 779.702C208.152 781.323 198.659 784.322 189.045 787.443C173.25 792.567 157.142 795.497 141.408 800.369C130.424 803.742 119.682 805.735 108.508 808.111C101.702 809.55 96.2059 813.234 89.1578 811.795C82.0403 810.295 75.547 807.929 68.5509 805.735C59.6216 802.987 52.2528 802.805 42.6386 802.805C29.8428 802.805 14.9835 804.738 2.36967 802.302C-11.8653 799.554 -26.0395 795.748 -40.2744 792.81C-48.8917 790.998 -55.4457 787.443 -63.3087 783.759C-70.6776 780.326 -78.6013 779.329 -86.2823 776.893C-94.3967 774.335 -102.199 770.521 -110.504 768.466C-97.8297 784.695 -83.4732 799.554 -67.6778 812.732C-25.5972 848.067 26.2795 871.795 83.4013 879.286C90.9522 880.222 98.6332 880.967 106.375 881.349H106.436C123.167 877.543 139.526 872.61 156.379 867.426C184.407 858.687 208.629 841.765 236.665 833.529C247.094 830.408 256.457 827.036 266.193 822.233C273.371 818.679 280.991 817.742 288.23 814.613C314.264 803.559 333.865 778.28 345.482 753.494C350.727 742.259 355.781 729.524 365.213 721.097C369.08 717.604 373.7 714.543 377.073 710.608C380.879 706.299 383.436 700.933 386.809 696.251C392.738 687.885 398.486 679.459 404.416 671.032C405.161 670.035 405.855 669.038 406.41 667.972C413.961 641.999 417.957 614.465 417.957 586.065C417.957 561.47 414.958 537.621 409.279 514.769L409.305 514.751ZM137.983 812.853C139.041 812.168 140.792 810.729 141.919 810.417C143.046 810.044 144.728 810.356 146.228 810.729C148.412 810.417 150.597 810.165 152.66 811.041C153.848 811.605 156.093 812.662 156.596 814.041C157.16 815.35 156.405 816.165 155.538 817.04C154.411 818.167 153.544 818.167 151.984 818.479C148.733 819.103 145.551 819.667 142.179 819.355C140.185 819.164 137.186 819.043 135.937 817.17C134.749 815.358 136.501 813.859 138.001 812.862L137.983 812.853ZM157.402 851.431C155.59 853.737 153.779 856.113 151.412 857.864C149.167 859.615 146.67 860.673 144.234 862.042C138.243 865.415 132.062 869.038 125.317 870.781C122.63 871.466 119.951 871.344 117.142 871.527C113.77 871.839 110.458 871.899 107.094 871.96C103.098 872.021 99.2315 872.836 95.235 873.087C91.2384 873.278 87.3026 873.399 83.3147 873.651C76.7001 874.084 70.8309 872.966 64.589 870.72C58.9713 868.657 53.1629 866.039 48.1087 862.667C44.5543 860.291 41.4942 856.927 38.4339 853.928C35.5644 851.24 33.2496 848.371 31.6284 844.747C31.065 843.438 30.4408 842.06 30.7529 840.629C30.8742 839.944 31.1863 839.381 31.1863 839.19C32.3133 838.315 33.4317 837.508 34.498 837.066C36.622 836.13 38.9887 835.688 41.2428 835.445C46.6784 834.699 52.6083 835.636 58.0352 836.069C61.2775 836.321 64.1557 836.503 67.3373 836.009C71.5853 835.384 75.8244 834.075 79.9509 832.948C89.9379 830.261 99.7431 828.145 110.042 827.018C120.281 825.891 131.022 824.773 141.321 826.516C145.187 827.14 149.877 828.267 153.25 830.512C155.746 832.194 157.74 834.882 159.119 837.569C161.494 842.129 160.489 847.495 157.437 851.431H157.402ZM235.755 825.77C233.943 827.894 231.325 829.142 229.071 830.703C225.95 832.888 222.639 834.639 219.396 836.511C216.648 838.132 214.03 839.45 211.152 840.759C208.343 842.068 205.473 843.386 202.664 844.816C199.604 846.377 196.293 847.435 193.05 848.562C190.675 849.437 188.117 850.495 185.56 850.061C183.497 849.628 181.191 848.813 179.691 847.253C177.446 844.877 177.818 842.32 178.564 841.262C178.564 839.077 177.94 835.957 178.625 833.833C179.058 832.584 180.558 830.712 181.251 829.463C183.87 824.721 187.615 821.288 191.55 817.543C194.983 814.231 198.295 811.735 202.916 810.113C208.1 808.362 214.03 807.929 219.396 807.244C225.265 806.559 235.192 806.117 237.81 812.862C239.622 817.543 238.997 821.852 235.747 825.787L235.755 825.77ZM149.6 811.665C148.854 811.475 147.597 811.041 146.228 810.729C145.352 810.85 144.546 811.041 143.731 811.102L149.6 811.665Z" fill="url(#paint9_linear_34_3287)"/>
<path style="mix-blend-mode:multiply" opacity="0.4" fill-rule="evenodd" clip-rule="evenodd" d="M385.716 451.57V452.758C385.343 460.933 382.032 466.551 379.101 473.98C376.726 479.971 373.978 485.346 370.926 491.024C365.742 500.517 363.306 509.438 359.5 519.615C353.571 535.532 350.571 551.83 341.269 566.317C332.903 579.243 330.97 595.099 324.164 608.891C316.483 624.314 304.745 635.359 292.14 646.603C286.522 651.657 281.841 657.717 276.778 663.213C271.412 669.022 267.225 676.512 260.792 681.133C246.869 691.25 231.637 699.988 218.026 710.66C209.851 717.032 204.043 725.519 195.053 730.825C186.063 736.191 176.327 739.936 167.398 745.372C159.344 750.305 151.412 755.61 142.673 759.165C132.686 763.161 124.381 761.973 114.143 762.476C102.777 762.979 91.0389 765.97 80.3671 769.654C71.4984 772.775 64.0688 775.957 55.0181 772.775C49.0277 770.651 43.5921 766.715 37.2895 765.406C22.6211 762.407 5.88948 765.406 -9.03032 765.034C-20.7078 764.722 -33.5643 762.034 -44.9904 759.728C-56.2258 757.543 -65.4066 749.68 -76.2692 746.49C-89.6892 742.554 -105.363 745.927 -118.35 740.812C-123.655 738.748 -128.71 734.509 -133.4 731.57C-134.397 730.946 -135.394 730.322 -136.399 729.698C-138.211 726.447 -139.962 723.144 -141.705 719.832C-138.523 721.141 -135.333 722.58 -132.091 724.141C-115.107 732.255 -93.9459 731.007 -75.6537 734.188C-55.0555 737.812 -34.4487 743.178 -13.6598 745.554C-5.23326 746.49 3.26277 746.429 11.6286 745.493C23.3668 744.184 35.5384 744.366 47.0858 742.372C67.1899 738.818 86.7912 729.325 107.641 732.012C111.507 732.515 115.816 734.57 119.752 734.509C125.56 734.318 129.557 729.264 134.238 726.334C142.482 721.15 151.16 722.147 158.399 715.35C165.517 708.666 173.38 704.366 182.058 699.988C204.658 688.501 222.951 669.836 240.679 652.108C255.538 637.309 269.955 621.644 280.133 603.161C290.12 584.999 288.126 563.395 295.616 544.54C301.052 531.05 305.603 518.384 314.411 506.516C318.659 500.838 323.835 495.966 328.334 490.53C333.137 484.722 336.076 478.419 339.76 471.926C343.818 464.687 348.941 458.003 352.183 450.322C355.244 442.953 354.992 436.46 354.871 428.779C354.75 420.352 354.871 411.796 354.871 403.369C366.67 418.35 377.03 434.457 385.708 451.562L385.716 451.57Z" fill="url(#paint10_linear_34_3287)"/>
<path style="mix-blend-mode:multiply" opacity="0.4" fill-rule="evenodd" clip-rule="evenodd" d="M338.763 384.522C335.642 381.21 332.521 377.968 329.27 374.847C306.67 352.679 280.636 334.205 251.923 320.161C251.178 319.788 250.423 319.476 249.678 319.103C245.369 317.04 241.061 315.107 236.631 313.234C230.701 310.737 224.702 308.431 218.59 306.368C220.523 307.617 222.769 308.613 223.523 308.986C227.207 310.859 230.207 312.107 232.764 315.419C235.261 318.661 236.388 321.097 236.57 325.224C236.691 329.09 237.255 333.087 237.94 336.962C238.564 340.516 240.315 343.889 241.061 347.452C241.433 349.576 241.746 351.448 242.431 353.572C243.991 358.505 245.612 363.377 246.678 368.492C248.551 377.604 243.679 385.163 240.437 393.468C235.313 406.637 232.071 420.005 228.265 433.607C225.265 444.348 219.396 454.959 211.282 462.701C203.349 470.382 191.62 472.125 184.502 480.43C178.261 487.729 170.58 494.665 161.78 498.783C151.603 503.655 140.861 507.4 130.068 510.703C122.326 513.009 114.212 513.2 106.41 515.263C96.7347 517.699 87.8661 522.571 78.7547 526.498C69.0798 530.677 60.029 536.052 50.2847 540.23C40.4798 544.348 31.3684 549.966 21.6328 553.962C16.8907 555.896 11.8974 556.832 7.08592 558.523C-2.90106 562.016 -12.5761 568.388 -23.196 569.637C-26.8804 570.07 -30.6255 570.946 -34.2493 570.946C-37.1795 571.006 -39.8062 571.318 -42.6151 572.385C-51.8565 576.008 -57.5348 586.429 -68.146 586.49C-77.8816 586.49 -87.4958 586.117 -97.1794 587.235C-101.861 587.799 -106.542 587.487 -111.224 587.547C-112.593 587.547 -114.405 587.859 -115.784 587.296C-117.344 586.672 -119.095 585.172 -120.656 584.296C-124.15 582.363 -127.522 579.866 -130.643 577.491C-136.763 572.749 -144.878 575.367 -151.935 573.936C-154.059 573.503 -157.179 573.746 -159.052 572.688C-163.421 570.061 -168.918 564.695 -172.472 561.704C-173.218 569.697 -173.53 577.872 -173.53 586.047C-173.53 600.282 -172.533 614.266 -170.53 627.998C-169.655 634.431 -168.536 640.794 -167.218 647.105C-167.218 647.166 -167.218 647.296 -167.158 647.356C-165.285 656.346 -162.979 665.215 -160.231 673.824C-156.607 685.813 -152.116 697.482 -146.993 708.787H-146.932C-138.879 710.096 -130.574 711.162 -122.459 709.975C-110.912 708.293 -99.4248 706.481 -87.6866 706.914C-76.7026 707.417 -66.4556 711.162 -55.7231 712.974C-43.6728 714.968 -31.1284 716.598 -18.8874 717.404C-7.71269 718.089 3.40134 719.025 14.5153 720.274C22.8812 721.271 31.2472 722.9 39.613 723.455C61.3382 724.955 82.5692 719.277 103.913 717.023C114.585 715.896 125.205 713.217 135.686 710.963C142.118 709.593 148.36 707.903 154.039 704.409C161.529 699.728 166.271 692.549 172.955 686.862C180.324 680.56 188.005 674.439 195.677 668.57C202.231 663.577 208.412 658.141 215.278 653.711C220.523 650.278 225.768 647.027 230.701 643.161C240.376 635.54 248.057 626.741 256.05 617.5C267.225 604.513 271.845 586.472 276.336 570.365C280.393 555.566 283.202 540.777 291.316 527.478C295.313 520.985 298.312 513.494 300.185 506.125C301.373 501.505 301.806 496.32 303.93 491.951C307.303 484.834 313.917 479.719 317.974 472.974C321.156 467.669 324.719 462.736 326.965 456.867C331.334 445.319 334.646 434.084 336.518 421.782C337.888 412.731 340.827 404.426 343.635 395.748C344.069 394.309 344.511 392.879 344.884 391.379C342.89 389.073 340.827 386.758 338.763 384.513V384.522ZM-46.1175 586.611C-45.4933 585.05 -34.44 580.742 -32.7582 580.239C-32.8189 580.3 -32.9489 580.36 -33.1309 580.43L-40.3696 583.551C-32.3766 580.863 -17.9597 588.986 -24.9472 598.158C-27.0105 600.846 -32.3767 602.155 -35.5584 602.658C-38.74 603.221 -40.7426 602.155 -42.6758 599.415C-44.297 597.04 -45.4846 592.922 -45.9268 590.113C-46.1175 589.116 -46.5509 587.617 -46.1175 586.62V586.611ZM-134.206 666.273C-142.823 663.897 -148.562 660.716 -153.868 653.477C-157.301 648.796 -160.3 644.114 -161.237 638.366C-161.982 633.624 -163.855 629.376 -162.736 624.634C-161.861 620.889 -160.361 616.771 -158.619 613.269C-156.685 609.333 -153.816 605.276 -153.564 603.967C-144.947 603.221 -136.893 602.909 -128.285 602.84C-118.671 602.779 -109.056 604.027 -99.3814 604.088C-95.0121 604.149 -90.6427 604.34 -86.3341 603.403C-82.1469 602.588 -78.0897 601.47 -73.8504 600.785C-66.4816 599.537 -59.6156 598.661 -52.6888 602.346C-47.4439 605.154 -45.0077 610.963 -42.5717 616.208C-41.1933 619.207 -40.387 621.331 -40.387 624.695C-40.3263 628.752 -40.5777 632.749 -41.0719 636.806C-41.2626 638.306 -41.4446 639.866 -41.6961 641.366C-47.7472 654.604 -64.4182 658.973 -76.8413 663.594C-95.0121 670.269 -115.55 671.336 -134.214 666.281L-134.206 666.273ZM-1.22798 694.613C-5.09447 704.348 -21.3927 707.851 -30.7556 708.223C-35.3763 708.414 -40.9332 707.478 -44.9904 705.042C-47.2358 703.672 -49.6112 701.045 -50.9203 698.739C-51.9779 696.988 -54.3533 693.746 -59.1648 695.185C-58.1678 689.819 -56.4771 684.695 -54.2318 679.762C-52.1078 677.387 -49.8625 675.142 -47.5478 673.018C-43.1785 669.082 -38.3064 665.649 -33.0615 662.97C-24.8864 658.852 -16.3299 661.912 -8.4669 665.527C-3.1613 667.963 0.956741 671.587 2.08374 677.387C3.39281 684.001 1.20808 688.683 -1.22798 694.621V694.613ZM108.274 692.74C105.274 699.918 101.095 701.539 94.472 704.912C86.7303 708.848 77.3069 711.778 68.5596 711.838C64.0689 711.899 59.8817 709.775 55.8245 708.154C53.1371 707.096 50.2067 706.403 48.0827 704.409C42.2136 699.043 41.2774 691.171 44.9012 692.801C42.6558 687.989 41.2168 683.065 40.6533 677.881C41.6503 677.066 42.2744 676.008 42.5865 674.699C45.7075 668.83 51.5158 663.958 57.2549 660.716C67.4933 654.847 80.5405 654.162 91.4638 658.722C96.2665 660.716 99.3268 663.152 102.951 666.836C104.632 668.588 107.008 670.209 108.317 672.333C111.559 677.768 110.562 687.252 108.256 692.749L108.274 692.74ZM141.919 691.613C140.237 692.983 136.986 695.67 134.801 695.237C132.99 694.864 129.557 691.18 130.12 689.246L128.932 688.059C131.55 684.001 134.177 679.884 136.735 675.696C140.731 677.448 144.286 677.196 146.722 681.565C148.967 685.623 144.91 689.186 141.919 691.613ZM225.638 495.271C222.326 499.702 217.957 503.889 212.842 506.013C206.41 508.7 197.792 510.694 197.48 501.019C197.229 495.341 198.165 491.214 200.731 485.978C204.416 478.548 207.909 476.676 215.027 472.991C217.645 473.304 220.393 473.928 222.396 474.613C226.392 475.922 230.198 479.485 230.762 483.724C231.386 488.154 228.204 491.969 225.638 495.271ZM303.74 453.191C300.619 462.926 296.431 472.359 292.131 481.6C286.886 492.965 286.262 504.634 283.644 516.624C282.144 523.369 278.963 530.798 272.348 533.416C269.479 534.543 266.67 534.292 263.48 534.292C260.61 534.292 255.304 535.35 255.486 537.846C253.804 533.165 250.926 526.862 249.808 521.548C248.62 515.679 248.126 509.376 247.19 503.507C246.193 497.326 245.751 491.145 245.127 484.903C244.624 479.095 243.445 472.983 243.505 467.114C243.757 447.764 254.429 423.663 272.6 414.734C278.157 412.047 283.653 410.798 289.765 411.804C296.882 412.861 300.939 414.803 304.121 421.609C308.43 430.972 306.739 443.585 303.748 453.2L303.74 453.191Z" fill="url(#paint11_linear_34_3287)"/>
<path style="mix-blend-mode:multiply" opacity="0.4" fill-rule="evenodd" clip-rule="evenodd" d="M217.654 471.613C216.717 472.116 215.842 472.549 215.036 472.983C213.414 472.731 211.854 472.671 210.545 472.792L217.662 471.604L217.654 471.613Z" fill="url(#paint12_linear_34_3287)"/>
<path fill-rule="evenodd" clip-rule="evenodd" d="M178.919 295.722L230.84 275.271C230.84 275.271 313.449 307.374 365.491 377.656L368.742 422.545C368.742 422.545 270.32 384.816 178.919 295.722Z" fill="url(#paint13_linear_34_3287)"/>
<path fill-rule="evenodd" clip-rule="evenodd" d="M367.615 752.437C367.615 752.437 324.104 799.641 291.221 810.165L264.225 818.401C264.225 818.401 141.07 774.092 134.325 697.014C128.655 632.255 239.414 532.861 269.383 521.037C299.353 509.203 334.446 515.904 334.446 515.904L367.615 752.437Z" fill="url(#paint14_linear_34_3287)"/>
<path fill-rule="evenodd" clip-rule="evenodd" d="M334.446 515.905C308.473 507.66 196.215 559.364 166.072 675.358C159.96 698.896 216.9 788.31 284.919 810.174C307.493 817.43 410.996 727.01 415.322 665.736C419.648 604.47 373.033 528.154 334.455 515.905H334.446Z" fill="url(#paint15_linear_34_3287)"/>
<path fill-rule="evenodd" clip-rule="evenodd" d="M173.311 688.926C189.331 557.569 308.768 514.804 334.741 523.048C353.501 529.004 381.096 556.555 396.874 583.716C380.584 550.174 356.232 522.823 334.446 515.905C308.473 507.66 196.215 559.364 166.072 675.358C163.948 683.534 169.453 699.676 180.376 718.167C174.403 705.554 172.556 695.176 173.311 688.926Z" fill="url(#paint16_linear_34_3287)"/>
<path style="mix-blend-mode:multiply" fill-rule="evenodd" clip-rule="evenodd" d="M-46.3081 829.663C-46.3081 829.663 -19.5375 839.477 -0.0230103 834.154C-0.0230103 834.154 7.47602 770.842 -16.3818 730.339C-40.2396 689.845 -80.673 751.042 -80.673 751.042L-89.9233 789.802C-89.9233 789.802 -67.4265 816.867 -46.3081 829.672V829.663Z" fill="url(#paint17_linear_34_3287)"/>
<path fill-rule="evenodd" clip-rule="evenodd" d="M-23.0919 819.433L-5.92667 814.838C-5.92667 814.838 2.34379 779.763 -12.0212 740.196C-28.3368 695.281 -88.1374 661.705 -97.006 660.976C-105.875 660.257 -114.631 680.447 -114.631 680.447L-23.0832 819.424L-23.0919 819.433Z" fill="url(#paint18_linear_34_3287)"/>
<path fill-rule="evenodd" clip-rule="evenodd" d="M132.262 614.968C119.483 608.995 133.978 552.957 146.548 540.768C159.119 528.579 191.811 557.066 196.145 580.369C200.471 603.663 161.52 628.657 132.262 614.977V614.968Z" fill="url(#paint19_linear_34_3287)"/>
<path fill-rule="evenodd" clip-rule="evenodd" d="M145.049 610.694C134.819 605.735 146.418 559.242 156.492 549.134C166.566 539.017 192.747 562.658 196.215 581.99C199.682 601.323 168.482 622.051 145.049 610.703V610.694Z" fill="url(#paint20_linear_34_3287)"/>
<path fill-rule="evenodd" clip-rule="evenodd" d="M230.84 275.263C230.84 275.263 233.406 306.776 268.889 345.415C304.372 384.054 365.491 377.647 365.491 377.647L368.742 422.537C368.742 422.537 238.781 365.094 178.919 295.714L230.84 275.263Z" fill="url(#paint21_linear_34_3287)"/>
<path fill-rule="evenodd" clip-rule="evenodd" d="M332.756 554.587C331.282 555.809 328.065 558.115 330.614 559.901C331.308 560.387 331.906 560.127 332.634 560.343C333.206 560.508 333.345 560.95 334.004 560.699C336.076 559.91 335.252 554.023 332.912 555.202L332.756 554.587Z" fill="#0EDBFF"/>
<path fill-rule="evenodd" clip-rule="evenodd" d="M455.322 501.799C453.848 503.022 450.632 505.328 453.18 507.114C453.865 507.599 454.472 507.339 455.2 507.556C455.772 507.72 455.911 508.163 456.57 507.911C458.642 507.122 457.818 501.236 455.478 502.415L455.322 501.799Z" fill="#0EDBFF"/>
<path fill-rule="evenodd" clip-rule="evenodd" d="M343.471 575.991C344.407 575.471 345.378 575.193 346.375 575.167C346.6 576.442 347.771 578.939 345.95 579.936C344.424 580.768 344.884 578.037 344.164 577.404L343.471 575.991Z" fill="#0EDBFF"/>
<path fill-rule="evenodd" clip-rule="evenodd" d="M148.898 589.108C150.848 589.879 152.782 590.686 154.698 591.527C155.322 590.98 156.258 591.084 156.986 590.599C157.922 589.975 158.772 588.666 159.136 587.573C159.682 585.917 158.841 584.574 158.078 583.308C157.576 582.467 157.081 581.227 156.31 580.655C155.408 579.988 153.649 580.248 152.704 580.699C151.542 581.253 150.684 582.45 149.912 583.516C149.184 584.513 148.334 586.178 148.3 587.435C148.265 588.787 149.34 590.217 150.328 590.911L148.889 589.116L148.898 589.108Z" fill="#0EDBFF"/>
<path fill-rule="evenodd" clip-rule="evenodd" d="M161.468 208.067C166.41 210.018 171.308 212.064 176.163 214.205C177.732 212.818 180.107 213.078 181.954 211.856C184.329 210.278 186.479 206.949 187.389 204.192C188.777 200.005 186.635 196.589 184.719 193.39C183.436 191.258 182.205 188.119 180.246 186.663C177.957 184.964 173.51 185.631 171.117 186.767C168.17 188.171 166.011 191.197 164.052 193.893C162.214 196.416 160.055 200.629 159.968 203.819C159.873 207.244 162.604 210.868 165.109 212.619L161.477 208.067H161.468Z" fill="#0EDBFF"/>
<path fill-rule="evenodd" clip-rule="evenodd" d="M204.788 638.141C203.956 638.722 203.271 639.459 202.751 640.334C203.549 641.34 203.939 642.285 205.309 642.675C205.855 642.831 206.436 642.848 206.878 642.415C207.45 641.86 207.138 641.245 207.294 640.698C207.667 639.372 208.031 639.025 207.285 637.812C206.834 637.083 206.522 636.789 205.725 636.789C205.17 636.789 203.956 636.945 203.679 637.56L204.797 638.132L204.788 638.141Z" fill="#0EDBFF"/>
<path fill-rule="evenodd" clip-rule="evenodd" d="M209.218 669.064C209.071 669.402 207.571 673.217 209.522 672.116C210.502 671.561 210.155 670.061 209.487 669.627C209.522 669.506 209.556 669.376 209.591 669.255L209.218 669.064Z" fill="#0EDBFF"/>
<path fill-rule="evenodd" clip-rule="evenodd" d="M224.537 641.878C225.283 642.562 225.751 643.412 225.942 644.426C224.901 644.686 224.78 643.663 224.624 642.857C224.381 641.565 224.979 641.964 225.586 640.933C225.699 640.959 225.811 640.985 225.924 641.002L224.528 641.886L224.537 641.878Z" fill="#0EDBFF"/>
<path fill-rule="evenodd" clip-rule="evenodd" d="M318.157 558.262C317.324 558.843 316.648 559.571 316.119 560.447C316.614 561.054 316.379 562.164 317.524 562.077C318.33 562.016 318.998 561.149 319.379 560.482C319.83 559.71 319.873 559.077 319.925 558.236C319.951 557.812 319.951 555.982 319.171 557.187L318.148 558.262H318.157Z" fill="#0EDBFF"/>
<path fill-rule="evenodd" clip-rule="evenodd" d="M305.5 340.456C306.444 340.213 307.658 339.693 308.629 339.702C308.906 339.702 309.271 339.901 309.574 339.936C310.58 340.023 310.614 339.806 311.1 340.612C311.655 341.522 311.906 342.19 311.741 343.265C311.161 346.941 305.968 341.401 307.779 340.049L305.5 340.447V340.456Z" fill="#0EDBFF"/>
<path fill-rule="evenodd" clip-rule="evenodd" d="M333.163 570.252C335.365 569.654 337.246 568.501 338.833 566.81C337.255 565.831 333.796 563.793 333.163 566.767V570.252Z" fill="#0EDBFF"/>
<path fill-rule="evenodd" clip-rule="evenodd" d="M220.263 591.786C222.457 589.099 225.612 584.183 229.583 586.879C231.889 588.44 232.548 592.584 230.346 594.231C228.3 595.757 226.427 596.19 224.121 596.823C222.361 597.309 219.734 596.138 220.263 593.529V591.786Z" fill="#0EDBFF"/>
<path fill-rule="evenodd" clip-rule="evenodd" d="M283.315 308.596C286.739 309.168 292.565 309.498 292.184 314.283C291.958 317.057 288.69 319.676 286.167 318.566C283.835 317.543 282.526 316.121 280.844 314.431C279.552 313.139 279.275 310.278 281.806 309.454L283.324 308.596H283.315Z" fill="#0EDBFF"/>
<path fill-rule="evenodd" clip-rule="evenodd" d="M169.981 587.729C167.181 589.506 162.465 591.717 161.988 595.557C161.702 597.881 162.769 599.242 164.867 600.248C166.653 601.106 169.331 601.175 171.117 600.274C173.683 598.982 176.648 596.841 177.801 594.11C178.633 592.142 178.495 590.789 177.567 588.83C177.073 587.781 176.076 586.524 174.949 586.134C171.369 584.894 169.219 588.405 166.566 589.992L169.973 587.72L169.981 587.729Z" fill="#0EDBFF"/>
<path fill-rule="evenodd" clip-rule="evenodd" d="M179.058 577.517C180.584 578.054 181.876 578.913 182.925 580.066C181.399 580.586 179.769 581.791 178.209 581.236C176.189 580.516 175.807 578.592 176.267 576.659C176.518 575.601 178.417 573.746 179.5 574.214C180.046 574.448 180.15 575.194 180.332 575.67C180.714 576.676 180.731 576.459 180.194 577.517H179.058Z" fill="#0EDBFF"/>
<path fill-rule="evenodd" clip-rule="evenodd" d="M256.405 560.638C248.993 567.131 242.023 574.899 238.096 584.193C236.093 588.926 239.648 589.16 243.948 588.328C252.279 586.698 260.653 584.401 268.881 582.285C273.753 581.037 280.74 578.462 284.13 574.327C286.722 571.154 287.805 565.684 287.233 561.696C286.436 556.113 282.465 553.937 277.394 552.541C265.811 549.333 249.375 561.834 245.075 572.506L256.405 560.647V560.638Z" fill="#0EDBFF"/>
<path fill-rule="evenodd" clip-rule="evenodd" d="M215.114 602.796C217.515 602.866 219.752 603.447 221.824 604.539C221.226 605.25 221.416 606.212 221.104 607.044C220.636 608.275 219.466 609.524 218.365 610.226C216.518 611.396 213.458 611.821 211.412 611.049C205.205 608.691 214.724 601.331 216.822 603.932L215.122 602.796H215.114Z" fill="#0EDBFF"/>
<path fill-rule="evenodd" clip-rule="evenodd" d="M271.152 314.093C273.258 315.558 275.53 316.676 277.134 318.644C278.98 320.915 280.792 322.961 282.222 325.51C282.942 326.793 284.685 329.602 282.119 329.957C279.336 330.339 274.411 326.68 272.391 325.25C268.932 322.814 265.586 320.577 263.089 317.066C261.824 315.289 259.899 312.211 261.182 310.079C262.257 308.284 263.8 307.972 265.768 308.015C267.823 308.059 269.011 308.666 270.623 309.966C271.369 310.564 274.975 314.231 273.753 315.22L271.152 314.084V314.093Z" fill="#0EDBFF"/>
<path fill-rule="evenodd" clip-rule="evenodd" d="M298.053 549.958C297.03 550.694 289.193 555.046 292.92 556.936C294.923 557.951 298.868 557.656 300.905 556.789C302.717 556.017 304.554 554.83 303.419 552.74C301.121 548.527 295.356 550.954 292.374 552.792L298.044 549.958H298.053Z" fill="#0EDBFF"/>
<path fill-rule="evenodd" clip-rule="evenodd" d="M354.464 293.373C351.897 295.228 332.218 306.152 341.59 310.876C346.626 313.416 356.518 312.68 361.633 310.512C366.184 308.579 370.788 305.588 367.936 300.36C362.162 289.793 347.693 295.887 340.228 300.499L354.464 293.382V293.373Z" fill="#0EDBFF"/>
<path style="mix-blend-mode:screen" d="M360.51 774.292C389.077 762.459 402.642 729.709 390.809 701.143C378.977 672.576 346.227 659.01 317.66 670.843C289.093 682.676 275.528 715.426 287.361 743.993C299.193 772.559 331.943 786.125 360.51 774.292Z" fill="url(#paint22_radial_34_3287)"/>
<path style="mix-blend-mode:screen" d="M300.904 607.117C321.204 586.817 321.204 553.904 300.904 533.605C280.604 513.305 247.692 513.305 227.392 533.605C207.092 553.904 207.092 586.817 227.392 607.117C247.691 627.417 280.604 627.417 300.904 607.117Z" fill="url(#paint23_radial_34_3287)"/>
<path style="mix-blend-mode:screen" fill-rule="evenodd" clip-rule="evenodd" d="M297.368 339.485C290.788 348.545 274.29 347.773 260.523 337.777C246.756 327.773 240.931 312.324 247.502 303.274C254.082 294.214 270.58 294.986 284.346 304.981C298.113 314.986 303.939 330.434 297.368 339.485Z" fill="url(#paint24_radial_34_3287)"/>
<path fill-rule="evenodd" clip-rule="evenodd" d="M231.715 280.413C231.715 280.413 245.291 338.081 283.471 359.814C331.785 387.313 365.491 377.656 365.491 377.656C365.491 377.656 322.318 376.13 282.396 348.908C249.062 326.178 231.715 280.413 231.715 280.413Z" fill="url(#paint25_linear_34_3287)"/>
<path style="mix-blend-mode:multiply" opacity="0.4" fill-rule="evenodd" clip-rule="evenodd" d="M141.069 725.025L166.713 687.331C166.713 687.331 199.596 780.863 284.91 810.165L266.219 822.216C266.219 822.216 179.249 797.465 141.069 725.025Z" fill="url(#paint26_linear_34_3287)"/>
<path style="mix-blend-mode:multiply" fill-rule="evenodd" clip-rule="evenodd" d="M189.626 308.683C189.626 308.683 312.634 432.506 401.165 487.539C401.165 487.539 392.6 453.703 368.742 422.545C368.742 422.545 294.42 398.107 189.626 308.683Z" fill="url(#paint27_linear_34_3287)"/>
<path style="mix-blend-mode:screen" d="M44.8256 505.525C102.113 467.838 128.966 407.512 104.804 370.785C80.6415 334.058 14.614 334.836 -42.673 372.524C-99.96 410.212 -126.813 470.537 -102.651 507.264C-78.4889 543.992 -12.4614 543.213 44.8256 505.525Z" fill="url(#paint28_radial_34_3287)"/>
<g filter="url(#filter2_f_34_3287)">
<circle cx="6.89751" cy="6.89751" r="6.89751" transform="matrix(-1 0 0 1 450.722 336.927)" fill="white"/>
</g>
<path d="M444.317 332L442.314 342.314L432 344.317L442.314 346.32L444.317 356.634L446.32 346.32L456.634 344.317L446.32 342.314L444.317 332Z" fill="white"/>
<g filter="url(#filter3_f_34_3287)">
<circle cx="5.518" cy="5.518" r="5.518" transform="matrix(-1 0 0 1 700.978 638.941)" fill="white"/>
</g>
<path d="M695.854 635L694.251 643.251L686 644.854L694.251 646.456L695.854 654.707L697.456 646.456L705.707 644.854L697.456 643.251L695.854 635Z" fill="white"/>
<g filter="url(#filter4_f_34_3287)">
<circle cx="4.9662" cy="4.9662" r="4.9662" transform="matrix(-1 0 0 1 1388.48 154.547)" fill="white"/>
</g>
<path d="M1383.87 151L1382.43 158.426L1375 159.868L1382.43 161.311L1383.87 168.736L1385.31 161.311L1392.74 159.868L1385.31 158.426L1383.87 151Z" fill="white"/>
<defs>
<filter id="filter0_f_34_3287" x="-228.457" y="0.531738" width="1069.4" height="1049.7" filterUnits="userSpaceOnUse" color-interpolation-filters="sRGB">
<feFlood flood-opacity="0" result="BackgroundImageFix"/>
<feBlend mode="normal" in="SourceGraphic" in2="BackgroundImageFix" result="shape"/>
<feGaussianBlur stdDeviation="190" result="effect1_foregroundBlur_34_3287"/>
</filter>
<filter id="filter1_f_34_3287" x="-554" y="395.286" width="1027.78" height="897.714" filterUnits="userSpaceOnUse" color-interpolation-filters="sRGB">
<feFlood flood-opacity="0" result="BackgroundImageFix"/>
<feBlend mode="normal" in="SourceGraphic" in2="BackgroundImageFix" result="shape"/>
<feGaussianBlur stdDeviation="135.5" result="effect1_foregroundBlur_34_3287"/>
</filter>
<filter id="filter2_f_34_3287" x="425.927" y="325.927" width="35.795" height="35.7949" filterUnits="userSpaceOnUse" color-interpolation-filters="sRGB">
<feFlood flood-opacity="0" result="BackgroundImageFix"/>
<feBlend mode="normal" in="SourceGraphic" in2="BackgroundImageFix" result="shape"/>
<feGaussianBlur stdDeviation="5.5" result="effect1_foregroundBlur_34_3287"/>
</filter>
<filter id="filter3_f_34_3287" x="678.942" y="627.941" width="33.036" height="33.0361" filterUnits="userSpaceOnUse" color-interpolation-filters="sRGB">
<feFlood flood-opacity="0" result="BackgroundImageFix"/>
<feBlend mode="normal" in="SourceGraphic" in2="BackgroundImageFix" result="shape"/>
<feGaussianBlur stdDeviation="5.5" result="effect1_foregroundBlur_34_3287"/>
</filter>
<filter id="filter4_f_34_3287" x="1367.55" y="143.547" width="31.9324" height="31.9326" filterUnits="userSpaceOnUse" color-interpolation-filters="sRGB">
<feFlood flood-opacity="0" result="BackgroundImageFix"/>
<feBlend mode="normal" in="SourceGraphic" in2="BackgroundImageFix" result="shape"/>
<feGaussianBlur stdDeviation="5.5" result="effect1_foregroundBlur_34_3287"/>
</filter>
<linearGradient id="paint0_linear_34_3287" x1="0" y1="177.857" x2="485.782" y2="177.857" gradientUnits="userSpaceOnUse">
<stop stop-color="#DA22FF"/>
<stop offset="1" stop-color="#9733EE"/>
</linearGradient>
<radialGradient id="paint1_radial_34_3287" cx="0" cy="0" r="1" gradientUnits="userSpaceOnUse" gradientTransform="translate(122.007 585.874) scale(409.415)">
<stop stop-color="#009BFF"/>
<stop offset="1"/>
</radialGradient>
<radialGradient id="paint2_radial_34_3287" cx="0" cy="0" r="1" gradientUnits="userSpaceOnUse" gradientTransform="translate(122.007 585.874) scale(342.687)">
<stop stop-color="#009BFF"/>
<stop offset="1"/>
</radialGradient>
<radialGradient id="paint3_radial_34_3287" cx="0" cy="0" r="1" gradientUnits="userSpaceOnUse" gradientTransform="translate(122.007 585.874) scale(348.765)">
<stop stop-color="#0092FF"/>
<stop offset="0.13" stop-color="#008FFB"/>
<stop offset="0.26" stop-color="#0088EF"/>
<stop offset="0.38" stop-color="#007DDA"/>
<stop offset="0.51" stop-color="#006DBE"/>
<stop offset="0.63" stop-color="#00589A"/>
<stop offset="0.76" stop-color="#003F6E"/>
<stop offset="0.88" stop-color="#00213A"/>
<stop offset="1"/>
</radialGradient>
<radialGradient id="paint4_radial_34_3287" cx="0" cy="0" r="1" gradientUnits="userSpaceOnUse" gradientTransform="translate(-60.9507 443.361) scale(475.102 475.102)">
<stop stop-color="#60DBFF"/>
<stop offset="0.09" stop-color="#5FD5FF"/>
<stop offset="0.21" stop-color="#5EC4FF"/>
<stop offset="0.34" stop-color="#5CA8FF"/>
<stop offset="0.49" stop-color="#5A81FF"/>
<stop offset="0.64" stop-color="#5651FF"/>
<stop offset="0.68" stop-color="#5643FF"/>
<stop offset="0.74" stop-color="#553DF8"/>
<stop offset="0.83" stop-color="#542EE4"/>
<stop offset="0.93" stop-color="#5315C5"/>
<stop offset="1" stop-color="#5200AB"/>
</radialGradient>
<linearGradient id="paint5_linear_34_3287" x1="-173.547" y1="504.895" x2="251.915" y2="504.895" gradientUnits="userSpaceOnUse">
<stop offset="0.01" stop-color="#81E0FF"/>
<stop offset="0.32" stop-color="#82DDFF"/>
<stop offset="0.55" stop-color="#85D3FF"/>
<stop offset="0.75" stop-color="#8BC3FF"/>
<stop offset="0.94" stop-color="#93ADFF"/>
<stop offset="1" stop-color="#97A4FF"/>
</linearGradient>
<linearGradient id="paint6_linear_34_3287" x1="256.249" y1="854.145" x2="256.249" y2="715.263" gradientUnits="userSpaceOnUse">
<stop stop-color="#B8C2FF"/>
<stop offset="1" stop-color="#5B729C"/>
</linearGradient>
<radialGradient id="paint7_radial_34_3287" cx="0" cy="0" r="1" gradientUnits="userSpaceOnUse" gradientTransform="translate(-93.9198 384.712) scale(389.293 389.293)">
<stop stop-color="#FFFFD9"/>
<stop offset="1"/>
</radialGradient>
<linearGradient id="paint8_linear_34_3287" x1="-170.851" y1="421.175" x2="201.113" y2="421.175" gradientUnits="userSpaceOnUse">
<stop stop-color="#B8C2FF"/>
<stop offset="1" stop-color="#7D72B3"/>
</linearGradient>
<linearGradient id="paint9_linear_34_3287" x1="-110.478" y1="698.046" x2="417.992" y2="698.046" gradientUnits="userSpaceOnUse">
<stop stop-color="#B8C2FF"/>
<stop offset="1" stop-color="#7D72B3"/>
</linearGradient>
<linearGradient id="paint10_linear_34_3287" x1="-141.696" y1="588.735" x2="385.716" y2="588.735" gradientUnits="userSpaceOnUse">
<stop stop-color="#B8C2FF"/>
<stop offset="1" stop-color="#7D72B3"/>
</linearGradient>
<linearGradient id="paint11_linear_34_3287" x1="-173.538" y1="515.029" x2="344.884" y2="515.029" gradientUnits="userSpaceOnUse">
<stop stop-color="#B8C2FF"/>
<stop offset="1" stop-color="#7D72B3"/>
</linearGradient>
<linearGradient id="paint12_linear_34_3287" x1="210.536" y1="472.298" x2="217.654" y2="472.298" gradientUnits="userSpaceOnUse">
<stop stop-color="#E8DDFF"/>
<stop offset="1" stop-color="#AA8AD8"/>
</linearGradient>
<linearGradient id="paint13_linear_34_3287" x1="178.919" y1="348.908" x2="368.742" y2="348.908" gradientUnits="userSpaceOnUse">
<stop stop-color="#7F72FF"/>
<stop offset="1" stop-color="#9A00B3"/>
</linearGradient>
<linearGradient id="paint14_linear_34_3287" x1="222.04" y1="804.582" x2="318.321" y2="510.625" gradientUnits="userSpaceOnUse">
<stop stop-color="#280077"/>
<stop offset="1" stop-color="#812CFF"/>
</linearGradient>
<linearGradient id="paint15_linear_34_3287" x1="249.549" y1="798.696" x2="341.418" y2="518.286" gradientUnits="userSpaceOnUse">
<stop stop-color="#7A00B3"/>
<stop offset="1" stop-color="#B136FF"/>
</linearGradient>
<linearGradient id="paint16_linear_34_3287" x1="281.243" y1="718.159" x2="281.243" y2="515.055" gradientUnits="userSpaceOnUse">
<stop stop-color="#8E00B3"/>
<stop offset="1" stop-color="#E05CFF"/>
</linearGradient>
<linearGradient id="paint17_linear_34_3287" x1="-44.4096" y1="835.732" x2="-44.4096" y2="716.486" gradientUnits="userSpaceOnUse">
<stop stop-color="#81A9CE"/>
<stop offset="1" stop-color="#5B729C"/>
</linearGradient>
<linearGradient id="paint18_linear_34_3287" x1="-77.9164" y1="801.479" x2="-38.1418" y2="680.049" gradientUnits="userSpaceOnUse">
<stop stop-color="#280077"/>
<stop offset="1" stop-color="#812CFF"/>
</linearGradient>
<linearGradient id="paint19_linear_34_3287" x1="150.528" y1="621.262" x2="175.833" y2="544.01" gradientUnits="userSpaceOnUse">
<stop stop-color="#5B008B"/>
<stop offset="1" stop-color="#8E00FF"/>
</linearGradient>
<linearGradient id="paint20_linear_34_3287" x1="159.344" y1="615.679" x2="180.272" y2="551.786" gradientUnits="userSpaceOnUse">
<stop stop-color="#A400CA"/>
<stop offset="1" stop-color="#B136FF"/>
</linearGradient>
<linearGradient id="paint21_linear_34_3287" x1="264.268" y1="388.319" x2="294.472" y2="296.113" gradientUnits="userSpaceOnUse">
<stop stop-color="#5B008B"/>
<stop offset="1" stop-color="#8E00FF"/>
</linearGradient>
<radialGradient id="paint22_radial_34_3287" cx="0" cy="0" r="1" gradientUnits="userSpaceOnUse" gradientTransform="translate(339.089 722.573) scale(55.9861 55.9861)">
<stop stop-color="#317AFF"/>
<stop offset="0.1" stop-color="#2967D7"/>
<stop offset="0.29" stop-color="#1C4896"/>
<stop offset="0.47" stop-color="#122E60"/>
<stop offset="0.64" stop-color="#0A1A37"/>
<stop offset="0.78" stop-color="#040B18"/>
<stop offset="0.91" stop-color="#010306"/>
<stop offset="1"/>
</radialGradient>
<radialGradient id="paint23_radial_34_3287" cx="0" cy="0" r="1" gradientUnits="userSpaceOnUse" gradientTransform="translate(264.145 570.364) scale(51.981)">
<stop stop-color="#317AFF"/>
<stop offset="0.1" stop-color="#2967D7"/>
<stop offset="0.29" stop-color="#1C4896"/>
<stop offset="0.47" stop-color="#122E60"/>
<stop offset="0.64" stop-color="#0A1A37"/>
<stop offset="0.78" stop-color="#040B18"/>
<stop offset="0.91" stop-color="#010306"/>
<stop offset="1"/>
</radialGradient>
<radialGradient id="paint24_radial_34_3287" cx="0" cy="0" r="1" gradientUnits="userSpaceOnUse" gradientTransform="translate(271.043 323.351) rotate(35.99) scale(30.8106 20.335)">
<stop stop-color="#317AFF"/>
<stop offset="0.1" stop-color="#2967D7"/>
<stop offset="0.29" stop-color="#1C4896"/>
<stop offset="0.47" stop-color="#122E60"/>
<stop offset="0.64" stop-color="#0A1A37"/>
<stop offset="0.78" stop-color="#040B18"/>
<stop offset="0.91" stop-color="#010306"/>
<stop offset="1"/>
</radialGradient>
<linearGradient id="paint25_linear_34_3287" x1="298.607" y1="379.294" x2="298.607" y2="280.413" gradientUnits="userSpaceOnUse">
<stop stop-color="#B000D9"/>
<stop offset="1" stop-color="#E05CFF"/>
</linearGradient>
<linearGradient id="paint26_linear_34_3287" x1="212.99" y1="822.216" x2="212.99" y2="687.331" gradientUnits="userSpaceOnUse">
<stop stop-color="#B8C2FF"/>
<stop offset="1" stop-color="#7D72B3"/>
</linearGradient>
<linearGradient id="paint27_linear_34_3287" x1="295.4" y1="487.539" x2="295.4" y2="308.683" gradientUnits="userSpaceOnUse">
<stop stop-color="#81A9CE"/>
<stop offset="1" stop-color="#5B729C"/>
</linearGradient>
<radialGradient id="paint28_radial_34_3287" cx="0" cy="0" r="1" gradientUnits="userSpaceOnUse" gradientTransform="translate(8.43741 433.879) rotate(-33.34) scale(124.392 79.7004)">
<stop stop-color="#06FEFF"/>
<stop offset="0.17" stop-color="#04C4C4"/>
<stop offset="0.4" stop-color="#037F7F"/>
<stop offset="0.6" stop-color="#014848"/>
<stop offset="0.78" stop-color="#002121"/>
<stop offset="0.92" stop-color="#000808"/>
<stop offset="1"/>
</radialGradient>
</defs>
</svg>
